M48
; DRILL file KiCad 10.0.4 date 2026-09-22T16:23:30
; FORMAT={-:-/ absolute / metric / decimal}
; #@! TF.CreationDate,2026-09-22T16:23:30+02:00
; #@! TF.GenerationSoftware,Kicad,Pcbnew,10.0.4
; #@! TF.FileFunction,Plated,1,2,PTH
FMAT,2
METRIC
; #@! TA.AperFunction,Plated,PTH,ComponentDrill
T1C0.200
; #@! TA.AperFunction,Plated,PTH,ViaDrill
T2C0.300
; #@! TA.AperFunction,Plated,PTH,ComponentDrill
T3C0.400
; #@! TA.AperFunction,Plated,PTH,ComponentDrill
T4C0.600
; #@! TA.AperFunction,Plated,PTH,ComponentDrill
T5C2.200
%
G90
G05
T1
X163.76Y-117.121
X168.6Y-111.841
T2
X102.4Y-67.8
X104.8Y-148.0
X108.0Y-64.0
X111.65Y-130.0
X111.65Y-142.6
X113.35Y-130.0
X113.35Y-142.4
X117.462Y-126.462
X118.4Y-120.2
X119.176Y-114.776
X119.2Y-108.6
X119.576Y-101.976
X120.0Y-148.3
X120.0Y-150.0
X120.4Y-98.0
X120.8Y-124.6
X120.8Y-126.4
X121.224Y-97.976
X121.424Y-150.424
X121.7Y-125.462
X121.8Y-104.386
X121.8Y-120.12
X121.8Y-122.0
X121.81Y-99.61
X121.993Y-107.607
X122.0Y-94.4
X122.2Y-113.0
X122.2Y-113.8
X122.2Y-114.6
X122.2Y-115.4
X122.4Y-93.707
X122.6Y-124.6
X122.6Y-126.4
X123.259Y-105.8
X123.504Y-122.232
X124.0Y-88.2
X124.0Y-89.0
X124.0Y-89.8
X124.0Y-90.6
X124.4Y-57.0
X124.6Y-112.4
X124.6Y-56.0
X124.8Y-95.781
X124.8Y-125.462
X124.84Y-96.58
X125.0Y-122.2
X125.0Y-124.027
X125.259Y-99.711
X125.259Y-100.511
X125.259Y-101.311
X125.259Y-102.111
X125.321Y-105.8
X125.334Y-98.914
X125.45Y-75.2
X125.9Y-98.349
X126.0Y-62.4
X126.0Y-134.275
X127.073Y-93.679
X127.173Y-94.627
X127.223Y-102.626
X127.25Y-71.6
X127.276Y-96.441
X127.512Y-104.226
X127.6Y-66.2
X127.6Y-67.25
X127.6Y-68.2
X127.786Y-94.042
X127.8Y-121.8
X127.8Y-142.8
X127.8Y-144.6
X128.0Y-102.003
X128.32Y-104.026
X128.58Y-101.435
X128.793Y-144.607
X129.0Y-95.0
X129.239Y-97.639
X129.319Y-103.6
X129.4Y-101.401
X129.407Y-121.993
X129.57Y-105.249
X129.999Y-71.599
X130.0Y-96.2
X130.276Y-109.631
X130.444Y-97.6
X130.49Y-120.641
X130.739Y-105.061
X131.107Y-107.493
X131.21Y-78.56
X131.4Y-117.2
X131.539Y-96.739
X131.6Y-148.3
X131.69Y-111.09
X131.8Y-92.6
X132.0Y-126.0
X132.507Y-107.4
X132.6Y-117.2
X132.6Y-150.0
X132.8Y-133.8
X132.976Y-111.776
X133.257Y-67.956
X133.4Y-101.0
X133.576Y-111.176
X133.6Y-95.2
X133.703Y-87.703
X133.75Y-71.0
X134.056Y-68.003
X134.2Y-100.2
X134.2Y-101.8
X134.269Y-88.269
X134.686Y-106.749
X134.834Y-88.834
X134.855Y-68.041
X135.0Y-65.4
X135.0Y-76.5
X135.0Y-99.4
X135.0Y-101.0
X135.0Y-102.6
X135.0Y-133.8
X135.4Y-89.4
X135.65Y-67.953
X135.8Y-100.2
X135.8Y-101.8
X136.0Y-93.0
X136.289Y-95.572
X136.451Y-67.763
X136.6Y-101.0
X137.176Y-67.424
X137.499Y-96.603
X137.8Y-91.0
X137.821Y-105.827
X138.149Y-93.949
X138.537Y-110.6
X138.543Y-94.949
X138.624Y-98.225
X138.8Y-80.25
X139.2Y-92.049
X139.4Y-119.2
X139.4Y-132.4
X139.437Y-104.023
X139.54Y-108.689
X139.651Y-107.437
X139.8Y-82.2
X139.8Y-87.06
X139.8Y-88.33
X140.0Y-142.2
X140.144Y-109.379
X140.476Y-93.8
X140.71Y-109.944
X140.716Y-142.558
X140.8Y-101.0
X140.886Y-97.9
X141.31Y-109.156
X141.36Y-143.032
X141.4Y-90.6
X141.452Y-98.466
X141.514Y-105.7
X141.6Y-112.772
X141.6Y-113.62
X141.8Y-118.6
X141.824Y-117.776
X141.891Y-102.643
X141.917Y-108.635
X142.018Y-99.032
X142.042Y-143.45
X142.176Y-114.176
X142.4Y-66.4
X142.4Y-67.25
X142.4Y-68.2
X142.583Y-99.598
X142.717Y-117.083
X142.8Y-107.793
X142.8Y-108.6
X142.807Y-106.993
X142.84Y-143.397
X143.0Y-114.2
X143.149Y-100.163
X143.2Y-115.11
X143.4Y-103.4
X143.4Y-118.0
X143.64Y-143.401
X144.0Y-62.4
X144.705Y-99.456
X145.2Y-117.151
X145.2Y-118.01
X145.4Y-56.0
X145.4Y-119.8
X145.6Y-57.0
X146.2Y-98.4
X146.3Y-115.1
X147.27Y-77.682
X147.376Y-69.176
X147.4Y-111.6
X147.424Y-102.176
X147.8Y-116.6
X147.8Y-117.4
X147.8Y-118.2
X148.2Y-77.6
X149.0Y-107.4
X149.2Y-119.8
X149.355Y-68.045
X150.0Y-87.06
X150.0Y-88.33
X150.0Y-148.3
X150.0Y-150.0
X150.4Y-105.009
X150.4Y-106.25
X151.0Y-71.345
X151.055Y-73.545
X151.2Y-93.076
X151.2Y-94.9
X151.776Y-117.424
X151.78Y-118.36
X152.38Y-111.4
X152.4Y-85.8
X154.85Y-103.2
X154.862Y-106.8
X157.137Y-103.2
X157.137Y-106.8
X162.0Y-64.0
X165.2Y-148.0
T3
X105.75Y-57.4
X105.75Y-152.6
X106.233Y-56.233
X106.233Y-58.567
X106.233Y-151.433
X106.233Y-153.767
X107.4Y-55.75
X107.4Y-59.05
X107.4Y-150.95
X107.4Y-154.25
X108.567Y-56.233
X108.567Y-58.567
X108.567Y-151.433
X108.567Y-153.767
X109.05Y-57.4
X109.05Y-152.6
X160.95Y-57.4
X160.95Y-152.6
X161.433Y-56.233
X161.433Y-58.567
X161.433Y-151.433
X161.433Y-153.767
X162.6Y-55.75
X162.6Y-59.05
X162.6Y-150.95
X162.6Y-154.25
X163.767Y-56.233
X163.767Y-58.567
X163.767Y-151.433
X163.767Y-153.767
X164.25Y-57.4
X164.25Y-152.6
T5
X107.4Y-57.4
X107.4Y-152.6
X162.6Y-57.4
X162.6Y-152.6
T4
G00X163.77Y-100.68
M15
G01X162.67Y-100.68
M16
G05
G00X163.77Y-109.32
M15
G01X162.67Y-109.32
M16
G05
G00X167.8Y-100.68
M15
G01X167.0Y-100.68
M16
G05
G00X167.8Y-109.32
M15
G01X167.0Y-109.32
M16
G05
M30
