%TF.GenerationSoftware,KiCad,Pcbnew,10.0.4*%
%TF.CreationDate,2026-09-13T11:47:39+02:00*%
%TF.ProjectId,UHBadge,55484261-6467-4652-9e6b-696361645f70,1.0.0*%
%TF.SameCoordinates,Original*%
%TF.FileFunction,Paste,Bot*%
%TF.FilePolarity,Positive*%
%FSLAX46Y46*%
G04 Gerber Fmt 4.6, Leading zero omitted, Abs format (unit mm)*
G04 Created by KiCad (PCBNEW 10.0.4) date 2026-09-13 11:47:39*
%MOMM*%
%LPD*%
G01*
G04 APERTURE LIST*
G04 Aperture macros list*
%AMRoundRect*
0 Rectangle with rounded corners*
0 $1 Rounding radius*
0 $2 $3 $4 $5 $6 $7 $8 $9 X,Y pos of 4 corners*
0 Add a 4 corners polygon primitive as box body*
4,1,4,$2,$3,$4,$5,$6,$7,$8,$9,$2,$3,0*
0 Add four circle primitives for the rounded corners*
1,1,$1+$1,$2,$3*
1,1,$1+$1,$4,$5*
1,1,$1+$1,$6,$7*
1,1,$1+$1,$8,$9*
0 Add four rect primitives between the rounded corners*
20,1,$1+$1,$2,$3,$4,$5,0*
20,1,$1+$1,$4,$5,$6,$7,0*
20,1,$1+$1,$6,$7,$8,$9,0*
20,1,$1+$1,$8,$9,$2,$3,0*%
%AMRotRect*
0 Rectangle, with rotation*
0 The origin of the aperture is its center*
0 $1 length*
0 $2 width*
0 $3 Rotation angle, in degrees counterclockwise*
0 Add horizontal line*
21,1,$1,$2,0,0,$3*%
G04 Aperture macros list end*
%ADD10RoundRect,0.135000X-0.226274X-0.035355X-0.035355X-0.226274X0.226274X0.035355X0.035355X0.226274X0*%
%ADD11RoundRect,0.135000X-0.185000X0.135000X-0.185000X-0.135000X0.185000X-0.135000X0.185000X0.135000X0*%
%ADD12RoundRect,0.135000X0.135000X0.185000X-0.135000X0.185000X-0.135000X-0.185000X0.135000X-0.185000X0*%
%ADD13RoundRect,0.135000X0.185000X-0.135000X0.185000X0.135000X-0.185000X0.135000X-0.185000X-0.135000X0*%
%ADD14R,1.000000X2.000000*%
%ADD15R,2.000000X1.000000*%
%ADD16RoundRect,0.140000X-0.219203X-0.021213X-0.021213X-0.219203X0.219203X0.021213X0.021213X0.219203X0*%
%ADD17RotRect,1.000000X1.600000X135.000000*%
%ADD18RoundRect,0.140000X-0.021213X0.219203X-0.219203X0.021213X0.021213X-0.219203X0.219203X-0.021213X0*%
%ADD19RoundRect,0.135000X-0.035355X0.226274X-0.226274X0.035355X0.035355X-0.226274X0.226274X-0.035355X0*%
%ADD20RoundRect,0.140000X0.170000X-0.140000X0.170000X0.140000X-0.170000X0.140000X-0.170000X-0.140000X0*%
%ADD21RoundRect,0.150000X-0.425000X0.150000X-0.425000X-0.150000X0.425000X-0.150000X0.425000X0.150000X0*%
%ADD22RoundRect,0.075000X-0.500000X0.075000X-0.500000X-0.075000X0.500000X-0.075000X0.500000X0.075000X0*%
%ADD23O,1.800000X1.000000*%
%ADD24O,2.100000X1.000000*%
%ADD25RoundRect,0.140000X0.021213X-0.219203X0.219203X-0.021213X-0.021213X0.219203X-0.219203X0.021213X0*%
%ADD26R,1.200000X0.700000*%
%ADD27R,0.800000X1.000000*%
%ADD28R,2.800000X1.000000*%
%ADD29R,1.200000X1.000000*%
%ADD30R,1.900000X1.300000*%
%ADD31RoundRect,0.140000X0.140000X0.170000X-0.140000X0.170000X-0.140000X-0.170000X0.140000X-0.170000X0*%
%ADD32RoundRect,0.250000X0.475000X0.250000X-0.475000X0.250000X-0.475000X-0.250000X0.475000X-0.250000X0*%
%ADD33RoundRect,0.243750X-0.456250X0.243750X-0.456250X-0.243750X0.456250X-0.243750X0.456250X0.243750X0*%
%ADD34RoundRect,0.140000X-0.170000X0.140000X-0.170000X-0.140000X0.170000X-0.140000X0.170000X0.140000X0*%
%ADD35RoundRect,0.140000X-0.140000X-0.170000X0.140000X-0.170000X0.140000X0.170000X-0.140000X0.170000X0*%
%ADD36RoundRect,0.250000X-0.250000X-1.100000X0.250000X-1.100000X0.250000X1.100000X-0.250000X1.100000X0*%
%ADD37RoundRect,0.250000X-0.650000X-1.650000X0.650000X-1.650000X0.650000X1.650000X-0.650000X1.650000X0*%
%ADD38RoundRect,0.250000X0.315000X0.780000X-0.315000X0.780000X-0.315000X-0.780000X0.315000X-0.780000X0*%
%ADD39RoundRect,0.062500X0.300000X0.062500X-0.300000X0.062500X-0.300000X-0.062500X0.300000X-0.062500X0*%
%ADD40RoundRect,0.225000X0.225000X0.375000X-0.225000X0.375000X-0.225000X-0.375000X0.225000X-0.375000X0*%
%ADD41RoundRect,0.225000X-0.225000X-0.375000X0.225000X-0.375000X0.225000X0.375000X-0.225000X0.375000X0*%
%ADD42RoundRect,0.140000X0.219203X0.021213X0.021213X0.219203X-0.219203X-0.021213X-0.021213X-0.219203X0*%
%ADD43RoundRect,0.135000X-0.135000X-0.185000X0.135000X-0.185000X0.135000X0.185000X-0.135000X0.185000X0*%
%ADD44R,0.300000X1.300000*%
%ADD45R,2.000000X3.000000*%
%ADD46RoundRect,0.250000X0.255000X0.255000X-0.255000X0.255000X-0.255000X-0.255000X0.255000X-0.255000X0*%
%ADD47RoundRect,0.062500X0.350000X0.062500X-0.350000X0.062500X-0.350000X-0.062500X0.350000X-0.062500X0*%
%ADD48RoundRect,0.062500X0.062500X0.350000X-0.062500X0.350000X-0.062500X-0.350000X0.062500X-0.350000X0*%
%ADD49RoundRect,0.150000X0.512500X0.150000X-0.512500X0.150000X-0.512500X-0.150000X0.512500X-0.150000X0*%
%ADD50RoundRect,0.112500X0.112500X-0.350000X0.112500X0.350000X-0.112500X0.350000X-0.112500X-0.350000X0*%
%ADD51RoundRect,0.250000X0.565685X-0.070711X-0.070711X0.565685X-0.565685X0.070711X0.070711X-0.565685X0*%
%ADD52RoundRect,0.227500X0.321734X0.000000X0.000000X0.321734X-0.321734X0.000000X0.000000X-0.321734X0*%
%ADD53RoundRect,0.050000X0.282843X-0.212132X-0.212132X0.282843X-0.282843X0.212132X0.212132X-0.282843X0*%
%ADD54RoundRect,0.050000X0.282843X0.212132X0.212132X0.282843X-0.282843X-0.212132X-0.212132X-0.282843X0*%
%ADD55RoundRect,0.162500X0.650000X0.162500X-0.650000X0.162500X-0.650000X-0.162500X0.650000X-0.162500X0*%
%ADD56RoundRect,0.250000X0.300000X1.600000X-0.300000X1.600000X-0.300000X-1.600000X0.300000X-1.600000X0*%
G04 APERTURE END LIST*
D10*
%TO.C,R10*%
X129039376Y-106239376D03*
X129760624Y-106960624D03*
%TD*%
D11*
%TO.C,R6*%
X121000000Y-129200000D03*
X121000000Y-130220000D03*
%TD*%
D12*
%TO.C,R15*%
X157910000Y-116400000D03*
X156890000Y-116400000D03*
%TD*%
D13*
%TO.C,R17*%
X129950000Y-85020000D03*
X129950000Y-84000000D03*
%TD*%
D14*
%TO.C,U7*%
X107650000Y-94950000D03*
X109150000Y-94950000D03*
X110650000Y-94950000D03*
X112150000Y-94950000D03*
X113650000Y-94950000D03*
X115150000Y-94950000D03*
X116650000Y-94950000D03*
D15*
X117950000Y-97200000D03*
X117950000Y-98700000D03*
X117950000Y-100200000D03*
X117950000Y-101700000D03*
X117950000Y-103200000D03*
X117950000Y-104700000D03*
X117950000Y-106200000D03*
D14*
X116650000Y-108450000D03*
X115150000Y-108450000D03*
X113650000Y-108450000D03*
X112150000Y-108450000D03*
X110650000Y-108450000D03*
X109150000Y-108450000D03*
X107650000Y-108450000D03*
%TD*%
D11*
%TO.C,R7*%
X122200000Y-129200000D03*
X122200000Y-130220000D03*
%TD*%
D16*
%TO.C,C13*%
X138400000Y-106200000D03*
X139078822Y-106878822D03*
%TD*%
D13*
%TO.C,R18*%
X115150000Y-93000000D03*
X115150000Y-91980000D03*
%TD*%
D17*
%TO.C,L1*%
X140400000Y-95000000D03*
X138985786Y-93585786D03*
%TD*%
D18*
%TO.C,C2*%
X136339411Y-94260589D03*
X135660589Y-94939411D03*
%TD*%
D13*
%TO.C,R12*%
X144000000Y-119800000D03*
X144000000Y-118780000D03*
%TD*%
D19*
%TO.C,R2*%
X139360624Y-96239376D03*
X138639376Y-96960624D03*
%TD*%
D20*
%TO.C,C24*%
X127250000Y-73460000D03*
X127250000Y-72500000D03*
%TD*%
D12*
%TO.C,R4*%
X160310000Y-101200000D03*
X159290000Y-101200000D03*
%TD*%
D21*
%TO.C,P1*%
X162645000Y-101800000D03*
X162645000Y-102600000D03*
D22*
X162645000Y-103750000D03*
X162645000Y-104750000D03*
X162645000Y-105250000D03*
X162645000Y-106250000D03*
D21*
X162645000Y-107400000D03*
X162645000Y-108200000D03*
X162645000Y-108200000D03*
X162645000Y-107400000D03*
D22*
X162645000Y-106750000D03*
X162645000Y-105750000D03*
X162645000Y-104250000D03*
X162645000Y-103250000D03*
D21*
X162645000Y-102600000D03*
X162645000Y-101800000D03*
D23*
X167400000Y-100680000D03*
D24*
X163220000Y-100680000D03*
D23*
X167400000Y-109320000D03*
D24*
X163220000Y-109320000D03*
%TD*%
D12*
%TO.C,R11*%
X157050000Y-89850000D03*
X156030000Y-89850000D03*
%TD*%
D20*
%TO.C,C32*%
X139750000Y-73460000D03*
X139750000Y-72500000D03*
%TD*%
D25*
%TO.C,C8*%
X137200000Y-95478822D03*
X137878822Y-94800000D03*
%TD*%
%TO.C,C3*%
X137921178Y-96200000D03*
X138600000Y-95521178D03*
%TD*%
D26*
%TO.C,J4*%
X152610000Y-75745000D03*
X152610000Y-74645000D03*
X152610000Y-73545000D03*
X152610000Y-72445000D03*
X152610000Y-71345000D03*
X152610000Y-70245000D03*
X152610000Y-69145000D03*
X152610000Y-68045000D03*
X152610000Y-67095000D03*
D27*
X163110000Y-66145000D03*
D28*
X167260000Y-66145000D03*
D29*
X156910000Y-66145000D03*
X152610000Y-77295000D03*
D30*
X167710000Y-79645000D03*
%TD*%
D31*
%TO.C,C19*%
X139200000Y-85800000D03*
X138240000Y-85800000D03*
%TD*%
D11*
%TO.C,R14*%
X144800000Y-113890000D03*
X144800000Y-114910000D03*
%TD*%
D20*
%TO.C,C30*%
X131250000Y-73460000D03*
X131250000Y-72500000D03*
%TD*%
%TO.C,C33*%
X138750000Y-73460000D03*
X138750000Y-72500000D03*
%TD*%
%TO.C,C18*%
X123200000Y-121080000D03*
X123200000Y-120120000D03*
%TD*%
%TO.C,C26*%
X128250000Y-73460000D03*
X128250000Y-72500000D03*
%TD*%
D32*
%TO.C,SW1*%
X164600000Y-93200000D03*
X159450000Y-93200000D03*
X164600000Y-94900000D03*
X159450000Y-94900000D03*
%TD*%
%TO.C,SW2*%
X164575000Y-88150000D03*
X159425000Y-88150000D03*
X164575000Y-89850000D03*
X159425000Y-89850000D03*
%TD*%
D19*
%TO.C,R1*%
X134721248Y-92678752D03*
X134000000Y-93400000D03*
%TD*%
D13*
%TO.C,R16*%
X131250000Y-85020000D03*
X131250000Y-84000000D03*
%TD*%
D33*
%TO.C,D2*%
X119800000Y-132400000D03*
X119800000Y-134275000D03*
%TD*%
D34*
%TO.C,C16*%
X124400000Y-120120000D03*
X124400000Y-121080000D03*
%TD*%
D33*
%TO.C,D3*%
X122200000Y-132400000D03*
X122200000Y-134275000D03*
%TD*%
D20*
%TO.C,C27*%
X130250000Y-73460000D03*
X130250000Y-72500000D03*
%TD*%
D34*
%TO.C,C23*%
X146000000Y-113920000D03*
X146000000Y-114880000D03*
%TD*%
D35*
%TO.C,C35*%
X130250000Y-76500000D03*
X131210000Y-76500000D03*
%TD*%
D20*
%TO.C,C28*%
X129250000Y-73460000D03*
X129250000Y-72500000D03*
%TD*%
D36*
%TO.C,J3*%
X133900000Y-147150000D03*
X135900000Y-147150000D03*
D37*
X131550000Y-142700000D03*
X138250000Y-142700000D03*
%TD*%
D18*
%TO.C,C5*%
X130739411Y-105060589D03*
X130060589Y-105739411D03*
%TD*%
D38*
%TO.C,U6*%
X148200000Y-117400000D03*
D39*
X149712500Y-116150000D03*
X149712500Y-116650000D03*
X149712500Y-117150000D03*
X149712500Y-117650000D03*
X149712500Y-118150000D03*
X149712500Y-118650000D03*
X146687500Y-118650000D03*
X146687500Y-118150000D03*
X146687500Y-117650000D03*
X146687500Y-117150000D03*
X146687500Y-116650000D03*
X146687500Y-116150000D03*
%TD*%
D25*
%TO.C,C1*%
X134800000Y-94200000D03*
X135478822Y-93521178D03*
%TD*%
D40*
%TO.C,D6*%
X128750000Y-76500000D03*
X125450000Y-76500000D03*
%TD*%
D41*
%TO.C,D5*%
X125450000Y-79000000D03*
X128750000Y-79000000D03*
%TD*%
D42*
%TO.C,C9*%
X132800000Y-94800000D03*
X132121178Y-94121178D03*
%TD*%
D20*
%TO.C,C29*%
X132250000Y-73460000D03*
X132250000Y-72500000D03*
%TD*%
D43*
%TO.C,R8*%
X150800000Y-85800000D03*
X151820000Y-85800000D03*
%TD*%
D42*
%TO.C,C11*%
X128739411Y-98139411D03*
X128060589Y-97460589D03*
%TD*%
D44*
%TO.C,U5*%
X129250000Y-69600000D03*
X129750000Y-69600000D03*
X130250000Y-69600000D03*
X130750000Y-69600000D03*
X131250000Y-69600000D03*
X131750000Y-69600000D03*
X132250000Y-69600000D03*
X132750000Y-69600000D03*
X133250000Y-69600000D03*
X133750000Y-69600000D03*
X134250000Y-69600000D03*
X134750000Y-69600000D03*
X135250000Y-69600000D03*
X135750000Y-69600000D03*
X136250000Y-69600000D03*
X136750000Y-69600000D03*
X137250000Y-69600000D03*
X137750000Y-69600000D03*
X138250000Y-69600000D03*
X138750000Y-69600000D03*
X139250000Y-69600000D03*
X139750000Y-69600000D03*
X140250000Y-69600000D03*
X140750000Y-69600000D03*
D45*
X127600000Y-67250000D03*
X142400000Y-67250000D03*
%TD*%
D18*
%TO.C,C12*%
X132339411Y-106260589D03*
X131660589Y-106939411D03*
%TD*%
D42*
%TO.C,C20*%
X126000000Y-105200000D03*
X125321178Y-104521178D03*
%TD*%
D19*
%TO.C,R3*%
X140160624Y-97039376D03*
X139439376Y-97760624D03*
%TD*%
D46*
%TO.C,U2*%
X122325000Y-126087500D03*
X122325000Y-124837500D03*
X121075000Y-126087500D03*
X121075000Y-124837500D03*
D47*
X123637500Y-124462500D03*
X123637500Y-124962500D03*
X123637500Y-125462500D03*
X123637500Y-125962500D03*
X123637500Y-126462500D03*
D48*
X122700000Y-127400000D03*
X122200000Y-127400000D03*
X121700000Y-127400000D03*
X121200000Y-127400000D03*
X120700000Y-127400000D03*
D47*
X119762500Y-126462500D03*
X119762500Y-125962500D03*
X119762500Y-125462500D03*
X119762500Y-124962500D03*
X119762500Y-124462500D03*
D48*
X120700000Y-123525000D03*
X121200000Y-123525000D03*
X121700000Y-123525000D03*
X122200000Y-123525000D03*
X122700000Y-123525000D03*
%TD*%
D16*
%TO.C,C21*%
X125721178Y-109721178D03*
X126400000Y-110400000D03*
%TD*%
D42*
%TO.C,C10*%
X129800000Y-97000000D03*
X129121178Y-96321178D03*
%TD*%
D20*
%TO.C,C25*%
X126250000Y-73460000D03*
X126250000Y-72500000D03*
%TD*%
D11*
%TO.C,R19*%
X120000000Y-100200000D03*
X120000000Y-101220000D03*
%TD*%
D31*
%TO.C,C36*%
X149130000Y-72450000D03*
X148170000Y-72450000D03*
%TD*%
D20*
%TO.C,C34*%
X137800000Y-80250000D03*
X137800000Y-79290000D03*
%TD*%
D49*
%TO.C,U4*%
X157137500Y-104050000D03*
X157137500Y-105000000D03*
X157137500Y-105950000D03*
X154862500Y-105950000D03*
X154862500Y-105000000D03*
X154862500Y-104050000D03*
%TD*%
D11*
%TO.C,R5*%
X123400000Y-129200000D03*
X123400000Y-130220000D03*
%TD*%
D16*
%TO.C,C6*%
X139860589Y-104060589D03*
X140539411Y-104739411D03*
%TD*%
D12*
%TO.C,R9*%
X157050000Y-94900000D03*
X156030000Y-94900000D03*
%TD*%
D42*
%TO.C,C4*%
X131539411Y-96739411D03*
X130860589Y-96060589D03*
%TD*%
D50*
%TO.C,Q1*%
X131250000Y-82250000D03*
X129950000Y-82250000D03*
X130600000Y-80475000D03*
%TD*%
D20*
%TO.C,C31*%
X133750000Y-73460000D03*
X133750000Y-72500000D03*
%TD*%
D51*
%TO.C,Y1*%
X127597919Y-109202081D03*
X126042284Y-107646446D03*
X127244365Y-106444365D03*
X128800000Y-108000000D03*
%TD*%
D13*
%TO.C,R13*%
X145200000Y-119800000D03*
X145200000Y-118780000D03*
%TD*%
D52*
%TO.C,U1*%
X135000000Y-102598061D03*
X135799031Y-101799031D03*
X136598061Y-101000000D03*
X134200969Y-101799031D03*
X135000000Y-101000000D03*
X135799031Y-100200969D03*
X133401939Y-101000000D03*
X134200969Y-100200969D03*
X135000000Y-99401939D03*
D53*
X139419417Y-101459619D03*
X139136575Y-101742462D03*
X138853732Y-102025305D03*
X138570889Y-102308148D03*
X138288047Y-102590990D03*
X138005204Y-102873833D03*
X137722361Y-103156676D03*
X137439518Y-103439518D03*
X137156676Y-103722361D03*
X136873833Y-104005204D03*
X136590990Y-104288047D03*
X136308148Y-104570889D03*
X136025305Y-104853732D03*
X135742462Y-105136575D03*
X135459619Y-105419417D03*
D54*
X134540381Y-105419417D03*
X134257538Y-105136575D03*
X133974695Y-104853732D03*
X133691852Y-104570889D03*
X133409010Y-104288047D03*
X133126167Y-104005204D03*
X132843324Y-103722361D03*
X132560482Y-103439518D03*
X132277639Y-103156676D03*
X131994796Y-102873833D03*
X131711953Y-102590990D03*
X131429111Y-102308148D03*
X131146268Y-102025305D03*
X130863425Y-101742462D03*
X130580583Y-101459619D03*
D53*
X130580583Y-100540381D03*
X130863425Y-100257538D03*
X131146268Y-99974695D03*
X131429111Y-99691852D03*
X131711953Y-99409010D03*
X131994796Y-99126167D03*
X132277639Y-98843324D03*
X132560482Y-98560482D03*
X132843324Y-98277639D03*
X133126167Y-97994796D03*
X133409010Y-97711953D03*
X133691852Y-97429111D03*
X133974695Y-97146268D03*
X134257538Y-96863425D03*
X134540381Y-96580583D03*
D54*
X135459619Y-96580583D03*
X135742462Y-96863425D03*
X136025305Y-97146268D03*
X136308148Y-97429111D03*
X136590990Y-97711953D03*
X136873833Y-97994796D03*
X137156676Y-98277639D03*
X137439518Y-98560482D03*
X137722361Y-98843324D03*
X138005204Y-99126167D03*
X138288047Y-99409010D03*
X138570889Y-99691852D03*
X138853732Y-99974695D03*
X139136575Y-100257538D03*
X139419417Y-100540381D03*
%TD*%
D34*
%TO.C,C22*%
X151200000Y-117400000D03*
X151200000Y-118360000D03*
%TD*%
D55*
%TO.C,U3*%
X148575000Y-85790000D03*
X148575000Y-87060000D03*
X148575000Y-88330000D03*
X148575000Y-89600000D03*
X141400000Y-89600000D03*
X141400000Y-88330000D03*
X141400000Y-87060000D03*
X141400000Y-85790000D03*
%TD*%
D40*
%TO.C,D7*%
X136050000Y-76500000D03*
X132750000Y-76500000D03*
%TD*%
D56*
%TO.C,L3*%
X135900000Y-80250000D03*
X132900000Y-80250000D03*
%TD*%
D16*
%TO.C,C7*%
X142060589Y-102060589D03*
X142739411Y-102739411D03*
%TD*%
D33*
%TO.C,D1*%
X124600000Y-132400000D03*
X124600000Y-134275000D03*
%TD*%
D35*
%TO.C,C17*%
X117240000Y-124950000D03*
X118200000Y-124950000D03*
%TD*%
M02*
