%TF.GenerationSoftware,KiCad,Pcbnew,10.0.4*%
%TF.CreationDate,2026-09-13T12:06:13+02:00*%
%TF.ProjectId,UHBadge,55484261-6467-4652-9e6b-696361645f70,1.0.0*%
%TF.SameCoordinates,Original*%
%TF.FileFunction,Soldermask,Bot*%
%TF.FilePolarity,Negative*%
%FSLAX46Y46*%
G04 Gerber Fmt 4.6, Leading zero omitted, Abs format (unit mm)*
G04 Created by KiCad (PCBNEW 10.0.4) date 2026-09-13 12:06:13*
%MOMM*%
%LPD*%
G01*
G04 APERTURE LIST*
G04 Aperture macros list*
%AMRoundRect*
0 Rectangle with rounded corners*
0 $1 Rounding radius*
0 $2 $3 $4 $5 $6 $7 $8 $9 X,Y pos of 4 corners*
0 Add a 4 corners polygon primitive as box body*
4,1,4,$2,$3,$4,$5,$6,$7,$8,$9,$2,$3,0*
0 Add four circle primitives for the rounded corners*
1,1,$1+$1,$2,$3*
1,1,$1+$1,$4,$5*
1,1,$1+$1,$6,$7*
1,1,$1+$1,$8,$9*
0 Add four rect primitives between the rounded corners*
20,1,$1+$1,$2,$3,$4,$5,0*
20,1,$1+$1,$4,$5,$6,$7,0*
20,1,$1+$1,$6,$7,$8,$9,0*
20,1,$1+$1,$8,$9,$2,$3,0*%
%AMRotRect*
0 Rectangle, with rotation*
0 The origin of the aperture is its center*
0 $1 length*
0 $2 width*
0 $3 Rotation angle, in degrees counterclockwise*
0 Add horizontal line*
21,1,$1,$2,0,0,$3*%
%AMFreePoly0*
4,1,343,34.783411,0.117694,34.826668,0.099776,34.859776,0.066668,34.877694,0.023411,34.880000,0.000000,34.880000,-15.760000,34.877694,-15.783411,34.859776,-15.826668,34.826668,-15.859776,34.783411,-15.877694,34.760000,-15.880000,0.000000,-15.880000,-0.023411,-15.877694,-0.066668,-15.859776,-0.099776,-15.826668,-0.117694,-15.783411,-0.120000,-15.760000,-0.120000,0.000000,-0.117694,0.023411,-0.099776,0.066668,
-0.066668,0.099776,-0.023411,0.117694,0.023411,0.117694,0.066668,0.099776,0.099776,0.066668,0.117694,0.023411,0.120000,0.000000,0.120000,-15.640000,34.640000,-15.640000,34.640000,-0.120000,0.560000,-0.120000,0.560000,-15.200000,34.200000,-15.200000,34.200000,-0.560000,1.000000,-0.560000,1.000000,-14.760000,33.760000,-14.760000,33.760000,-1.000000,1.440000,-1.000000,1.440000,-14.320000,
33.320000,-14.320000,33.320000,-1.440000,1.880000,-1.440000,1.880000,-13.880000,32.880000,-13.880000,32.880000,-1.880000,2.320000,-1.880000,2.320000,-13.440000,32.440000,-13.440000,32.440000,-2.320000,2.760000,-2.320000,2.760000,-13.000000,32.000000,-13.000000,32.000000,-2.760000,3.200000,-2.760000,3.200000,-12.560000,31.560000,-12.560000,31.560000,-3.200000,3.640000,-3.200000,3.640000,-12.120000,
31.120000,-12.120000,31.120000,-3.640000,4.080000,-3.640000,4.080000,-11.680000,30.680000,-11.680000,30.680000,-4.080000,4.520000,-4.080000,4.520000,-11.240000,30.240000,-11.240000,30.240000,-4.520000,4.960000,-4.520000,4.960000,-10.800000,29.800000,-10.800000,29.800000,-4.840000,29.802306,-4.816589,29.820224,-4.773332,29.853332,-4.740224,29.896589,-4.722306,29.943411,-4.722306,29.986668,-4.740224,
30.019776,-4.773332,30.037694,-4.816589,30.040000,-4.840000,30.040000,-10.920000,30.037694,-10.943411,30.019776,-10.986668,29.986668,-11.019776,29.943411,-11.037694,29.920000,-11.040000,4.840000,-11.040000,4.816589,-11.037694,4.773332,-11.019776,4.740224,-10.986668,4.722306,-10.943411,4.720000,-10.920000,4.720000,-4.400000,4.722306,-4.376589,4.740224,-4.333332,4.773332,-4.300224,4.816589,-4.282306,
4.840000,-4.280000,30.360000,-4.280000,30.383411,-4.282306,30.426668,-4.300224,30.459776,-4.333332,30.477694,-4.376589,30.480000,-4.400000,30.480000,-11.360000,30.477694,-11.383411,30.459776,-11.426668,30.426668,-11.459776,30.383411,-11.477694,30.360000,-11.480000,4.400000,-11.480000,4.376589,-11.477694,4.333332,-11.459776,4.300224,-11.426668,4.282306,-11.383411,4.280000,-11.360000,4.280000,-3.960000,
4.282306,-3.936589,4.300224,-3.893332,4.333332,-3.860224,4.376589,-3.842306,4.400000,-3.840000,30.800000,-3.840000,30.823411,-3.842306,30.866668,-3.860224,30.899776,-3.893332,30.917694,-3.936589,30.920000,-3.960000,30.920000,-11.800000,30.917694,-11.823411,30.899776,-11.866668,30.866668,-11.899776,30.823411,-11.917694,30.800000,-11.920000,3.960000,-11.920000,3.936589,-11.917694,3.893332,-11.899776,
3.860224,-11.866668,3.842306,-11.823411,3.840000,-11.800000,3.840000,-3.520000,3.842306,-3.496589,3.860224,-3.453332,3.893332,-3.420224,3.936589,-3.402306,3.960000,-3.400000,31.240000,-3.400000,31.263411,-3.402306,31.306668,-3.420224,31.339776,-3.453332,31.357694,-3.496589,31.360000,-3.520000,31.360000,-12.240000,31.357694,-12.263411,31.339776,-12.306668,31.306668,-12.339776,31.263411,-12.357694,
31.240000,-12.360000,3.520000,-12.360000,3.496589,-12.357694,3.453332,-12.339776,3.420224,-12.306668,3.402306,-12.263411,3.400000,-12.240000,3.400000,-3.080000,3.402306,-3.056589,3.420224,-3.013332,3.453332,-2.980224,3.496589,-2.962306,3.520000,-2.960000,31.680000,-2.960000,31.703411,-2.962306,31.746668,-2.980224,31.779776,-3.013332,31.797694,-3.056589,31.800000,-3.080000,31.800000,-12.680000,
31.797694,-12.703411,31.779776,-12.746668,31.746668,-12.779776,31.703411,-12.797694,31.680000,-12.800000,3.080000,-12.800000,3.056589,-12.797694,3.013332,-12.779776,2.980224,-12.746668,2.962306,-12.703411,2.960000,-12.680000,2.960000,-2.640000,2.962306,-2.616589,2.980224,-2.573332,3.013332,-2.540224,3.056589,-2.522306,3.080000,-2.520000,32.120000,-2.520000,32.143411,-2.522306,32.186668,-2.540224,
32.219776,-2.573332,32.237694,-2.616589,32.240000,-2.640000,32.240000,-13.120000,32.237694,-13.143411,32.219776,-13.186668,32.186668,-13.219776,32.143411,-13.237694,32.120000,-13.240000,2.640000,-13.240000,2.616589,-13.237694,2.573332,-13.219776,2.540224,-13.186668,2.522306,-13.143411,2.520000,-13.120000,2.520000,-2.200000,2.522306,-2.176589,2.540224,-2.133332,2.573332,-2.100224,2.616589,-2.082306,
2.640000,-2.080000,32.560000,-2.080000,32.583411,-2.082306,32.626668,-2.100224,32.659776,-2.133332,32.677694,-2.176589,32.680000,-2.200000,32.680000,-13.560000,32.677694,-13.583411,32.659776,-13.626668,32.626668,-13.659776,32.583411,-13.677694,32.560000,-13.680000,2.200000,-13.680000,2.176589,-13.677694,2.133332,-13.659776,2.100224,-13.626668,2.082306,-13.583411,2.080000,-13.560000,2.080000,-1.760000,
2.082306,-1.736589,2.100224,-1.693332,2.133332,-1.660224,2.176589,-1.642306,2.200000,-1.640000,33.000000,-1.640000,33.023411,-1.642306,33.066668,-1.660224,33.099776,-1.693332,33.117694,-1.736589,33.120000,-1.760000,33.120000,-14.000000,33.117694,-14.023411,33.099776,-14.066668,33.066668,-14.099776,33.023411,-14.117694,33.000000,-14.120000,1.760000,-14.120000,1.736589,-14.117694,1.693332,-14.099776,
1.660224,-14.066668,1.642306,-14.023411,1.640000,-14.000000,1.640000,-1.320000,1.642306,-1.296589,1.660224,-1.253332,1.693332,-1.220224,1.736589,-1.202306,1.760000,-1.200000,33.440000,-1.200000,33.463411,-1.202306,33.506668,-1.220224,33.539776,-1.253332,33.557694,-1.296589,33.560000,-1.320000,33.560000,-14.440000,33.557694,-14.463411,33.539776,-14.506668,33.506668,-14.539776,33.463411,-14.557694,
33.440000,-14.560000,1.320000,-14.560000,1.296589,-14.557694,1.253332,-14.539776,1.220224,-14.506668,1.202306,-14.463411,1.200000,-14.440000,1.200000,-0.880000,1.202306,-0.856589,1.220224,-0.813332,1.253332,-0.780224,1.296589,-0.762306,1.320000,-0.760000,33.880000,-0.760000,33.903411,-0.762306,33.946668,-0.780224,33.979776,-0.813332,33.997694,-0.856589,34.000000,-0.880000,34.000000,-14.880000,
33.997694,-14.903411,33.979776,-14.946668,33.946668,-14.979776,33.903411,-14.997694,33.880000,-15.000000,0.880000,-15.000000,0.856589,-14.997694,0.813332,-14.979776,0.780224,-14.946668,0.762306,-14.903411,0.760000,-14.880000,0.760000,-0.440000,0.762306,-0.416589,0.780224,-0.373332,0.813332,-0.340224,0.856589,-0.322306,0.880000,-0.320000,34.320000,-0.320000,34.343411,-0.322306,34.386668,-0.340224,
34.419776,-0.373332,34.437694,-0.416589,34.440000,-0.440000,34.440000,-15.320000,34.437694,-15.343411,34.419776,-15.386668,34.386668,-15.419776,34.343411,-15.437694,34.320000,-15.440000,0.440000,-15.440000,0.416589,-15.437694,0.373332,-15.419776,0.340224,-15.386668,0.322306,-15.343411,0.320000,-15.320000,0.320000,0.000000,0.322306,0.023411,0.340224,0.066668,0.373332,0.099776,0.416589,0.117694,
0.440000,0.120000,34.760000,0.120000,34.783411,0.117694,34.783411,0.117694,$1*%
%AMFreePoly1*
4,1,21,24.663411,0.117694,24.706668,0.099776,24.739776,0.066668,24.757694,0.023411,24.757694,-0.023411,24.739776,-0.066668,24.706668,-0.099776,24.663411,-0.117694,24.640000,-0.120000,0.000000,-0.120000,-0.023411,-0.117694,-0.066668,-0.099776,-0.099776,-0.066668,-0.117694,-0.023411,-0.117694,0.023411,-0.099776,0.066668,-0.066668,0.099776,-0.023411,0.117694,0.000000,0.120000,24.640000,0.120000,
24.663411,0.117694,24.663411,0.117694,$1*%
G04 Aperture macros list end*
%ADD10R,1.700000X1.700000*%
%ADD11C,1.700000*%
%ADD12C,0.700000*%
%ADD13C,4.400000*%
%ADD14RoundRect,0.135000X-0.226274X-0.035355X-0.035355X-0.226274X0.226274X0.035355X0.035355X0.226274X0*%
%ADD15RoundRect,0.135000X-0.185000X0.135000X-0.185000X-0.135000X0.185000X-0.135000X0.185000X0.135000X0*%
%ADD16RoundRect,0.135000X0.135000X0.185000X-0.135000X0.185000X-0.135000X-0.185000X0.135000X-0.185000X0*%
%ADD17RoundRect,0.135000X0.185000X-0.135000X0.185000X0.135000X-0.185000X0.135000X-0.185000X-0.135000X0*%
%ADD18R,1.000000X2.000000*%
%ADD19R,2.000000X1.000000*%
%ADD20RoundRect,0.140000X-0.219203X-0.021213X-0.021213X-0.219203X0.219203X0.021213X0.021213X0.219203X0*%
%ADD21RotRect,1.000000X1.600000X135.000000*%
%ADD22RoundRect,0.140000X-0.021213X0.219203X-0.219203X0.021213X0.021213X-0.219203X0.219203X-0.021213X0*%
%ADD23RoundRect,0.135000X-0.035355X0.226274X-0.226274X0.035355X0.035355X-0.226274X0.226274X-0.035355X0*%
%ADD24RoundRect,0.140000X0.170000X-0.140000X0.170000X0.140000X-0.170000X0.140000X-0.170000X-0.140000X0*%
%ADD25C,0.650000*%
%ADD26RoundRect,0.150000X-0.425000X0.150000X-0.425000X-0.150000X0.425000X-0.150000X0.425000X0.150000X0*%
%ADD27RoundRect,0.075000X-0.500000X0.075000X-0.500000X-0.075000X0.500000X-0.075000X0.500000X0.075000X0*%
%ADD28O,1.800000X1.000000*%
%ADD29O,2.100000X1.000000*%
%ADD30RoundRect,0.140000X0.021213X-0.219203X0.219203X-0.021213X-0.021213X0.219203X-0.219203X0.021213X0*%
%ADD31R,1.200000X0.700000*%
%ADD32R,0.800000X1.000000*%
%ADD33R,2.800000X1.000000*%
%ADD34R,1.200000X1.000000*%
%ADD35R,1.900000X1.300000*%
%ADD36RoundRect,0.140000X0.140000X0.170000X-0.140000X0.170000X-0.140000X-0.170000X0.140000X-0.170000X0*%
%ADD37RoundRect,0.250000X0.475000X0.250000X-0.475000X0.250000X-0.475000X-0.250000X0.475000X-0.250000X0*%
%ADD38FreePoly0,270.000000*%
%ADD39C,0.450000*%
%ADD40FreePoly1,270.000000*%
%ADD41RoundRect,0.243750X-0.456250X0.243750X-0.456250X-0.243750X0.456250X-0.243750X0.456250X0.243750X0*%
%ADD42RoundRect,0.140000X-0.170000X0.140000X-0.170000X-0.140000X0.170000X-0.140000X0.170000X0.140000X0*%
%ADD43RoundRect,0.140000X-0.140000X-0.170000X0.140000X-0.170000X0.140000X0.170000X-0.140000X0.170000X0*%
%ADD44RoundRect,0.250000X-0.250000X-1.100000X0.250000X-1.100000X0.250000X1.100000X-0.250000X1.100000X0*%
%ADD45RoundRect,0.250000X-0.650000X-1.650000X0.650000X-1.650000X0.650000X1.650000X-0.650000X1.650000X0*%
%ADD46RoundRect,0.062500X0.300000X0.062500X-0.300000X0.062500X-0.300000X-0.062500X0.300000X-0.062500X0*%
%ADD47R,1.400000X2.550000*%
%ADD48RoundRect,0.225000X0.225000X0.375000X-0.225000X0.375000X-0.225000X-0.375000X0.225000X-0.375000X0*%
%ADD49RoundRect,0.225000X-0.225000X-0.375000X0.225000X-0.375000X0.225000X0.375000X-0.225000X0.375000X0*%
%ADD50RoundRect,0.140000X0.219203X0.021213X0.021213X0.219203X-0.219203X-0.021213X-0.021213X-0.219203X0*%
%ADD51RoundRect,0.135000X-0.135000X-0.185000X0.135000X-0.185000X0.135000X0.185000X-0.135000X0.185000X0*%
%ADD52R,0.300000X1.300000*%
%ADD53R,2.000000X3.000000*%
%ADD54RoundRect,0.062500X0.350000X0.062500X-0.350000X0.062500X-0.350000X-0.062500X0.350000X-0.062500X0*%
%ADD55RoundRect,0.062500X0.062500X0.350000X-0.062500X0.350000X-0.062500X-0.350000X0.062500X-0.350000X0*%
%ADD56R,2.500000X2.500000*%
%ADD57RoundRect,0.150000X0.512500X0.150000X-0.512500X0.150000X-0.512500X-0.150000X0.512500X-0.150000X0*%
%ADD58RoundRect,0.112500X0.112500X-0.350000X0.112500X0.350000X-0.112500X0.350000X-0.112500X-0.350000X0*%
%ADD59RoundRect,0.250000X0.565685X-0.070711X-0.070711X0.565685X-0.565685X0.070711X0.070711X-0.565685X0*%
%ADD60RoundRect,0.050000X0.282843X-0.212132X-0.212132X0.282843X-0.282843X0.212132X0.212132X-0.282843X0*%
%ADD61RoundRect,0.050000X0.282843X0.212132X0.212132X0.282843X-0.282843X-0.212132X-0.212132X-0.282843X0*%
%ADD62RotRect,3.400000X3.400000X135.000000*%
%ADD63RoundRect,0.162500X0.650000X0.162500X-0.650000X0.162500X-0.650000X-0.162500X0.650000X-0.162500X0*%
%ADD64RoundRect,0.250000X0.300000X1.600000X-0.300000X1.600000X-0.300000X-1.600000X0.300000X-1.600000X0*%
G04 APERTURE END LIST*
D10*
%TO.C,J5*%
X165400000Y-121910000D03*
D11*
X165400000Y-124450000D03*
X165400000Y-126990000D03*
X165400000Y-129530000D03*
X165400000Y-132070000D03*
X165400000Y-134610000D03*
X165400000Y-137150000D03*
X165400000Y-139690000D03*
%TD*%
D12*
%TO.C,H3*%
X160950000Y-152600000D03*
X161433274Y-151433274D03*
X161433274Y-153766726D03*
X162600000Y-150950000D03*
D13*
X162600000Y-152600000D03*
D12*
X162600000Y-154250000D03*
X163766726Y-151433274D03*
X163766726Y-153766726D03*
X164250000Y-152600000D03*
%TD*%
%TO.C,H2*%
X105750000Y-57400000D03*
X106233274Y-56233274D03*
X106233274Y-58566726D03*
X107400000Y-55750000D03*
D13*
X107400000Y-57400000D03*
D12*
X107400000Y-59050000D03*
X108566726Y-56233274D03*
X108566726Y-58566726D03*
X109050000Y-57400000D03*
%TD*%
%TO.C,H1*%
X160950000Y-57400000D03*
X161433274Y-56233274D03*
X161433274Y-58566726D03*
X162600000Y-55750000D03*
D13*
X162600000Y-57400000D03*
D12*
X162600000Y-59050000D03*
X163766726Y-56233274D03*
X163766726Y-58566726D03*
X164250000Y-57400000D03*
%TD*%
%TO.C,H4*%
X105750000Y-152600000D03*
X106233274Y-151433274D03*
X106233274Y-153766726D03*
X107400000Y-150950000D03*
D13*
X107400000Y-152600000D03*
D12*
X107400000Y-154250000D03*
X108566726Y-151433274D03*
X108566726Y-153766726D03*
X109050000Y-152600000D03*
%TD*%
D10*
%TO.C,J1*%
X165400000Y-112920000D03*
D11*
X165400000Y-115460000D03*
X165400000Y-118000000D03*
%TD*%
D14*
%TO.C,R10*%
X129039376Y-106239376D03*
X129760624Y-106960624D03*
%TD*%
D15*
%TO.C,R6*%
X121000000Y-129200000D03*
X121000000Y-130220000D03*
%TD*%
D16*
%TO.C,R15*%
X157910000Y-116400000D03*
X156890000Y-116400000D03*
%TD*%
D17*
%TO.C,R17*%
X129950000Y-85020000D03*
X129950000Y-84000000D03*
%TD*%
D18*
%TO.C,U7*%
X107650000Y-94950000D03*
X109150000Y-94950000D03*
X110650000Y-94950000D03*
X112150000Y-94950000D03*
X113650000Y-94950000D03*
X115150000Y-94950000D03*
X116650000Y-94950000D03*
D19*
X117950000Y-97200000D03*
X117950000Y-98700000D03*
X117950000Y-100200000D03*
X117950000Y-101700000D03*
X117950000Y-103200000D03*
X117950000Y-104700000D03*
X117950000Y-106200000D03*
D18*
X116650000Y-108450000D03*
X115150000Y-108450000D03*
X113650000Y-108450000D03*
X112150000Y-108450000D03*
X110650000Y-108450000D03*
X109150000Y-108450000D03*
X107650000Y-108450000D03*
%TD*%
D15*
%TO.C,R7*%
X122200000Y-129200000D03*
X122200000Y-130220000D03*
%TD*%
D20*
%TO.C,C13*%
X138400000Y-106200000D03*
X139078822Y-106878822D03*
%TD*%
D17*
%TO.C,R18*%
X115150000Y-93000000D03*
X115150000Y-91980000D03*
%TD*%
D21*
%TO.C,L1*%
X140400000Y-95000000D03*
X138985786Y-93585786D03*
%TD*%
D22*
%TO.C,C2*%
X136339411Y-94260589D03*
X135660589Y-94939411D03*
%TD*%
D17*
%TO.C,R12*%
X144000000Y-119800000D03*
X144000000Y-118780000D03*
%TD*%
D23*
%TO.C,R2*%
X139360624Y-96239376D03*
X138639376Y-96960624D03*
%TD*%
D24*
%TO.C,C24*%
X127250000Y-73460000D03*
X127250000Y-72500000D03*
%TD*%
D16*
%TO.C,R4*%
X160310000Y-101200000D03*
X159290000Y-101200000D03*
%TD*%
D25*
%TO.C,P1*%
X163720000Y-102110000D03*
X163720000Y-107890000D03*
D26*
X162645000Y-101800000D03*
X162645000Y-102600000D03*
D27*
X162645000Y-103750000D03*
X162645000Y-104750000D03*
X162645000Y-105250000D03*
X162645000Y-106250000D03*
D26*
X162645000Y-107400000D03*
X162645000Y-108200000D03*
X162645000Y-108200000D03*
X162645000Y-107400000D03*
D27*
X162645000Y-106750000D03*
X162645000Y-105750000D03*
X162645000Y-104250000D03*
X162645000Y-103250000D03*
D26*
X162645000Y-102600000D03*
X162645000Y-101800000D03*
D28*
X167400000Y-100680000D03*
D29*
X163220000Y-100680000D03*
D28*
X167400000Y-109320000D03*
D29*
X163220000Y-109320000D03*
%TD*%
D16*
%TO.C,R11*%
X157050000Y-89850000D03*
X156030000Y-89850000D03*
%TD*%
D24*
%TO.C,C32*%
X139750000Y-73460000D03*
X139750000Y-72500000D03*
%TD*%
D30*
%TO.C,C8*%
X137200000Y-95478822D03*
X137878822Y-94800000D03*
%TD*%
%TO.C,C3*%
X137921178Y-96200000D03*
X138600000Y-95521178D03*
%TD*%
D31*
%TO.C,J4*%
X152610000Y-75745000D03*
X152610000Y-74645000D03*
X152610000Y-73545000D03*
X152610000Y-72445000D03*
X152610000Y-71345000D03*
X152610000Y-70245000D03*
X152610000Y-69145000D03*
X152610000Y-68045000D03*
X152610000Y-67095000D03*
D32*
X163110000Y-66145000D03*
D33*
X167260000Y-66145000D03*
D34*
X156910000Y-66145000D03*
X152610000Y-77295000D03*
D35*
X167710000Y-79645000D03*
%TD*%
D36*
%TO.C,C19*%
X139200000Y-85800000D03*
X138240000Y-85800000D03*
%TD*%
D15*
%TO.C,R14*%
X144800000Y-113890000D03*
X144800000Y-114910000D03*
%TD*%
D24*
%TO.C,C30*%
X131250000Y-73460000D03*
X131250000Y-72500000D03*
%TD*%
%TO.C,C33*%
X138750000Y-73460000D03*
X138750000Y-72500000D03*
%TD*%
%TO.C,C18*%
X123200000Y-121080000D03*
X123200000Y-120120000D03*
%TD*%
%TO.C,C26*%
X128250000Y-73460000D03*
X128250000Y-72500000D03*
%TD*%
D37*
%TO.C,SW1*%
X164600000Y-93200000D03*
X159450000Y-93200000D03*
X164600000Y-94900000D03*
X159450000Y-94900000D03*
%TD*%
%TO.C,SW2*%
X164575000Y-88150000D03*
X159425000Y-88150000D03*
X164575000Y-89850000D03*
X159425000Y-89850000D03*
%TD*%
D23*
%TO.C,R1*%
X134721248Y-92678752D03*
X134000000Y-93400000D03*
%TD*%
D17*
%TO.C,R16*%
X131250000Y-85020000D03*
X131250000Y-84000000D03*
%TD*%
D38*
%TO.C,L2*%
X159700000Y-120908000D03*
D39*
X159700000Y-120908000D03*
D40*
X154860000Y-126188000D03*
D39*
X154860000Y-126188000D03*
%TD*%
D41*
%TO.C,D2*%
X119800000Y-132400000D03*
X119800000Y-134275000D03*
%TD*%
D42*
%TO.C,C16*%
X124400000Y-120120000D03*
X124400000Y-121080000D03*
%TD*%
D41*
%TO.C,D3*%
X122200000Y-132400000D03*
X122200000Y-134275000D03*
%TD*%
D24*
%TO.C,C27*%
X130250000Y-73460000D03*
X130250000Y-72500000D03*
%TD*%
D42*
%TO.C,C23*%
X146000000Y-113920000D03*
X146000000Y-114880000D03*
%TD*%
D43*
%TO.C,C35*%
X130250000Y-76500000D03*
X131210000Y-76500000D03*
%TD*%
D24*
%TO.C,C28*%
X129250000Y-73460000D03*
X129250000Y-72500000D03*
%TD*%
D44*
%TO.C,J3*%
X133900000Y-147150000D03*
X135900000Y-147150000D03*
D45*
X131550000Y-142700000D03*
X138250000Y-142700000D03*
%TD*%
D22*
%TO.C,C5*%
X130739411Y-105060589D03*
X130060589Y-105739411D03*
%TD*%
D46*
%TO.C,U6*%
X149712500Y-116150000D03*
X149712500Y-116650000D03*
X149712500Y-117150000D03*
X149712500Y-117650000D03*
X149712500Y-118150000D03*
X149712500Y-118650000D03*
X146687500Y-118650000D03*
X146687500Y-118150000D03*
X146687500Y-117650000D03*
X146687500Y-117150000D03*
X146687500Y-116650000D03*
X146687500Y-116150000D03*
D47*
X148200000Y-117400000D03*
%TD*%
D30*
%TO.C,C1*%
X134800000Y-94200000D03*
X135478822Y-93521178D03*
%TD*%
D48*
%TO.C,D6*%
X128750000Y-76500000D03*
X125450000Y-76500000D03*
%TD*%
D49*
%TO.C,D5*%
X125450000Y-79000000D03*
X128750000Y-79000000D03*
%TD*%
D50*
%TO.C,C9*%
X132800000Y-94800000D03*
X132121178Y-94121178D03*
%TD*%
D24*
%TO.C,C29*%
X132250000Y-73460000D03*
X132250000Y-72500000D03*
%TD*%
D51*
%TO.C,R8*%
X150800000Y-85800000D03*
X151820000Y-85800000D03*
%TD*%
D50*
%TO.C,C11*%
X128739411Y-98139411D03*
X128060589Y-97460589D03*
%TD*%
D52*
%TO.C,U5*%
X129250000Y-69600000D03*
X129750000Y-69600000D03*
X130250000Y-69600000D03*
X130750000Y-69600000D03*
X131250000Y-69600000D03*
X131750000Y-69600000D03*
X132250000Y-69600000D03*
X132750000Y-69600000D03*
X133250000Y-69600000D03*
X133750000Y-69600000D03*
X134250000Y-69600000D03*
X134750000Y-69600000D03*
X135250000Y-69600000D03*
X135750000Y-69600000D03*
X136250000Y-69600000D03*
X136750000Y-69600000D03*
X137250000Y-69600000D03*
X137750000Y-69600000D03*
X138250000Y-69600000D03*
X138750000Y-69600000D03*
X139250000Y-69600000D03*
X139750000Y-69600000D03*
X140250000Y-69600000D03*
X140750000Y-69600000D03*
D53*
X127600000Y-67250000D03*
X142400000Y-67250000D03*
%TD*%
D22*
%TO.C,C12*%
X132339411Y-106260589D03*
X131660589Y-106939411D03*
%TD*%
D50*
%TO.C,C20*%
X126000000Y-105200000D03*
X125321178Y-104521178D03*
%TD*%
D23*
%TO.C,R3*%
X140160624Y-97039376D03*
X139439376Y-97760624D03*
%TD*%
D54*
%TO.C,U2*%
X123637500Y-124462500D03*
X123637500Y-124962500D03*
X123637500Y-125462500D03*
X123637500Y-125962500D03*
X123637500Y-126462500D03*
D55*
X122700000Y-127400000D03*
X122200000Y-127400000D03*
X121700000Y-127400000D03*
X121200000Y-127400000D03*
X120700000Y-127400000D03*
D54*
X119762500Y-126462500D03*
X119762500Y-125962500D03*
X119762500Y-125462500D03*
X119762500Y-124962500D03*
X119762500Y-124462500D03*
D55*
X120700000Y-123525000D03*
X121200000Y-123525000D03*
X121700000Y-123525000D03*
X122200000Y-123525000D03*
X122700000Y-123525000D03*
D56*
X121700000Y-125462500D03*
%TD*%
D20*
%TO.C,C21*%
X125721178Y-109721178D03*
X126400000Y-110400000D03*
%TD*%
D50*
%TO.C,C10*%
X129800000Y-97000000D03*
X129121178Y-96321178D03*
%TD*%
D24*
%TO.C,C25*%
X126250000Y-73460000D03*
X126250000Y-72500000D03*
%TD*%
D15*
%TO.C,R19*%
X120000000Y-100200000D03*
X120000000Y-101220000D03*
%TD*%
D36*
%TO.C,C36*%
X149130000Y-72450000D03*
X148170000Y-72450000D03*
%TD*%
D24*
%TO.C,C34*%
X137800000Y-80250000D03*
X137800000Y-79290000D03*
%TD*%
D57*
%TO.C,U4*%
X157137500Y-104050000D03*
X157137500Y-105000000D03*
X157137500Y-105950000D03*
X154862500Y-105950000D03*
X154862500Y-105000000D03*
X154862500Y-104050000D03*
%TD*%
D15*
%TO.C,R5*%
X123400000Y-129200000D03*
X123400000Y-130220000D03*
%TD*%
D20*
%TO.C,C6*%
X139860589Y-104060589D03*
X140539411Y-104739411D03*
%TD*%
D16*
%TO.C,R9*%
X157050000Y-94900000D03*
X156030000Y-94900000D03*
%TD*%
D50*
%TO.C,C4*%
X131539411Y-96739411D03*
X130860589Y-96060589D03*
%TD*%
D58*
%TO.C,Q1*%
X131250000Y-82250000D03*
X129950000Y-82250000D03*
X130600000Y-80475000D03*
%TD*%
D24*
%TO.C,C31*%
X133750000Y-73460000D03*
X133750000Y-72500000D03*
%TD*%
D59*
%TO.C,Y1*%
X127597919Y-109202081D03*
X126042284Y-107646446D03*
X127244365Y-106444365D03*
X128800000Y-108000000D03*
%TD*%
D17*
%TO.C,R13*%
X145200000Y-119800000D03*
X145200000Y-118780000D03*
%TD*%
D60*
%TO.C,U1*%
X139419417Y-101459619D03*
X139136575Y-101742462D03*
X138853732Y-102025305D03*
X138570889Y-102308148D03*
X138288047Y-102590990D03*
X138005204Y-102873833D03*
X137722361Y-103156676D03*
X137439518Y-103439518D03*
X137156676Y-103722361D03*
X136873833Y-104005204D03*
X136590990Y-104288047D03*
X136308148Y-104570889D03*
X136025305Y-104853732D03*
X135742462Y-105136575D03*
X135459619Y-105419417D03*
D61*
X134540381Y-105419417D03*
X134257538Y-105136575D03*
X133974695Y-104853732D03*
X133691852Y-104570889D03*
X133409010Y-104288047D03*
X133126167Y-104005204D03*
X132843324Y-103722361D03*
X132560482Y-103439518D03*
X132277639Y-103156676D03*
X131994796Y-102873833D03*
X131711953Y-102590990D03*
X131429111Y-102308148D03*
X131146268Y-102025305D03*
X130863425Y-101742462D03*
X130580583Y-101459619D03*
D60*
X130580583Y-100540381D03*
X130863425Y-100257538D03*
X131146268Y-99974695D03*
X131429111Y-99691852D03*
X131711953Y-99409010D03*
X131994796Y-99126167D03*
X132277639Y-98843324D03*
X132560482Y-98560482D03*
X132843324Y-98277639D03*
X133126167Y-97994796D03*
X133409010Y-97711953D03*
X133691852Y-97429111D03*
X133974695Y-97146268D03*
X134257538Y-96863425D03*
X134540381Y-96580583D03*
D61*
X135459619Y-96580583D03*
X135742462Y-96863425D03*
X136025305Y-97146268D03*
X136308148Y-97429111D03*
X136590990Y-97711953D03*
X136873833Y-97994796D03*
X137156676Y-98277639D03*
X137439518Y-98560482D03*
X137722361Y-98843324D03*
X138005204Y-99126167D03*
X138288047Y-99409010D03*
X138570889Y-99691852D03*
X138853732Y-99974695D03*
X139136575Y-100257538D03*
X139419417Y-100540381D03*
D62*
X135000000Y-101000000D03*
%TD*%
D42*
%TO.C,C22*%
X151200000Y-117400000D03*
X151200000Y-118360000D03*
%TD*%
D63*
%TO.C,U3*%
X148575000Y-85790000D03*
X148575000Y-87060000D03*
X148575000Y-88330000D03*
X148575000Y-89600000D03*
X141400000Y-89600000D03*
X141400000Y-88330000D03*
X141400000Y-87060000D03*
X141400000Y-85790000D03*
%TD*%
D48*
%TO.C,D7*%
X136050000Y-76500000D03*
X132750000Y-76500000D03*
%TD*%
D64*
%TO.C,L3*%
X135900000Y-80250000D03*
X132900000Y-80250000D03*
%TD*%
D20*
%TO.C,C7*%
X142060589Y-102060589D03*
X142739411Y-102739411D03*
%TD*%
D41*
%TO.C,D1*%
X124600000Y-132400000D03*
X124600000Y-134275000D03*
%TD*%
D43*
%TO.C,C17*%
X117240000Y-124950000D03*
X118200000Y-124950000D03*
%TD*%
M02*
