%TF.GenerationSoftware,KiCad,Pcbnew,10.0.4*%
%TF.CreationDate,2026-09-13T11:47:39+02:00*%
%TF.ProjectId,UHBadge,55484261-6467-4652-9e6b-696361645f70,1.0.0*%
%TF.SameCoordinates,Original*%
%TF.FileFunction,Copper,L1,Top*%
%TF.FilePolarity,Positive*%
%FSLAX46Y46*%
G04 Gerber Fmt 4.6, Leading zero omitted, Abs format (unit mm)*
G04 Created by KiCad (PCBNEW 10.0.4) date 2026-09-13 11:47:39*
%MOMM*%
%LPD*%
G01*
G04 APERTURE LIST*
G04 Aperture macros list*
%AMRoundRect*
0 Rectangle with rounded corners*
0 $1 Rounding radius*
0 $2 $3 $4 $5 $6 $7 $8 $9 X,Y pos of 4 corners*
0 Add a 4 corners polygon primitive as box body*
4,1,4,$2,$3,$4,$5,$6,$7,$8,$9,$2,$3,0*
0 Add four circle primitives for the rounded corners*
1,1,$1+$1,$2,$3*
1,1,$1+$1,$4,$5*
1,1,$1+$1,$6,$7*
1,1,$1+$1,$8,$9*
0 Add four rect primitives between the rounded corners*
20,1,$1+$1,$2,$3,$4,$5,0*
20,1,$1+$1,$4,$5,$6,$7,0*
20,1,$1+$1,$6,$7,$8,$9,0*
20,1,$1+$1,$8,$9,$2,$3,0*%
G04 Aperture macros list end*
%TA.AperFunction,SMDPad,CuDef*%
%ADD10RoundRect,0.250000X-0.475000X-0.250000X0.475000X-0.250000X0.475000X0.250000X-0.475000X0.250000X0*%
%TD*%
%TA.AperFunction,SMDPad,CuDef*%
%ADD11RoundRect,0.250000X0.250000X-0.475000X0.250000X0.475000X-0.250000X0.475000X-0.250000X-0.475000X0*%
%TD*%
%TA.AperFunction,ComponentPad*%
%ADD12R,1.700000X1.700000*%
%TD*%
%TA.AperFunction,ComponentPad*%
%ADD13C,1.700000*%
%TD*%
%TA.AperFunction,ComponentPad*%
%ADD14C,0.700000*%
%TD*%
%TA.AperFunction,ComponentPad*%
%ADD15C,4.400000*%
%TD*%
%TA.AperFunction,SMDPad,CuDef*%
%ADD16RoundRect,0.243750X0.243750X0.456250X-0.243750X0.456250X-0.243750X-0.456250X0.243750X-0.456250X0*%
%TD*%
%TA.AperFunction,ComponentPad*%
%ADD17O,1.800000X1.000000*%
%TD*%
%TA.AperFunction,ComponentPad*%
%ADD18O,2.100000X1.000000*%
%TD*%
%TA.AperFunction,ComponentPad*%
%ADD19C,0.450000*%
%TD*%
%TA.AperFunction,ViaPad*%
%ADD20C,0.600000*%
%TD*%
%TA.AperFunction,Conductor*%
%ADD21C,0.200000*%
%TD*%
G04 APERTURE END LIST*
D10*
%TO.P,SW6,1,1_1*%
%TO.N,RIGHT*%
X130000000Y-148300000D03*
X135150000Y-148300000D03*
%TO.P,SW6,2,2_2*%
%TO.N,-BATT*%
X130000000Y-150000000D03*
X135150000Y-150000000D03*
%TD*%
D11*
%TO.P,SW4,1,1_1*%
%TO.N,DOWN*%
X111650000Y-145000000D03*
X111650000Y-139850000D03*
%TO.P,SW4,2,2_2*%
%TO.N,-BATT*%
X113350000Y-145000000D03*
X113350000Y-139850000D03*
%TD*%
D12*
%TO.P,J5,1,Pin_1_1*%
%TO.N,+3V3*%
X165400000Y-121910000D03*
D13*
%TO.P,J5,2,Pin_2_2*%
%TO.N,GPIO0*%
X165400000Y-124450000D03*
%TO.P,J5,3,Pin_3_3*%
%TO.N,GPIO1*%
X165400000Y-126990000D03*
%TO.P,J5,4,Pin_4_4*%
%TO.N,GPIO2*%
X165400000Y-129530000D03*
%TO.P,J5,5,Pin_5_5*%
%TO.N,GPIO3*%
X165400000Y-132070000D03*
%TO.P,J5,6,Pin_6_6*%
%TO.N,ADC0*%
X165400000Y-134610000D03*
%TO.P,J5,7,Pin_7_7*%
%TO.N,ADC1*%
X165400000Y-137150000D03*
%TO.P,J5,8,Pin_8_8*%
%TO.N,-BATT*%
X165400000Y-139690000D03*
%TD*%
D11*
%TO.P,SW3,1,1_1*%
%TO.N,UP*%
X111650000Y-132575000D03*
X111650000Y-127425000D03*
%TO.P,SW3,2,2_2*%
%TO.N,-BATT*%
X113350000Y-132575000D03*
X113350000Y-127425000D03*
%TD*%
D14*
%TO.P,H3,1,1_1*%
%TO.N,-BATT*%
X160950000Y-152600000D03*
X161433274Y-151433274D03*
X161433274Y-153766726D03*
X162600000Y-150950000D03*
D15*
X162600000Y-152600000D03*
D14*
X162600000Y-154250000D03*
X163766726Y-151433274D03*
X163766726Y-153766726D03*
X164250000Y-152600000D03*
%TD*%
D16*
%TO.P,D4,1,K_1*%
%TO.N,Net-(D4-K)*%
X157937500Y-118400000D03*
%TO.P,D4,2,A_2*%
%TO.N,Net-(D4-A)*%
X156062500Y-118400000D03*
%TD*%
D14*
%TO.P,H2,1,1_1*%
%TO.N,-BATT*%
X105750000Y-57400000D03*
X106233274Y-56233274D03*
X106233274Y-58566726D03*
X107400000Y-55750000D03*
D15*
X107400000Y-57400000D03*
D14*
X107400000Y-59050000D03*
X108566726Y-56233274D03*
X108566726Y-58566726D03*
X109050000Y-57400000D03*
%TD*%
%TO.P,H1,1,1_1*%
%TO.N,-BATT*%
X160950000Y-57400000D03*
X161433274Y-56233274D03*
X161433274Y-58566726D03*
X162600000Y-55750000D03*
D15*
X162600000Y-57400000D03*
D14*
X162600000Y-59050000D03*
X163766726Y-56233274D03*
X163766726Y-58566726D03*
X164250000Y-57400000D03*
%TD*%
%TO.P,H4,1,1_1*%
%TO.N,-BATT*%
X105750000Y-152600000D03*
X106233274Y-151433274D03*
X106233274Y-153766726D03*
X107400000Y-150950000D03*
D15*
X107400000Y-152600000D03*
D14*
X107400000Y-154250000D03*
X108566726Y-151433274D03*
X108566726Y-153766726D03*
X109050000Y-152600000D03*
%TD*%
D10*
%TO.P,SW5,1,1_1*%
%TO.N,LEFT*%
X117500000Y-148300000D03*
X122650000Y-148300000D03*
%TO.P,SW5,2,2_2*%
%TO.N,-BATT*%
X117500000Y-150000000D03*
X122650000Y-150000000D03*
%TD*%
D12*
%TO.P,J1,1,Pin_1_1*%
%TO.N,SWCLK*%
X165400000Y-112920000D03*
D13*
%TO.P,J1,2,Pin_2_2*%
%TO.N,-BATT*%
X165400000Y-115460000D03*
%TO.P,J1,3,Pin_3_3*%
%TO.N,SWDIO*%
X165400000Y-118000000D03*
%TD*%
D17*
%TO.P,P1,SH,SHIELD_SH*%
%TO.N,-BATT*%
X167400000Y-100680000D03*
D18*
X163220000Y-100680000D03*
D17*
X167400000Y-109320000D03*
D18*
X163220000Y-109320000D03*
%TD*%
D19*
%TO.P,L2,1,1_1*%
%TO.N,Net-(U6-AC0)*%
X159700000Y-120908000D03*
%TO.P,L2,2,2_2*%
%TO.N,Net-(U6-AC1)*%
X154860000Y-126188000D03*
%TD*%
D20*
%TO.N,*%
X104800000Y-148000000D03*
X108000000Y-64000000D03*
X126000000Y-62400000D03*
X162000000Y-64000000D03*
X145400000Y-56000000D03*
X124400000Y-57000000D03*
X145600000Y-57000000D03*
X144000000Y-62400000D03*
X124600000Y-56000000D03*
X102400000Y-67800000D03*
X165200000Y-148000000D03*
%TO.N,RIGHT*%
X122200000Y-112999991D03*
X130000000Y-148300000D03*
X138979143Y-108213458D03*
%TO.N,-BATT*%
X130060589Y-105739411D03*
X129121178Y-96321178D03*
X135000000Y-99400000D03*
X148575000Y-89600000D03*
X137878822Y-94800000D03*
X138240000Y-85800000D03*
X119200000Y-108600000D03*
X127600000Y-67250000D03*
X142739411Y-102739411D03*
X152000000Y-115600000D03*
X120800000Y-126400000D03*
X117500000Y-150000000D03*
X122650000Y-150000000D03*
X135000000Y-102600000D03*
X128800000Y-108000000D03*
X142400000Y-67250000D03*
X135660589Y-94939411D03*
X117950000Y-101700000D03*
X127600000Y-68200000D03*
X132250000Y-73460000D03*
X117240000Y-124950000D03*
X117462500Y-126462500D03*
X141614143Y-105800000D03*
X135800000Y-101800000D03*
X135478822Y-93521178D03*
X137800000Y-79290000D03*
X138750000Y-73460000D03*
X152400000Y-118200000D03*
X130000000Y-150000000D03*
X121700000Y-125462500D03*
X134200000Y-100200000D03*
X128060589Y-97460589D03*
X134200000Y-101800000D03*
X113350000Y-145000000D03*
X146000000Y-113920000D03*
X113350000Y-127425000D03*
X138000000Y-126000000D03*
X126250000Y-73460000D03*
X139750000Y-73460000D03*
X139078822Y-106878822D03*
X130860589Y-96060589D03*
X120800000Y-124600000D03*
X135000000Y-65400000D03*
X142400000Y-66400000D03*
X135000000Y-101000000D03*
X127600000Y-66200000D03*
X122600000Y-126400000D03*
X124400000Y-120120000D03*
X133750000Y-73460000D03*
X127250000Y-73460000D03*
X122800000Y-105800000D03*
X136600000Y-101000000D03*
X126042284Y-107646446D03*
X129250000Y-73460000D03*
X125321178Y-104521178D03*
X131250000Y-73460000D03*
X145200000Y-111600000D03*
X151200000Y-93075735D03*
X141200000Y-101000000D03*
X137400000Y-93000000D03*
X113350000Y-132575000D03*
X151200000Y-94900000D03*
X125450000Y-79000000D03*
X133400000Y-101000000D03*
X122600000Y-124600000D03*
X132121178Y-94121178D03*
X131660589Y-106939411D03*
X135800000Y-100200000D03*
X138600000Y-95521178D03*
X142400000Y-68200000D03*
X118400000Y-120200000D03*
X123200000Y-120120000D03*
X113350000Y-139850000D03*
X124800000Y-125462500D03*
X128250000Y-73460000D03*
X130250000Y-73460000D03*
%TO.N,DOWN*%
X140695393Y-108056077D03*
X122200000Y-114599997D03*
X111650000Y-139850000D03*
%TO.N,+3V3*%
X133750000Y-71000000D03*
X119175735Y-114775735D03*
X123535735Y-122264265D03*
X142060589Y-102060589D03*
X133700000Y-124300000D03*
X128739411Y-98139411D03*
X132000000Y-126000000D03*
X139200000Y-92048529D03*
X128592892Y-121007108D03*
X131689950Y-111089950D03*
X130275735Y-109675735D03*
X129800000Y-97000000D03*
X145206042Y-116393958D03*
X139800000Y-82200000D03*
X134721248Y-92678752D03*
X145200000Y-119800000D03*
X138400000Y-106200000D03*
X132800000Y-94800000D03*
X129400000Y-101401358D03*
X124400000Y-121080000D03*
X137800000Y-80250000D03*
X137200000Y-95478822D03*
X146000000Y-114880000D03*
X132339411Y-106260589D03*
X136339411Y-94260589D03*
X146200000Y-98400000D03*
X132000000Y-124400000D03*
%TO.N,GPIO0*%
X143000000Y-114200000D03*
%TO.N,GPIO1*%
X142175735Y-114175735D03*
%TO.N,GPIO2*%
X141600000Y-113620282D03*
%TO.N,GPIO3*%
X141600000Y-112771755D03*
%TO.N,ADC0*%
X152590000Y-134610000D03*
X150600000Y-140800000D03*
X121600000Y-98000000D03*
%TO.N,ADC1*%
X120799997Y-98000000D03*
X152600000Y-140800000D03*
X152200000Y-136000000D03*
%TO.N,UP*%
X111650000Y-127450000D03*
X141274757Y-107476716D03*
X122200000Y-115400000D03*
%TO.N,Net-(D4-K)*%
X157937500Y-118400000D03*
%TO.N,Net-(D4-A)*%
X156062500Y-118400000D03*
%TO.N,LEFT*%
X139909046Y-108203240D03*
X122200000Y-113799994D03*
X117500000Y-148300000D03*
%TO.N,SWCLK*%
X138789948Y-113189951D03*
X128832655Y-105397018D03*
X133575726Y-111175726D03*
%TO.N,SWDIO*%
X128692402Y-104600000D03*
X138189950Y-113789950D03*
X132975728Y-111775725D03*
%TO.N,GPIO24*%
X122200000Y-94000000D03*
X122210051Y-99210051D03*
X125900000Y-98348528D03*
X125475736Y-95924263D03*
%TO.N,GPIO25*%
X130444400Y-97600000D03*
X128875735Y-94324265D03*
%TO.N,GPIO23*%
X125334313Y-98914216D03*
X124839712Y-96580387D03*
%TO.N,+1V1*%
X137921178Y-96200000D03*
X140400000Y-95000000D03*
X130739411Y-105060589D03*
X139860589Y-104060589D03*
X145200000Y-99600000D03*
X131539411Y-96739411D03*
%TO.N,Net-(U1-VREG_LX)*%
X138985786Y-93585786D03*
X136289052Y-95571537D03*
%TO.N,NFC_SCL*%
X144000000Y-118780000D03*
X145200000Y-117302943D03*
%TO.N,USB_C_D-*%
X150400000Y-106250000D03*
X154862500Y-105950000D03*
X157137500Y-105950000D03*
X150400000Y-105008578D03*
%TO.N,E-INK_VGL*%
X127250000Y-72500000D03*
X125450000Y-76500000D03*
%TO.N,USB_C_VBUS*%
X149000000Y-107400000D03*
X121800000Y-122000000D03*
X129407108Y-121992892D03*
X124600000Y-134275000D03*
X125000000Y-124026886D03*
X130489950Y-120641420D03*
%TO.N,USB_C_D+*%
X154850000Y-104050000D03*
X157137500Y-104050000D03*
%TO.N,SD-DAT2*%
X124000000Y-89800000D03*
X134834313Y-88834313D03*
X147269769Y-77681701D03*
X125259231Y-100510688D03*
%TO.N,SD-DAT3*%
X125259231Y-99710685D03*
X148200000Y-77600000D03*
X124000000Y-90600000D03*
X135400000Y-89400000D03*
%TO.N,SD-CMD*%
X152610000Y-73545000D03*
X142799952Y-107792902D03*
%TO.N,SD-CLK*%
X142807071Y-106992931D03*
X152610000Y-71345000D03*
%TO.N,SD-DAT0*%
X147375735Y-69175735D03*
X125259231Y-102110694D03*
X133702939Y-87702939D03*
X124000000Y-88199994D03*
%TO.N,SD-DAT1*%
X124000000Y-88999997D03*
X125259231Y-101310691D03*
X149355000Y-68045000D03*
X134268626Y-88268626D03*
%TO.N,NFC_GPO*%
X144800000Y-114910000D03*
X143217157Y-117582843D03*
%TO.N,QSPI_SS*%
X151820000Y-85800000D03*
X143149008Y-100163224D03*
%TO.N,RUN*%
X141948600Y-108337954D03*
X147424265Y-102175735D03*
X138168628Y-110231372D03*
X134899671Y-106962414D03*
X129861558Y-103661558D03*
X140000000Y-109000000D03*
%TO.N,Net-(U6-AC1)*%
X151200000Y-118360000D03*
X151200000Y-126373000D03*
%TO.N,Net-(D7-A)*%
X131210000Y-78560000D03*
%TO.N,E-INK_VGH*%
X129250000Y-72500000D03*
X136050000Y-76500000D03*
%TO.N,E-INK_SDA*%
X127123465Y-102800000D03*
X133257210Y-67955531D03*
%TO.N,E-INK_SCL*%
X127861133Y-102400000D03*
X134055827Y-68002602D03*
%TO.N,E-INK_CS*%
X128600411Y-102094276D03*
X134854922Y-68040706D03*
%TO.N,E-INK_D{slash}C*%
X127489950Y-95110050D03*
X135650104Y-67953047D03*
%TO.N,E-INK_RST*%
X136451076Y-67763195D03*
X127272794Y-94327206D03*
%TO.N,E-INK_BUSY*%
X137175735Y-67424265D03*
X128062519Y-94455023D03*
%TO.N,QSPI_SD3*%
X141224265Y-95975735D03*
X138524264Y-98324264D03*
X141400000Y-87060000D03*
%TO.N,QSPI_SCLK*%
X141400000Y-88330000D03*
X140886259Y-97900475D03*
%TO.N,QSPI_SD0*%
X141451946Y-98466162D03*
X141400000Y-89600000D03*
%TO.N,QSPI_SD2*%
X142017634Y-99031849D03*
X148575000Y-88330000D03*
%TO.N,QSPI_SD1*%
X148575000Y-87060000D03*
X142583321Y-99597537D03*
%TD*%
%TO.N,RIGHT*%
D21*
X138979143Y-108213458D02*
X138620856Y-108213458D01*
X132599991Y-112999991D02*
X122200000Y-112999991D01*
X138620856Y-108213458D02*
X136802942Y-110031372D01*
X136802942Y-110031372D02*
X135568608Y-110031372D01*
X135568608Y-110031372D02*
X132599991Y-112999991D01*
X130000000Y-148300000D02*
X135150000Y-148300000D01*
%TO.N,-BATT*%
X135150000Y-150000000D02*
X130000000Y-150000000D01*
X138620101Y-94800000D02*
X139585786Y-93834315D01*
X133321178Y-108600000D02*
X137357644Y-108600000D01*
X131660589Y-106939411D02*
X130600000Y-108000000D01*
X118480000Y-120120000D02*
X118400000Y-120200000D01*
X124646446Y-107646446D02*
X122800000Y-105800000D01*
X113350000Y-139850000D02*
X113350000Y-145000000D01*
X142139411Y-103339411D02*
X142139411Y-104497138D01*
X131721178Y-107000000D02*
X131800000Y-107000000D01*
X137414214Y-92985786D02*
X137400000Y-93000000D01*
X118700000Y-101700000D02*
X120399997Y-103399997D01*
X125321178Y-104521178D02*
X124078822Y-104521178D01*
X120399997Y-103399997D02*
X120399997Y-107400003D01*
X123200000Y-120120000D02*
X118480000Y-120120000D01*
X130060589Y-105739411D02*
X130460589Y-105739411D01*
X135660589Y-93702945D02*
X135478822Y-93521178D01*
X131321178Y-94121178D02*
X129121178Y-96321178D01*
X135478822Y-93521178D02*
X132721178Y-93521178D01*
X139585786Y-93834315D02*
X139585786Y-93337257D01*
X126042284Y-107646446D02*
X124646446Y-107646446D01*
X132121178Y-94121178D02*
X131321178Y-94121178D01*
X152140000Y-115460000D02*
X152000000Y-115600000D01*
X130600000Y-108000000D02*
X128800000Y-108000000D01*
X135478822Y-93521178D02*
X136878822Y-93521178D01*
X137878822Y-94800000D02*
X138620101Y-94800000D01*
X130460589Y-105739411D02*
X131660589Y-106939411D01*
X141614143Y-105800000D02*
X142739411Y-104674732D01*
X135660589Y-94939411D02*
X135660589Y-93702945D01*
X122650000Y-150000000D02*
X117500000Y-150000000D01*
X139585786Y-93337257D02*
X139234315Y-92985786D01*
X132721178Y-93521178D02*
X132121178Y-94121178D01*
X142139411Y-104497138D02*
X139757727Y-106878822D01*
X131660589Y-106939411D02*
X133321178Y-108600000D01*
X137357644Y-108600000D02*
X139078822Y-106878822D01*
X138000000Y-130320000D02*
X138000000Y-126000000D01*
X131660589Y-106939411D02*
X131721178Y-107000000D01*
X142739411Y-102739411D02*
X142139411Y-103339411D01*
X151200000Y-93075735D02*
X151200000Y-94900000D01*
X139234315Y-92985786D02*
X137414214Y-92985786D01*
X147370000Y-139690000D02*
X138000000Y-130320000D01*
X124078822Y-104521178D02*
X122800000Y-105800000D01*
X165400000Y-139690000D02*
X147370000Y-139690000D01*
X128800000Y-108000000D02*
X126395838Y-108000000D01*
X136878822Y-93521178D02*
X137400000Y-93000000D01*
X152400000Y-118200000D02*
X152400000Y-116000000D01*
X120399997Y-107400003D02*
X119200000Y-108600000D01*
X113350000Y-127425000D02*
X113350000Y-132575000D01*
X139757727Y-106878822D02*
X139078822Y-106878822D01*
X117950000Y-101700000D02*
X118700000Y-101700000D01*
X152400000Y-116000000D02*
X152000000Y-115600000D01*
X136600000Y-101000000D02*
X141200000Y-101000000D01*
X126395838Y-108000000D02*
X126042284Y-107646446D01*
X165400000Y-115460000D02*
X152140000Y-115460000D01*
X142739411Y-104674732D02*
X142739411Y-102739411D01*
%TO.N,DOWN*%
X139168628Y-110831372D02*
X140695393Y-109304607D01*
X135899980Y-110831372D02*
X139168628Y-110831372D01*
X122200000Y-114599997D02*
X132131355Y-114599997D01*
X140695393Y-109304607D02*
X140695393Y-108056077D01*
X111650000Y-145000000D02*
X111650000Y-139850000D01*
X132131355Y-114599997D02*
X135899980Y-110831372D01*
%TO.N,+3V3*%
X136400000Y-108200000D02*
X138400000Y-106200000D01*
X139750000Y-82200000D02*
X137800000Y-80250000D01*
X139870863Y-106200000D02*
X138400000Y-106200000D01*
X145206042Y-116393958D02*
X145200000Y-116387916D01*
X125068628Y-117200000D02*
X128592892Y-120724264D01*
X129800000Y-96208042D02*
X131208042Y-94800000D01*
X130275735Y-109675735D02*
X131689950Y-111089950D01*
X143587940Y-102060589D02*
X146200000Y-99448529D01*
X128592892Y-120724264D02*
X128592892Y-121007108D01*
X132339411Y-106260589D02*
X134278822Y-108200000D01*
X123535735Y-122264265D02*
X123535735Y-121944265D01*
X133700000Y-124300000D02*
X132000000Y-126000000D01*
X165390000Y-121910000D02*
X153290000Y-121910000D01*
X141460589Y-104610274D02*
X139870863Y-106200000D01*
X145800000Y-116987916D02*
X145800000Y-119200000D01*
X129400000Y-101401358D02*
X128739411Y-100740769D01*
X121600000Y-117200000D02*
X125068628Y-117200000D01*
X153290000Y-121910000D02*
X152000000Y-123200000D01*
X139800000Y-82200000D02*
X139750000Y-82200000D01*
X146200000Y-99448529D02*
X146200000Y-98400000D01*
X151600000Y-127000000D02*
X150600000Y-127000000D01*
X142060589Y-102060589D02*
X141460589Y-102660589D01*
X129800000Y-97000000D02*
X129800000Y-96208042D01*
X150600000Y-127000000D02*
X145200000Y-121600000D01*
X134278822Y-108200000D02*
X136400000Y-108200000D01*
X141460589Y-102660589D02*
X141460589Y-104610274D01*
X145206042Y-116393958D02*
X145800000Y-116987916D01*
X165400000Y-121920000D02*
X165390000Y-121910000D01*
X152000000Y-126600000D02*
X151600000Y-127000000D01*
X119175735Y-114775735D02*
X121600000Y-117200000D01*
X145200000Y-121600000D02*
X145200000Y-119800000D01*
X128739411Y-100740769D02*
X128739411Y-98139411D01*
X152000000Y-123200000D02*
X152000000Y-126600000D01*
X131208042Y-94800000D02*
X132800000Y-94800000D01*
X123535735Y-121944265D02*
X124400000Y-121080000D01*
X145800000Y-119200000D02*
X145200000Y-119800000D01*
X145200000Y-115680000D02*
X146000000Y-114880000D01*
X142060589Y-102060589D02*
X143587940Y-102060589D01*
X145200000Y-116387916D02*
X145200000Y-115680000D01*
X132000000Y-124400000D02*
X132000000Y-126000000D01*
%TO.N,GPIO0*%
X153150000Y-124450000D02*
X165390000Y-124450000D01*
X152400000Y-126765685D02*
X152400000Y-125200000D01*
X165390000Y-124450000D02*
X165400000Y-124460000D01*
X150228430Y-127200000D02*
X150234315Y-127200000D01*
X151765685Y-127400000D02*
X152400000Y-126765685D01*
X143000000Y-114200000D02*
X142600000Y-114600000D01*
X142600000Y-114600000D02*
X142600000Y-119571570D01*
X142600000Y-119571570D02*
X150228430Y-127200000D01*
X150234315Y-127200000D02*
X150434314Y-127400000D01*
X152400000Y-125200000D02*
X153150000Y-124450000D01*
X150434314Y-127400000D02*
X151765685Y-127400000D01*
%TO.N,GPIO1*%
X141800000Y-119337256D02*
X150062744Y-127600000D01*
X150062744Y-127600000D02*
X150068629Y-127600000D01*
X152731372Y-127000000D02*
X165390000Y-127000000D01*
X150068629Y-127600000D02*
X150268629Y-127800000D01*
X165390000Y-127000000D02*
X165400000Y-126990000D01*
X141800000Y-114551470D02*
X141800000Y-119337256D01*
X150268629Y-127800000D02*
X151931371Y-127800000D01*
X151931371Y-127800000D02*
X152731372Y-127000000D01*
X142175735Y-114175735D02*
X141800000Y-114551470D01*
%TO.N,GPIO2*%
X165390000Y-129530000D02*
X165400000Y-129540000D01*
X141200000Y-119302942D02*
X151427058Y-129530000D01*
X141600000Y-113620282D02*
X141200000Y-114020282D01*
X141200000Y-114020282D02*
X141200000Y-119302942D01*
X151427058Y-129530000D02*
X165390000Y-129530000D01*
%TO.N,GPIO3*%
X140800000Y-113571755D02*
X140800000Y-119468628D01*
X151400000Y-130068628D02*
X151400000Y-130400000D01*
X141600000Y-112771755D02*
X140800000Y-113571755D01*
X151400000Y-130400000D02*
X153080000Y-132080000D01*
X165390000Y-132080000D02*
X165400000Y-132070000D01*
X140800000Y-119468628D02*
X151400000Y-130068628D01*
X153080000Y-132080000D02*
X165390000Y-132080000D01*
%TO.N,ADC0*%
X121600000Y-98600000D02*
X121600000Y-98000000D01*
X121199997Y-115248526D02*
X121199997Y-99000003D01*
X122351471Y-116400000D02*
X121199997Y-115248526D01*
X150090000Y-140290000D02*
X145441471Y-140290000D01*
X130600000Y-125448529D02*
X130600000Y-121600000D01*
X150600000Y-140800000D02*
X150090000Y-140290000D01*
X125399999Y-116400000D02*
X122351471Y-116400000D01*
X152590000Y-134610000D02*
X165400000Y-134610000D01*
X145441471Y-140290000D02*
X130600000Y-125448529D01*
X130600000Y-121600000D02*
X125399999Y-116400000D01*
X121199997Y-99000003D02*
X121600000Y-98600000D01*
%TO.N,ADC1*%
X153350000Y-137150000D02*
X165400000Y-137150000D01*
X122185785Y-116800000D02*
X120799997Y-115414212D01*
X151600000Y-140800000D02*
X151000000Y-141400000D01*
X120799997Y-115414212D02*
X120799997Y-98000000D01*
X150200000Y-141400000D02*
X149490000Y-140690000D01*
X130200000Y-121765686D02*
X125234314Y-116800000D01*
X125234314Y-116800000D02*
X122185785Y-116800000D01*
X145275785Y-140690000D02*
X130200000Y-125614214D01*
X149490000Y-140690000D02*
X145275785Y-140690000D01*
X152200000Y-136000000D02*
X153350000Y-137150000D01*
X152600000Y-140800000D02*
X151600000Y-140800000D01*
X130200000Y-125614214D02*
X130200000Y-121765686D01*
X151000000Y-141400000D02*
X150200000Y-141400000D01*
%TO.N,UP*%
X141295393Y-107497352D02*
X141295393Y-109270292D01*
X141274757Y-107476716D02*
X141295393Y-107497352D01*
X136065665Y-111231372D02*
X131897037Y-115400000D01*
X131897037Y-115400000D02*
X122200000Y-115400000D01*
X141295393Y-109270292D02*
X139334313Y-111231372D01*
X111650000Y-127450000D02*
X111650000Y-132575000D01*
X139334313Y-111231372D02*
X136065665Y-111231372D01*
X111650000Y-127425000D02*
X111650000Y-127450000D01*
%TO.N,LEFT*%
X135734294Y-110431372D02*
X132365673Y-113799994D01*
X138400000Y-109000000D02*
X136968628Y-110431372D01*
X132365673Y-113799994D02*
X122200000Y-113799994D01*
X139112286Y-109000000D02*
X138400000Y-109000000D01*
X139909046Y-108203240D02*
X139112286Y-109000000D01*
X136968628Y-110431372D02*
X135734294Y-110431372D01*
X122650000Y-148300000D02*
X117500000Y-148300000D01*
%TO.N,SWCLK*%
X124800000Y-109000000D02*
X124800000Y-110000000D01*
X122200000Y-106400000D02*
X124800000Y-109000000D01*
X122200000Y-105400000D02*
X122200000Y-106400000D01*
X143685686Y-112920000D02*
X142537440Y-111771755D01*
X124800000Y-110000000D02*
X126489950Y-111689950D01*
X142537440Y-111771755D02*
X141185786Y-111771755D01*
X126489950Y-111689950D02*
X131938479Y-111689950D01*
X123703379Y-103896621D02*
X122200000Y-105400000D01*
X139767589Y-113189951D02*
X138789948Y-113189951D01*
X127603776Y-105397018D02*
X126103379Y-103896621D01*
X128832655Y-105397018D02*
X127603776Y-105397018D01*
X132452703Y-111175726D02*
X133575726Y-111175726D01*
X131938479Y-111689950D02*
X132452703Y-111175726D01*
X126103379Y-103896621D02*
X123703379Y-103896621D01*
X141185786Y-111771755D02*
X139767589Y-113189951D01*
X165400000Y-112920000D02*
X143685686Y-112920000D01*
%TO.N,SWDIO*%
X142371755Y-112171755D02*
X141351471Y-112171755D01*
X155586768Y-117400000D02*
X155000000Y-117986768D01*
X153448529Y-118000000D02*
X152648529Y-118800000D01*
X121800000Y-105234315D02*
X121800000Y-106565686D01*
X151800000Y-118448529D02*
X151800000Y-116400000D01*
X124400000Y-109165686D02*
X124400000Y-110165686D01*
X139733276Y-113789950D02*
X138189950Y-113789950D01*
X128692402Y-104600000D02*
X127372444Y-104600000D01*
X155000000Y-117986768D02*
X155000000Y-118000000D01*
X123537693Y-103496621D02*
X121800000Y-105234315D01*
X126324265Y-112089950D02*
X132661503Y-112089950D01*
X132661503Y-112089950D02*
X132975728Y-111775725D01*
X143520000Y-113320000D02*
X142371755Y-112171755D01*
X151800000Y-116400000D02*
X148720000Y-113320000D01*
X127372444Y-104600000D02*
X126269064Y-103496621D01*
X158800000Y-117400000D02*
X155586768Y-117400000D01*
X155000000Y-118000000D02*
X153448529Y-118000000D01*
X124400000Y-110165686D02*
X126324265Y-112089950D01*
X152151471Y-118800000D02*
X151800000Y-118448529D01*
X165400000Y-118000000D02*
X159400000Y-118000000D01*
X152648529Y-118800000D02*
X152151471Y-118800000D01*
X121800000Y-106565686D02*
X124400000Y-109165686D01*
X141351471Y-112171755D02*
X139733276Y-113789950D01*
X159400000Y-118000000D02*
X158800000Y-117400000D01*
X126269064Y-103496621D02*
X123537693Y-103496621D01*
X148720000Y-113320000D02*
X143520000Y-113320000D01*
%TO.N,GPIO24*%
X125475736Y-97924266D02*
X125899998Y-98348528D01*
X122200000Y-94000000D02*
X122200000Y-99200000D01*
X125899998Y-98348528D02*
X125900000Y-98348528D01*
X125475736Y-95924263D02*
X125475736Y-97924266D01*
X122200000Y-99200000D02*
X122210051Y-99210051D01*
%TO.N,GPIO25*%
X128521178Y-95078822D02*
X128875735Y-94724265D01*
X128521178Y-96721178D02*
X128521178Y-95078822D01*
X128875735Y-94724265D02*
X128875735Y-94324265D01*
X129400000Y-97600000D02*
X128521178Y-96721178D01*
X130444400Y-97600000D02*
X129400000Y-97600000D01*
%TO.N,GPIO23*%
X124839712Y-96580387D02*
X124839712Y-98419615D01*
X124839712Y-98419615D02*
X125334313Y-98914216D01*
%TO.N,+1V1*%
X132078822Y-96200000D02*
X137921178Y-96200000D01*
X141000000Y-102921178D02*
X141000000Y-102200000D01*
X132527351Y-105600000D02*
X134727351Y-107800000D01*
X136234314Y-107800000D02*
X137400000Y-106634314D01*
X137400000Y-106634314D02*
X137400000Y-106351471D01*
X139860589Y-104060589D02*
X141000000Y-102921178D01*
X139690882Y-104060589D02*
X139860589Y-104060589D01*
X131278822Y-105600000D02*
X132527351Y-105600000D01*
X137400000Y-106351471D02*
X139690882Y-104060589D01*
X142400000Y-100800000D02*
X144000000Y-100800000D01*
X130739411Y-105060589D02*
X131278822Y-105600000D01*
X140400000Y-95000000D02*
X139200000Y-96200000D01*
X141000000Y-102200000D02*
X142400000Y-100800000D01*
X131539411Y-96739411D02*
X132078822Y-96200000D01*
X134727351Y-107800000D02*
X136234314Y-107800000D01*
X139200000Y-96200000D02*
X137921178Y-96200000D01*
X144000000Y-100800000D02*
X145200000Y-99600000D01*
%TO.N,Net-(U1-VREG_LX)*%
X138985786Y-93585786D02*
X138214214Y-93585786D01*
X136289052Y-95510948D02*
X136289052Y-95571537D01*
X138214214Y-93585786D02*
X136289052Y-95510948D01*
%TO.N,NFC_SCL*%
X144000000Y-118502943D02*
X144000000Y-118780000D01*
X145200000Y-117302943D02*
X144000000Y-118502943D01*
%TO.N,USB_C_D-*%
X150400000Y-105008578D02*
X150400000Y-106250000D01*
X157137500Y-105950000D02*
X154862500Y-105950000D01*
%TO.N,E-INK_VGL*%
X127250000Y-72500000D02*
X126000000Y-72500000D01*
X125450000Y-73050000D02*
X125450000Y-76500000D01*
X126000000Y-72500000D02*
X125450000Y-73050000D01*
%TO.N,USB_C_VBUS*%
X147600000Y-108800000D02*
X142331371Y-108800000D01*
X121800000Y-122000000D02*
X122300000Y-122000000D01*
X142331371Y-108800000D02*
X130489950Y-120641420D01*
X129407108Y-129467892D02*
X124600000Y-134275000D01*
X122300000Y-122000000D02*
X124326886Y-124026886D01*
X129407108Y-121992892D02*
X129407108Y-129467892D01*
X124326886Y-124026886D02*
X125000000Y-124026886D01*
X149000000Y-107400000D02*
X147600000Y-108800000D01*
%TO.N,USB_C_D+*%
X157137500Y-104050000D02*
X154850000Y-104050000D01*
%TO.N,SD-DAT2*%
X134868626Y-87668624D02*
X138937251Y-83600000D01*
X123951471Y-89800000D02*
X124000000Y-89800000D01*
X123800000Y-91400000D02*
X123400000Y-91000000D01*
X125259231Y-100510688D02*
X125110688Y-100510688D01*
X134868626Y-88800000D02*
X134868626Y-87668624D01*
X123400000Y-90351471D02*
X123951471Y-89800000D01*
X141351470Y-83600000D02*
X147269769Y-77681701D01*
X134834313Y-88834313D02*
X134868626Y-88800000D01*
X123800000Y-99200000D02*
X123800000Y-91400000D01*
X125110688Y-100510688D02*
X123800000Y-99200000D01*
X138937251Y-83600000D02*
X141351470Y-83600000D01*
X123400000Y-91000000D02*
X123400000Y-90351471D01*
%TO.N,SD-DAT3*%
X135434313Y-87668623D02*
X139102936Y-84000000D01*
X124200000Y-98651454D02*
X124200000Y-90800000D01*
X141800000Y-84000000D02*
X148200000Y-77600000D01*
X135434313Y-89365687D02*
X135434313Y-87668623D01*
X139102936Y-84000000D02*
X141800000Y-84000000D01*
X124200000Y-90800000D02*
X124000000Y-90600000D01*
X135400000Y-89400000D02*
X135434313Y-89365687D01*
X125259231Y-99710685D02*
X124200000Y-98651454D01*
%TO.N,SD-CMD*%
X142799952Y-107792902D02*
X143221312Y-107792902D01*
X143221312Y-107792902D02*
X152200000Y-98814214D01*
X152820000Y-85254314D02*
X152585685Y-85020000D01*
X151655000Y-73545000D02*
X152610000Y-73545000D01*
X152200000Y-98814214D02*
X152200000Y-87099950D01*
X152820000Y-86479949D02*
X152820000Y-85254314D01*
X152585685Y-85020000D02*
X150800000Y-83234314D01*
X152200000Y-87099950D02*
X152820000Y-86479949D01*
X150800000Y-74400000D02*
X151655000Y-73545000D01*
X150800000Y-83234314D02*
X150800000Y-74400000D01*
%TO.N,SD-CLK*%
X150800000Y-73834314D02*
X150800000Y-72200000D01*
X143455597Y-106992931D02*
X151800000Y-98648529D01*
X151800000Y-86934264D02*
X152420000Y-86314264D01*
X151800000Y-98648529D02*
X151800000Y-86934264D01*
X150400000Y-74234314D02*
X150800000Y-73834314D01*
X150400000Y-83399999D02*
X150400000Y-74234314D01*
X150800000Y-72200000D02*
X151655000Y-71345000D01*
X152420000Y-85420000D02*
X150400000Y-83399999D01*
X151655000Y-71345000D02*
X152610000Y-71345000D01*
X152420000Y-86314264D02*
X152420000Y-85420000D01*
X142807071Y-106992931D02*
X143455597Y-106992931D01*
%TO.N,SD-DAT0*%
X123000000Y-100000000D02*
X123000000Y-91731371D01*
X122600000Y-91331370D02*
X122600000Y-89551468D01*
X125259231Y-102110694D02*
X125110694Y-102110694D01*
X146269769Y-77330231D02*
X140800000Y-82800000D01*
X123000000Y-91731371D02*
X122600000Y-91331370D01*
X138605879Y-82800000D02*
X133702939Y-87702939D01*
X146269769Y-70281701D02*
X146269769Y-77330231D01*
X122600000Y-89551468D02*
X123951474Y-88199994D01*
X125110694Y-102110694D02*
X123000000Y-100000000D01*
X147375735Y-69175735D02*
X146269769Y-70281701D01*
X140800000Y-82800000D02*
X138605879Y-82800000D01*
X123951474Y-88199994D02*
X124000000Y-88199994D01*
%TO.N,SD-DAT1*%
X123400000Y-99499986D02*
X123400000Y-91565686D01*
X146669769Y-77495917D02*
X140965686Y-83200000D01*
X123000000Y-89951471D02*
X123951474Y-88999997D01*
X149355000Y-68045000D02*
X146669769Y-70730231D01*
X125259231Y-101310691D02*
X125210705Y-101310691D01*
X140965686Y-83200000D02*
X138771564Y-83200000D01*
X134302939Y-88234313D02*
X134268626Y-88268626D01*
X146669769Y-70730231D02*
X146669769Y-77495917D01*
X125210705Y-101310691D02*
X123400000Y-99499986D01*
X123400000Y-91565686D02*
X123000000Y-91165685D01*
X123951474Y-88999997D02*
X124000000Y-88999997D01*
X138771564Y-83200000D02*
X134302939Y-87668625D01*
X123000000Y-91165685D02*
X123000000Y-89951471D01*
X134302939Y-87668625D02*
X134302939Y-88234313D01*
%TO.N,NFC_GPO*%
X143217157Y-117582843D02*
X143217157Y-116492843D01*
X143217157Y-116492843D02*
X144800000Y-114910000D01*
%TO.N,QSPI_SS*%
X150600000Y-87020000D02*
X151820000Y-85800000D01*
X150600000Y-92712232D02*
X150600000Y-87020000D01*
X143149008Y-100163224D02*
X150600000Y-92712232D01*
%TO.N,RUN*%
X138168628Y-110231372D02*
X138768628Y-110231372D01*
X134455451Y-106962414D02*
X134899671Y-106962414D01*
X129861558Y-103661558D02*
X130361558Y-104161558D01*
X132693037Y-105200000D02*
X134455451Y-106962414D01*
X130761558Y-104161558D02*
X131800000Y-105200000D01*
X146724265Y-102175735D02*
X141948600Y-106951400D01*
X147424265Y-102175735D02*
X146724265Y-102175735D01*
X130361558Y-104161558D02*
X130761558Y-104161558D01*
X141948600Y-106951400D02*
X141948600Y-108337954D01*
X131800000Y-105200000D02*
X132693037Y-105200000D01*
X138768628Y-110231372D02*
X140000000Y-109000000D01*
%TO.N,Net-(U6-AC1)*%
X151200000Y-118360000D02*
X151200000Y-126373000D01*
%TO.N,E-INK_VGH*%
X132300000Y-72500000D02*
X133150000Y-73350000D01*
X133150000Y-73350000D02*
X133150000Y-73708529D01*
X129250000Y-72500000D02*
X132300000Y-72500000D01*
X136050000Y-76250000D02*
X136050000Y-76500000D01*
X133150000Y-73708529D02*
X133501471Y-74060000D01*
X133860000Y-74060000D02*
X136050000Y-76250000D01*
X133501471Y-74060000D02*
X133860000Y-74060000D01*
%TO.N,E-INK_SDA*%
X127400000Y-99000000D02*
X126200000Y-97799998D01*
X127123465Y-102800000D02*
X127123465Y-102289139D01*
X127400000Y-102012604D02*
X127400000Y-99000000D01*
X125472794Y-95072790D02*
X125472794Y-94921321D01*
X127598529Y-85800001D02*
X136650000Y-76748529D01*
X124600000Y-94048525D02*
X124600000Y-88800000D01*
X125472794Y-94921321D02*
X124600000Y-94048525D01*
X127123465Y-102289139D02*
X127400000Y-102012604D01*
X126200000Y-97799998D02*
X126200000Y-95799998D01*
X126200000Y-95799998D02*
X125472794Y-95072790D01*
X136650000Y-76748529D02*
X136650000Y-75450000D01*
X134600000Y-69395304D02*
X133257210Y-68052514D01*
X127598529Y-85801471D02*
X127598529Y-85800001D01*
X133257210Y-68052514D02*
X133257210Y-67955531D01*
X124600000Y-88800000D02*
X127598529Y-85801471D01*
X134600000Y-73399998D02*
X134600000Y-69395304D01*
X136650000Y-75450000D02*
X134600000Y-73399998D01*
%TO.N,E-INK_SCL*%
X125000000Y-88965686D02*
X127998529Y-85967157D01*
X127861133Y-102400000D02*
X127800000Y-102338867D01*
X135000000Y-69229619D02*
X134055827Y-68285445D01*
X126600000Y-95634313D02*
X125872794Y-94907105D01*
X126600000Y-97634313D02*
X126600000Y-95634313D01*
X125000000Y-93882840D02*
X125000000Y-88965686D01*
X125872794Y-94907105D02*
X125872794Y-94755636D01*
X135000000Y-73234313D02*
X135000000Y-69229619D01*
X134055827Y-68285445D02*
X134055827Y-68002602D01*
X137050000Y-76914215D02*
X137050000Y-75284315D01*
X127998529Y-85967157D02*
X127998529Y-85965687D01*
X137050000Y-75284315D02*
X135000000Y-73234313D01*
X127998529Y-85965687D02*
X137050000Y-76914215D01*
X127800000Y-98834315D02*
X126600000Y-97634313D01*
X127800000Y-102338867D02*
X127800000Y-98834315D01*
X125872794Y-94755636D02*
X125000000Y-93882840D01*
%TO.N,E-INK_CS*%
X135264951Y-79264951D02*
X137450000Y-77079900D01*
X134854922Y-68518855D02*
X134854922Y-68040706D01*
X135400000Y-69063935D02*
X134854922Y-68518855D01*
X128200000Y-101693865D02*
X128200000Y-98668629D01*
X128600411Y-102094276D02*
X128200000Y-101693865D01*
X137450000Y-77079900D02*
X137450000Y-75118629D01*
X127000000Y-95468629D02*
X126272794Y-94741420D01*
X135400000Y-73068628D02*
X135400000Y-69063935D01*
X137450000Y-75118629D02*
X135400000Y-73068628D01*
X135264951Y-79266421D02*
X135264951Y-79264951D01*
X126272794Y-94589950D02*
X125400000Y-93717155D01*
X125400000Y-89131372D02*
X135264951Y-79266421D01*
X126272794Y-94741420D02*
X126272794Y-94589950D01*
X127000000Y-97468628D02*
X127000000Y-95468629D01*
X128200000Y-98668629D02*
X127000000Y-97468628D01*
X125400000Y-93717155D02*
X125400000Y-89131372D01*
%TO.N,E-INK_D{slash}C*%
X137850000Y-77245587D02*
X137850000Y-74952945D01*
X126672794Y-94575735D02*
X126672794Y-94424264D01*
X127489950Y-95110050D02*
X127207109Y-95110050D01*
X125800000Y-93551470D02*
X125800000Y-89297058D01*
X125800000Y-89297058D02*
X136847794Y-78249264D01*
X137850000Y-74952945D02*
X135800000Y-72902940D01*
X127207109Y-95110050D02*
X126672794Y-94575735D01*
X136847794Y-78249264D02*
X136847794Y-78247794D01*
X135800000Y-72902940D02*
X135800000Y-68898249D01*
X136847794Y-78247794D02*
X137850000Y-77245587D01*
X126672794Y-94424264D02*
X125800000Y-93551470D01*
X135650104Y-68748353D02*
X135650104Y-67953047D01*
X135800000Y-68898249D02*
X135650104Y-68748353D01*
%TO.N,E-INK_RST*%
X127161521Y-94327206D02*
X126200000Y-93365685D01*
X137330637Y-78332107D02*
X137330637Y-78330637D01*
X136451076Y-68451076D02*
X136451076Y-67763195D01*
X136200000Y-72737255D02*
X136200001Y-68702151D01*
X138250000Y-77411272D02*
X138250000Y-74787259D01*
X126200000Y-89462744D02*
X137330637Y-78332107D01*
X137330637Y-78330637D02*
X138250000Y-77411272D01*
X127272794Y-94327206D02*
X127161521Y-94327206D01*
X126200000Y-93365685D02*
X126200000Y-89462744D01*
X138250000Y-74787259D02*
X136200000Y-72737255D01*
X136200001Y-68702151D02*
X136451076Y-68451076D01*
%TO.N,E-INK_BUSY*%
X138113480Y-78113478D02*
X138650000Y-77576957D01*
X127594117Y-93800000D02*
X127521323Y-93727206D01*
X126600000Y-89628430D02*
X138113480Y-78114950D01*
X136600000Y-72571570D02*
X136600000Y-68867837D01*
X138650000Y-77576957D02*
X138650000Y-74621574D01*
X128062519Y-94455023D02*
X128062519Y-94262519D01*
X127600000Y-93800000D02*
X127594117Y-93800000D01*
X127127206Y-93727206D02*
X126600000Y-93200000D01*
X138650000Y-74621574D02*
X136600000Y-72571570D01*
X137175735Y-68292103D02*
X137175735Y-67424265D01*
X138113480Y-78114950D02*
X138113480Y-78113478D01*
X127521323Y-93727206D02*
X127127206Y-93727206D01*
X136600000Y-68867837D02*
X137175735Y-68292103D01*
X128062519Y-94262519D02*
X127600000Y-93800000D01*
X126600000Y-93200000D02*
X126600000Y-89628430D01*
%TO.N,QSPI_SD3*%
X141400000Y-87034316D02*
X141400000Y-87060000D01*
X140872793Y-95975735D02*
X141224265Y-95975735D01*
X141424265Y-92389951D02*
X139800000Y-90765685D01*
X141224265Y-95975735D02*
X141424265Y-95775735D01*
X138524264Y-98324264D02*
X140872793Y-95975735D01*
X139800000Y-88634314D02*
X141399998Y-87034316D01*
X141424265Y-95775735D02*
X141424265Y-92389951D01*
X139800000Y-90765685D02*
X139800000Y-88634314D01*
X141399998Y-87034316D02*
X141400000Y-87034316D01*
%TO.N,QSPI_SCLK*%
X140886259Y-97900475D02*
X141824265Y-96962469D01*
X141824265Y-92224265D02*
X140200000Y-90600000D01*
X140200000Y-90600000D02*
X140200000Y-88800000D01*
X140670000Y-88330000D02*
X141400000Y-88330000D01*
X141824265Y-96962469D02*
X141824265Y-92224265D01*
X140200000Y-88800000D02*
X140670000Y-88330000D01*
%TO.N,QSPI_SD0*%
X141451946Y-98466162D02*
X142224265Y-97693843D01*
X142224265Y-92058579D02*
X141400000Y-91234314D01*
X141400000Y-91234314D02*
X141400000Y-89600000D01*
X142224265Y-97693843D02*
X142224265Y-92058579D01*
%TO.N,QSPI_SD2*%
X149330000Y-88330000D02*
X148575000Y-88330000D01*
X149800000Y-91249483D02*
X149800000Y-88800000D01*
X142017634Y-99031849D02*
X149800000Y-91249483D01*
X149800000Y-88800000D02*
X149330000Y-88330000D01*
%TO.N,QSPI_SD1*%
X150200000Y-91980858D02*
X150200000Y-87800000D01*
X142583321Y-99597537D02*
X150200000Y-91980858D01*
X149460000Y-87060000D02*
X148575000Y-87060000D01*
X150200000Y-87800000D02*
X149460000Y-87060000D01*
%TD*%
M02*
