%TF.GenerationSoftware,KiCad,Pcbnew,10.0.4*%
%TF.CreationDate,2026-09-22T10:47:11+02:00*%
%TF.ProjectId,UHBadge,55484261-6467-4652-9e6b-696361645f70,1.0.0*%
%TF.SameCoordinates,Original*%
%TF.FileFunction,Copper,L1,Top*%
%TF.FilePolarity,Positive*%
%FSLAX46Y46*%
G04 Gerber Fmt 4.6, Leading zero omitted, Abs format (unit mm)*
G04 Created by KiCad (PCBNEW 10.0.4) date 2026-09-22 10:47:11*
%MOMM*%
%LPD*%
G01*
G04 APERTURE LIST*
G04 Aperture macros list*
%AMRoundRect*
0 Rectangle with rounded corners*
0 $1 Rounding radius*
0 $2 $3 $4 $5 $6 $7 $8 $9 X,Y pos of 4 corners*
0 Add a 4 corners polygon primitive as box body*
4,1,4,$2,$3,$4,$5,$6,$7,$8,$9,$2,$3,0*
0 Add four circle primitives for the rounded corners*
1,1,$1+$1,$2,$3*
1,1,$1+$1,$4,$5*
1,1,$1+$1,$6,$7*
1,1,$1+$1,$8,$9*
0 Add four rect primitives between the rounded corners*
20,1,$1+$1,$2,$3,$4,$5,0*
20,1,$1+$1,$4,$5,$6,$7,0*
20,1,$1+$1,$6,$7,$8,$9,0*
20,1,$1+$1,$8,$9,$2,$3,0*%
G04 Aperture macros list end*
%TA.AperFunction,SMDPad,CuDef*%
%ADD10RoundRect,0.250000X-0.475000X-0.250000X0.475000X-0.250000X0.475000X0.250000X-0.475000X0.250000X0*%
%TD*%
%TA.AperFunction,SMDPad,CuDef*%
%ADD11RoundRect,0.250000X0.250000X-0.475000X0.250000X0.475000X-0.250000X0.475000X-0.250000X-0.475000X0*%
%TD*%
%TA.AperFunction,ComponentPad*%
%ADD12C,0.700000*%
%TD*%
%TA.AperFunction,ComponentPad*%
%ADD13C,4.400000*%
%TD*%
%TA.AperFunction,ComponentPad*%
%ADD14O,1.800000X1.000000*%
%TD*%
%TA.AperFunction,ComponentPad*%
%ADD15O,2.100000X1.000000*%
%TD*%
%TA.AperFunction,ComponentPad*%
%ADD16C,0.450000*%
%TD*%
%TA.AperFunction,ViaPad*%
%ADD17C,0.600000*%
%TD*%
%TA.AperFunction,Conductor*%
%ADD18C,0.200000*%
%TD*%
G04 APERTURE END LIST*
D10*
%TO.P,SW7,1,1_1*%
%TO.N,CONFIRM*%
X147450000Y-148300000D03*
X152600000Y-148300000D03*
%TO.P,SW7,2,2_2*%
%TO.N,-BATT*%
X147450000Y-150000000D03*
X152600000Y-150000000D03*
%TD*%
%TO.P,SW6,1,1_1*%
%TO.N,RIGHT*%
X130000000Y-148300000D03*
X135150000Y-148300000D03*
%TO.P,SW6,2,2_2*%
%TO.N,-BATT*%
X130000000Y-150000000D03*
X135150000Y-150000000D03*
%TD*%
D11*
%TO.P,SW4,1,1_1*%
%TO.N,DOWN*%
X111650000Y-145000000D03*
X111650000Y-139850000D03*
%TO.P,SW4,2,2_2*%
%TO.N,-BATT*%
X113350000Y-145000000D03*
X113350000Y-139850000D03*
%TD*%
%TO.P,SW3,1,1_1*%
%TO.N,UP*%
X111650000Y-132575000D03*
X111650000Y-127425000D03*
%TO.P,SW3,2,2_2*%
%TO.N,-BATT*%
X113350000Y-132575000D03*
X113350000Y-127425000D03*
%TD*%
D12*
%TO.P,H3,1,1_1*%
%TO.N,-BATT*%
X160950000Y-152600000D03*
X161433274Y-151433274D03*
X161433274Y-153766726D03*
X162600000Y-150950000D03*
D13*
X162600000Y-152600000D03*
D12*
X162600000Y-154250000D03*
X163766726Y-151433274D03*
X163766726Y-153766726D03*
X164250000Y-152600000D03*
%TD*%
%TO.P,H2,1,1_1*%
%TO.N,-BATT*%
X105750000Y-57400000D03*
X106233274Y-56233274D03*
X106233274Y-58566726D03*
X107400000Y-55750000D03*
D13*
X107400000Y-57400000D03*
D12*
X107400000Y-59050000D03*
X108566726Y-56233274D03*
X108566726Y-58566726D03*
X109050000Y-57400000D03*
%TD*%
%TO.P,H1,1,1_1*%
%TO.N,-BATT*%
X160950000Y-57400000D03*
X161433274Y-56233274D03*
X161433274Y-58566726D03*
X162600000Y-55750000D03*
D13*
X162600000Y-57400000D03*
D12*
X162600000Y-59050000D03*
X163766726Y-56233274D03*
X163766726Y-58566726D03*
X164250000Y-57400000D03*
%TD*%
%TO.P,H4,1,1_1*%
%TO.N,-BATT*%
X105750000Y-152600000D03*
X106233274Y-151433274D03*
X106233274Y-153766726D03*
X107400000Y-150950000D03*
D13*
X107400000Y-152600000D03*
D12*
X107400000Y-154250000D03*
X108566726Y-151433274D03*
X108566726Y-153766726D03*
X109050000Y-152600000D03*
%TD*%
D10*
%TO.P,SW5,1,1_1*%
%TO.N,LEFT*%
X117500000Y-148300000D03*
X122650000Y-148300000D03*
%TO.P,SW5,2,2_2*%
%TO.N,-BATT*%
X117500000Y-150000000D03*
X122650000Y-150000000D03*
%TD*%
D14*
%TO.P,P1,SH,SHIELD_SH*%
%TO.N,-BATT*%
X167400000Y-100680000D03*
D15*
X163220000Y-100680000D03*
D14*
X167400000Y-109320000D03*
D15*
X163220000Y-109320000D03*
%TD*%
D16*
%TO.P,L2,1,1_1*%
%TO.N,Net-(U6-AC0)*%
X168600000Y-111841500D03*
%TO.P,L2,2,2_2*%
%TO.N,Net-(U6-AC1)*%
X163760000Y-117121500D03*
%TD*%
D17*
%TO.N,*%
X104800000Y-148000000D03*
X108000000Y-64000000D03*
X126000000Y-62400000D03*
X162000000Y-64000000D03*
X145400000Y-56000000D03*
X124400000Y-57000000D03*
X145600000Y-57000000D03*
X144000000Y-62400000D03*
X124600000Y-56000000D03*
X102400000Y-67800000D03*
X165200000Y-148000000D03*
%TO.N,CONFIRM*%
X139400000Y-132400000D03*
X121992892Y-107607108D03*
X121799997Y-104385790D03*
X122400000Y-93707179D03*
X132600000Y-117200000D03*
X139400000Y-119200000D03*
X124599991Y-112399991D03*
X131400000Y-117200000D03*
X150000000Y-148300000D03*
%TO.N,-BATT*%
X129570171Y-105248993D03*
X139651430Y-107437290D03*
X135000000Y-99400000D03*
X119200000Y-108600000D03*
X127600000Y-67250000D03*
X147400000Y-111600000D03*
X127800000Y-142800000D03*
X113350000Y-130000000D03*
X120800000Y-126400000D03*
X135000000Y-102600000D03*
X142400000Y-67250000D03*
X119575735Y-101975735D03*
X127600000Y-68200000D03*
X117462500Y-126462500D03*
X150000000Y-150000000D03*
X141514142Y-105700001D03*
X135800000Y-101800000D03*
X136000000Y-93000000D03*
X149200000Y-119800000D03*
X121700000Y-125462500D03*
X132600000Y-150000000D03*
X134200000Y-100200000D03*
X134200000Y-101800000D03*
X113350000Y-142400000D03*
X138542781Y-94948532D03*
X120000000Y-150000000D03*
X120800000Y-124600000D03*
X135000000Y-65400000D03*
X142400000Y-66400000D03*
X135000000Y-101000000D03*
X127600000Y-66200000D03*
X122600000Y-126400000D03*
X123259231Y-105800000D03*
X132800000Y-133800000D03*
X136600000Y-101000000D03*
X125321178Y-105800000D03*
X143400000Y-103400000D03*
X151200000Y-93075735D03*
X121424265Y-150424265D03*
X140800000Y-101000000D03*
X135000000Y-133800000D03*
X137800000Y-91000000D03*
X151200000Y-94900000D03*
X133400000Y-101000000D03*
X122600000Y-124600000D03*
X131800000Y-92600000D03*
X131107070Y-107492930D03*
X135800000Y-100200000D03*
X142400000Y-68200000D03*
X118400000Y-120200000D03*
X121800000Y-120120000D03*
X129000000Y-95000000D03*
X124800000Y-125462500D03*
%TO.N,RIGHT*%
X122200000Y-112999991D03*
X131600000Y-148300000D03*
X139540191Y-108688720D03*
%TO.N,DOWN*%
X141309936Y-109155879D03*
X122200000Y-114599997D03*
X111650000Y-142600000D03*
%TO.N,UP*%
X141916825Y-108634645D03*
X111650000Y-130000000D03*
X122200000Y-115400000D03*
%TO.N,LEFT*%
X120000000Y-148300000D03*
X140144250Y-109378563D03*
X122200000Y-113799994D03*
%TO.N,GPIO24*%
X122000000Y-94400000D03*
X121810051Y-99610051D03*
X125900000Y-98348528D03*
X124800000Y-95781371D03*
%TO.N,GPIO25*%
X130444400Y-97600000D03*
X127785692Y-94041692D03*
%TO.N,GPIO23*%
X125334313Y-98914216D03*
X124839712Y-96580387D03*
%TO.N,+3V3*%
X133750000Y-71000000D03*
X119175735Y-114775735D03*
X123503603Y-122232132D03*
X141891142Y-102642615D03*
X129239411Y-97639411D03*
X132000000Y-126000000D03*
X127800000Y-121800000D03*
X139200000Y-92048529D03*
X131689950Y-111089950D03*
X130275735Y-109630825D03*
X130000000Y-96200000D03*
X145200000Y-117151470D03*
X139800000Y-82200000D03*
X145400000Y-119800000D03*
X137821474Y-105827055D03*
X133600000Y-95200000D03*
X129400000Y-101401358D03*
X125000000Y-122200000D03*
X138800000Y-80250000D03*
X146300000Y-115100000D03*
X132506560Y-107400000D03*
X146200000Y-98400000D03*
%TO.N,ADC1*%
X120400000Y-98000000D03*
X127800000Y-144600000D03*
%TO.N,+1V1*%
X137498747Y-96603388D03*
X140475735Y-93800000D03*
X130739411Y-105060589D03*
X139437402Y-104023187D03*
X144704646Y-99456116D03*
X131539411Y-96739411D03*
%TO.N,Net-(U1-VREG_LX)*%
X138148529Y-93948529D03*
X136289052Y-95571537D03*
%TO.N,SWCLK*%
X141824263Y-117775734D03*
X127512112Y-104225571D03*
X133575726Y-111175726D03*
X143639933Y-143400884D03*
%TO.N,NFC_SCL*%
X143400000Y-118000000D03*
X145200000Y-118010003D03*
%TO.N,USB_C_D-*%
X150400000Y-106250000D03*
X154862500Y-106800000D03*
X157137500Y-106800000D03*
X150400000Y-105008578D03*
%TO.N,E-INK_VGL*%
X127250000Y-71600000D03*
X125450000Y-75200000D03*
%TO.N,USB_C_VBUS*%
X149000000Y-107400000D03*
X121800000Y-122000000D03*
X129407108Y-121992892D03*
X126000000Y-134275000D03*
X125000000Y-124026886D03*
X130489950Y-120641420D03*
%TO.N,USB_C_D+*%
X154850000Y-103200000D03*
X157137500Y-103200000D03*
%TO.N,SD-DAT2*%
X124000000Y-89800000D03*
X134834313Y-88834313D03*
X147269769Y-77681701D03*
X125259231Y-100510688D03*
%TO.N,SD-DAT3*%
X125259231Y-99710685D03*
X148200000Y-77600000D03*
X124000000Y-90600000D03*
X135400000Y-89400000D03*
%TO.N,SD-CMD*%
X151055000Y-73545000D03*
X142799952Y-107792902D03*
%TO.N,SD-CLK*%
X142807071Y-106992931D03*
X151000000Y-71345000D03*
%TO.N,SD-DAT0*%
X147375735Y-69175735D03*
X125259231Y-102110694D03*
X133702939Y-87702939D03*
X124000000Y-88199994D03*
%TO.N,SD-DAT1*%
X124000000Y-88999997D03*
X125259231Y-101310691D03*
X149355000Y-68045000D03*
X134268626Y-88268626D03*
%TO.N,NFC_GPO*%
X143200000Y-115110000D03*
X142717157Y-117082843D03*
%TO.N,GPIO0*%
X142041692Y-143450337D03*
X143000000Y-114200000D03*
%TO.N,QSPI_SS*%
X152600000Y-85800000D03*
X143149008Y-100163224D03*
%TO.N,RUN*%
X142800000Y-108600000D03*
X147424265Y-102175735D03*
X138537259Y-110600000D03*
X134685789Y-106748533D03*
X129319247Y-103600000D03*
X140709936Y-109944252D03*
%TO.N,Net-(U6-AC0)*%
X151775735Y-117424265D03*
X152380465Y-111400000D03*
%TO.N,Net-(U6-AC1)*%
X151780465Y-118360000D03*
%TO.N,GPIO1*%
X142175735Y-114175735D03*
X141359528Y-143032418D03*
%TO.N,Net-(D7-A)*%
X131210000Y-78560000D03*
%TO.N,E-INK_VGH*%
X129999265Y-71599265D03*
X135000000Y-76500000D03*
%TO.N,unconnected-(U6-NC-Pad13)*%
X147800000Y-118200000D03*
X147800000Y-117400000D03*
X147800000Y-116600000D03*
%TO.N,E-INK_SDA*%
X127222959Y-102625571D03*
X133257210Y-67955531D03*
%TO.N,E-INK_SCL*%
X128000000Y-102002718D03*
X134055827Y-68002602D03*
%TO.N,E-INK_CS*%
X128579665Y-101434893D03*
X134854922Y-68040706D03*
%TO.N,E-INK_D{slash}C*%
X127275736Y-96441422D03*
X135650104Y-67953047D03*
%TO.N,E-INK_RST*%
X136451076Y-67763195D03*
X127172794Y-94627206D03*
%TO.N,E-INK_BUSY*%
X137175735Y-67424265D03*
X127072794Y-93678676D03*
%TO.N,SWDIO*%
X128320500Y-104025571D03*
X141800000Y-118600000D03*
X132975728Y-111775725D03*
X142839938Y-143397349D03*
%TO.N,GPIO2*%
X140715544Y-142557772D03*
X141600000Y-113620282D03*
%TO.N,GPIO3*%
X141600000Y-112771755D03*
X140000000Y-142200000D03*
%TO.N,ADC0*%
X121224265Y-97975736D03*
X128792892Y-144607108D03*
%TO.N,QSPI_SD3*%
X138623986Y-98224544D03*
X139800000Y-87060000D03*
%TO.N,QSPI_SCLK*%
X139800000Y-88330000D03*
X140886259Y-97900475D03*
%TO.N,QSPI_SD0*%
X141451946Y-98466162D03*
X141400000Y-90600000D03*
%TO.N,QSPI_SD2*%
X142017634Y-99031849D03*
X150000000Y-88330000D03*
%TO.N,QSPI_SD1*%
X150000000Y-87060000D03*
X142583321Y-99597537D03*
%TD*%
%TO.N,CONFIRM*%
D18*
X147450000Y-148300000D02*
X150000000Y-148300000D01*
X139600000Y-132200000D02*
X139400000Y-132400000D01*
X124599991Y-112399991D02*
X121992892Y-109792892D01*
X152600000Y-148300000D02*
X150000000Y-148300000D01*
X139400000Y-119200000D02*
X139600000Y-119400000D01*
X122600000Y-99800000D02*
X121799997Y-100600003D01*
X122400000Y-93707179D02*
X122600000Y-93907179D01*
X139600000Y-119400000D02*
X139600000Y-132200000D01*
X121799997Y-104399997D02*
X121799997Y-104385790D01*
X121799997Y-100600003D02*
X121799997Y-104399997D01*
X121992892Y-109792892D02*
X121992892Y-107607108D01*
X122600000Y-93907179D02*
X122600000Y-99800000D01*
X132600000Y-117200000D02*
X131400000Y-117200000D01*
%TO.N,-BATT*%
X152600000Y-150000000D02*
X150000000Y-150000000D01*
X121800000Y-120120000D02*
X118480000Y-120120000D01*
X137800000Y-91551471D02*
X137800000Y-91000000D01*
X150000000Y-150000000D02*
X147450000Y-150000000D01*
X120399997Y-107400003D02*
X119200000Y-108600000D01*
X132600000Y-150000000D02*
X130000000Y-150000000D01*
X120399997Y-102799997D02*
X120399997Y-107400003D01*
X118480000Y-120120000D02*
X118400000Y-120200000D01*
X119575735Y-101975735D02*
X120399997Y-102799997D01*
X138542781Y-94948532D02*
X138800000Y-94691313D01*
X131107070Y-107492930D02*
X131107070Y-107507070D01*
X113350000Y-139850000D02*
X113350000Y-142400000D01*
X131107070Y-107507070D02*
X131121178Y-107521178D01*
X122225735Y-150424265D02*
X122650000Y-150000000D01*
X121424265Y-150424265D02*
X122225735Y-150424265D01*
X122650000Y-150000000D02*
X120000000Y-150000000D01*
X138800000Y-94691313D02*
X138800000Y-92551471D01*
X120000000Y-150000000D02*
X117500000Y-150000000D01*
X113350000Y-130000000D02*
X113350000Y-132575000D01*
X113350000Y-142400000D02*
X113350000Y-145000000D01*
X131121178Y-107521178D02*
X131200000Y-107521178D01*
X135150000Y-150000000D02*
X132600000Y-150000000D01*
X151200000Y-93075735D02*
X151200000Y-94900000D01*
X138800000Y-92551471D02*
X137800000Y-91551471D01*
X113350000Y-127425000D02*
X113350000Y-130000000D01*
X135000000Y-133800000D02*
X132800000Y-133800000D01*
%TO.N,RIGHT*%
X130000000Y-148300000D02*
X131600000Y-148300000D01*
X131600000Y-148300000D02*
X135150000Y-148300000D01*
X138718894Y-108688720D02*
X137007614Y-110400000D01*
X132599988Y-112999991D02*
X122200000Y-112999991D01*
X139540191Y-108688720D02*
X138718894Y-108688720D01*
X135199980Y-110400000D02*
X132599988Y-112999991D01*
X137007614Y-110400000D02*
X135199980Y-110400000D01*
%TO.N,DOWN*%
X132131354Y-114599997D02*
X122200000Y-114599997D01*
X111650000Y-142600000D02*
X111650000Y-139850000D01*
X141309936Y-110324378D02*
X140434314Y-111200000D01*
X140434314Y-111200000D02*
X135531352Y-111200000D01*
X141309936Y-109155879D02*
X141309936Y-110324378D01*
X135531352Y-111200000D02*
X132131354Y-114599997D01*
X111650000Y-145000000D02*
X111650000Y-142600000D01*
%TO.N,UP*%
X140600000Y-111600000D02*
X135697037Y-111600000D01*
X141916825Y-108634645D02*
X141916825Y-110283175D01*
X111650000Y-130000000D02*
X111650000Y-132575000D01*
X131897037Y-115400000D02*
X122200000Y-115400000D01*
X111650000Y-127450000D02*
X111650000Y-130000000D01*
X135697037Y-111600000D02*
X131897037Y-115400000D01*
X141916825Y-110283175D02*
X140600000Y-111600000D01*
X111650000Y-127425000D02*
X111650000Y-127450000D01*
%TO.N,LEFT*%
X120000000Y-148300000D02*
X117500000Y-148300000D01*
X138877580Y-109378563D02*
X137456143Y-110800000D01*
X140144250Y-109378563D02*
X138877580Y-109378563D01*
X135365666Y-110800000D02*
X132365671Y-113799994D01*
X132365671Y-113799994D02*
X122200000Y-113799994D01*
X137456143Y-110800000D02*
X135365666Y-110800000D01*
X122650000Y-148300000D02*
X120000000Y-148300000D01*
%TO.N,GPIO24*%
X122200000Y-99220102D02*
X121810051Y-99610051D01*
X124800000Y-95781371D02*
X125181371Y-95781371D01*
X122000000Y-94400000D02*
X122200000Y-94600000D01*
X122200000Y-94600000D02*
X122200000Y-99220102D01*
X125475736Y-97924266D02*
X125900000Y-98348528D01*
X125475736Y-96075736D02*
X125475736Y-97924266D01*
X125181371Y-95781371D02*
X125475736Y-96075736D01*
%TO.N,GPIO25*%
X127785692Y-94041692D02*
X127785692Y-94941292D01*
X127785692Y-94941292D02*
X130444400Y-97600000D01*
%TO.N,GPIO23*%
X124839712Y-96580387D02*
X124839712Y-98419615D01*
X124839712Y-98419615D02*
X125334313Y-98914216D01*
%TO.N,+3V3*%
X130275735Y-109630825D02*
X130275735Y-109675735D01*
X132906560Y-107800000D02*
X132506560Y-107400000D01*
X138800000Y-80250000D02*
X138800000Y-81250000D01*
X145200000Y-116200000D02*
X145200000Y-117151470D01*
X146200000Y-99448529D02*
X146200000Y-98400000D01*
X130275735Y-109675735D02*
X131689950Y-111089950D01*
X137821474Y-105827055D02*
X135848529Y-107800000D01*
X125068628Y-117200000D02*
X127800000Y-119931372D01*
X119175735Y-114775735D02*
X121600000Y-117200000D01*
X128739411Y-98139411D02*
X128739411Y-100740769D01*
X130000000Y-96008042D02*
X130000000Y-96200000D01*
X135848529Y-107800000D02*
X132906560Y-107800000D01*
X143005914Y-102642615D02*
X146200000Y-99448529D01*
X141891142Y-102642615D02*
X138706702Y-105827055D01*
X145800000Y-117751470D02*
X145800000Y-118600000D01*
X127800000Y-119931372D02*
X127800000Y-121800000D01*
X139750000Y-82200000D02*
X139800000Y-82200000D01*
X129239411Y-97639411D02*
X128739411Y-98139411D01*
X138800000Y-81250000D02*
X139750000Y-82200000D01*
X141891142Y-102642615D02*
X143005914Y-102642615D01*
X138706702Y-105827055D02*
X137821474Y-105827055D01*
X128739411Y-100740769D02*
X129400000Y-101401358D01*
X145400000Y-119000000D02*
X145400000Y-119800000D01*
X133600000Y-95200000D02*
X130808042Y-95200000D01*
X145800000Y-118600000D02*
X145400000Y-119000000D01*
X121600000Y-117200000D02*
X125068628Y-117200000D01*
X146300000Y-115100000D02*
X145200000Y-116200000D01*
X124967868Y-122232132D02*
X125000000Y-122200000D01*
X130808042Y-95200000D02*
X130000000Y-96008042D01*
X145200000Y-117151470D02*
X145800000Y-117751470D01*
X123503603Y-122232132D02*
X124967868Y-122232132D01*
%TO.N,ADC1*%
X130200000Y-121765686D02*
X125234314Y-116800000D01*
X128600000Y-142000000D02*
X130200000Y-140400000D01*
X120799997Y-98399997D02*
X120400000Y-98000000D01*
X125234314Y-116800000D02*
X122185785Y-116800000D01*
X127800000Y-144600000D02*
X128600000Y-143800000D01*
X128600000Y-143800000D02*
X128600000Y-142000000D01*
X122185785Y-116800000D02*
X120799997Y-115414212D01*
X130200000Y-140400000D02*
X130200000Y-121765686D01*
X120799997Y-115414212D02*
X120799997Y-98399997D01*
%TO.N,+1V1*%
X139437402Y-104023187D02*
X138776813Y-104023187D01*
X137498747Y-96603388D02*
X137736454Y-96603388D01*
X138776813Y-104023187D02*
X135400000Y-107400000D01*
X140475735Y-93864107D02*
X140475735Y-93800000D01*
X132527351Y-105600000D02*
X131278822Y-105600000D01*
X137095359Y-96200000D02*
X132078822Y-96200000D01*
X142660589Y-100800000D02*
X139437402Y-104023187D01*
X143360762Y-100800000D02*
X142660589Y-100800000D01*
X132078822Y-96200000D02*
X131539411Y-96739411D01*
X144704646Y-99456116D02*
X143360762Y-100800000D01*
X134327351Y-107400000D02*
X132527351Y-105600000D01*
X137736454Y-96603388D02*
X140475735Y-93864107D01*
X131278822Y-105600000D02*
X130739411Y-105060589D01*
X137498747Y-96603388D02*
X137095359Y-96200000D01*
X135400000Y-107400000D02*
X134327351Y-107400000D01*
%TO.N,Net-(U1-VREG_LX)*%
X137851471Y-93948529D02*
X136289052Y-95510948D01*
X138148529Y-93948529D02*
X137851471Y-93948529D01*
X136289052Y-95510948D02*
X136289052Y-95571537D01*
%TO.N,SWCLK*%
X143639933Y-143400884D02*
X143639933Y-142639933D01*
X143639933Y-142639933D02*
X142000000Y-141000000D01*
X142000000Y-141000000D02*
X142000000Y-119400000D01*
X142400000Y-119000000D02*
X142400000Y-118351471D01*
X124800000Y-109000000D02*
X124800000Y-110000000D01*
X127512112Y-104225571D02*
X127183162Y-103896621D01*
X131938479Y-111689950D02*
X132452703Y-111175726D01*
X122200000Y-106400000D02*
X124800000Y-109000000D01*
X142400000Y-118351471D02*
X141824263Y-117775734D01*
X142000000Y-119400000D02*
X142400000Y-119000000D01*
X127183162Y-103896621D02*
X123703379Y-103896621D01*
X126489950Y-111689950D02*
X131938479Y-111689950D01*
X122200000Y-105400000D02*
X122200000Y-106400000D01*
X123703379Y-103896621D02*
X122200000Y-105400000D01*
X132452703Y-111175726D02*
X133575726Y-111175726D01*
X124800000Y-110000000D02*
X126489950Y-111689950D01*
%TO.N,NFC_SCL*%
X143400000Y-118000000D02*
X143410003Y-118010003D01*
X143410003Y-118010003D02*
X145200000Y-118010003D01*
%TO.N,USB_C_D-*%
X154862500Y-106800000D02*
X157137500Y-106800000D01*
X150400000Y-105008578D02*
X150400000Y-106250000D01*
%TO.N,E-INK_VGL*%
X125450000Y-72250000D02*
X125450000Y-75200000D01*
X127250000Y-71600000D02*
X126100000Y-71600000D01*
X126100000Y-71600000D02*
X125450000Y-72250000D01*
%TO.N,USB_C_VBUS*%
X121800000Y-122000000D02*
X122300000Y-122000000D01*
X149000000Y-107400000D02*
X144400000Y-112000000D01*
X144400000Y-112000000D02*
X139131370Y-112000000D01*
X129407108Y-129467892D02*
X129407108Y-121992892D01*
X126000000Y-132875000D02*
X129407108Y-129467892D01*
X139131370Y-112000000D02*
X130489950Y-120641420D01*
X122300000Y-122000000D02*
X124326886Y-124026886D01*
X126000000Y-134275000D02*
X126000000Y-132875000D01*
X124326886Y-124026886D02*
X125000000Y-124026886D01*
%TO.N,USB_C_D+*%
X157137500Y-103200000D02*
X154850000Y-103200000D01*
%TO.N,SD-DAT2*%
X134868626Y-87668624D02*
X138937251Y-83600000D01*
X123951471Y-89800000D02*
X124000000Y-89800000D01*
X123800000Y-91400000D02*
X123400000Y-91000000D01*
X125259231Y-100510688D02*
X125110688Y-100510688D01*
X134868626Y-88800000D02*
X134868626Y-87668624D01*
X123400000Y-90351471D02*
X123951471Y-89800000D01*
X141351470Y-83600000D02*
X147269769Y-77681701D01*
X134834313Y-88834313D02*
X134868626Y-88800000D01*
X123800000Y-99200000D02*
X123800000Y-91400000D01*
X125110688Y-100510688D02*
X123800000Y-99200000D01*
X138937251Y-83600000D02*
X141351470Y-83600000D01*
X123400000Y-91000000D02*
X123400000Y-90351471D01*
%TO.N,SD-DAT3*%
X135434313Y-87668623D02*
X139102936Y-84000000D01*
X124200000Y-98651454D02*
X124200000Y-90800000D01*
X141800000Y-84000000D02*
X148200000Y-77600000D01*
X135434313Y-89365687D02*
X135434313Y-87668623D01*
X139102936Y-84000000D02*
X141800000Y-84000000D01*
X124200000Y-90800000D02*
X124000000Y-90600000D01*
X135400000Y-89400000D02*
X135434313Y-89365687D01*
X125259231Y-99710685D02*
X124200000Y-98651454D01*
%TO.N,SD-CMD*%
X150800000Y-73800000D02*
X150800000Y-82000000D01*
X143221312Y-107792902D02*
X142799952Y-107792902D01*
X151055000Y-73545000D02*
X150800000Y-73800000D01*
X153800000Y-86600000D02*
X152200000Y-88200000D01*
X152200000Y-98814215D02*
X143221312Y-107792902D01*
X153800000Y-85000000D02*
X153800000Y-86600000D01*
X150800000Y-82000000D02*
X153800000Y-85000000D01*
X152200000Y-88200000D02*
X152200000Y-98814215D01*
%TO.N,SD-CLK*%
X153400000Y-85165686D02*
X153400000Y-86434315D01*
X151800000Y-98648529D02*
X143455597Y-106992931D01*
X153400000Y-86434315D02*
X151800000Y-88034315D01*
X150400000Y-82165686D02*
X153400000Y-85165686D01*
X143455597Y-106992931D02*
X142807071Y-106992931D01*
X150400000Y-71945000D02*
X150400000Y-82165686D01*
X151800000Y-88034315D02*
X151800000Y-98648529D01*
X151000000Y-71345000D02*
X150400000Y-71945000D01*
%TO.N,SD-DAT0*%
X123000000Y-100000000D02*
X123000000Y-91731371D01*
X122600000Y-91331370D02*
X122600000Y-89551468D01*
X125259231Y-102110694D02*
X125110694Y-102110694D01*
X146269769Y-77330231D02*
X140800000Y-82800000D01*
X123000000Y-91731371D02*
X122600000Y-91331370D01*
X138605879Y-82800000D02*
X133702939Y-87702939D01*
X146269769Y-70281701D02*
X146269769Y-77330231D01*
X122600000Y-89551468D02*
X123951474Y-88199994D01*
X125110694Y-102110694D02*
X123000000Y-100000000D01*
X147375735Y-69175735D02*
X146269769Y-70281701D01*
X140800000Y-82800000D02*
X138605879Y-82800000D01*
X123951474Y-88199994D02*
X124000000Y-88199994D01*
%TO.N,SD-DAT1*%
X123400000Y-99499986D02*
X123400000Y-91565686D01*
X146669769Y-77495917D02*
X140965686Y-83200000D01*
X123000000Y-89951471D02*
X123951474Y-88999997D01*
X149355000Y-68045000D02*
X146669769Y-70730231D01*
X125259231Y-101310691D02*
X125210705Y-101310691D01*
X140965686Y-83200000D02*
X138771564Y-83200000D01*
X134302939Y-88234313D02*
X134268626Y-88268626D01*
X146669769Y-70730231D02*
X146669769Y-77495917D01*
X125210705Y-101310691D02*
X123400000Y-99499986D01*
X123400000Y-91565686D02*
X123000000Y-91165685D01*
X123951474Y-88999997D02*
X124000000Y-88999997D01*
X138771564Y-83200000D02*
X134302939Y-87668625D01*
X123000000Y-91165685D02*
X123000000Y-89951471D01*
X134302939Y-87668625D02*
X134302939Y-88234313D01*
%TO.N,NFC_GPO*%
X142717157Y-116992843D02*
X142717157Y-117082843D01*
X143200000Y-116510000D02*
X142717157Y-116992843D01*
X143200000Y-115110000D02*
X143200000Y-116510000D01*
%TO.N,GPIO0*%
X142041692Y-142261791D02*
X142041692Y-143450337D01*
X143000000Y-114200000D02*
X141200000Y-116000000D01*
X141200000Y-116000000D02*
X141200000Y-141420099D01*
X141200000Y-141420099D02*
X142041692Y-142261791D01*
%TO.N,QSPI_SS*%
X152600000Y-85800000D02*
X151400000Y-87000000D01*
X151400000Y-87000000D02*
X151400000Y-91912232D01*
X151400000Y-91912232D02*
X143149008Y-100163224D01*
%TO.N,RUN*%
X140054188Y-110600000D02*
X138537259Y-110600000D01*
X142000000Y-107841479D02*
X142000000Y-106900000D01*
X146724265Y-102175735D02*
X147424265Y-102175735D01*
X131800000Y-105200000D02*
X132693037Y-105200000D01*
X142000000Y-106900000D02*
X146724265Y-102175735D01*
X134241570Y-106748533D02*
X134685789Y-106748533D01*
X142758521Y-108600000D02*
X142000000Y-107841479D01*
X130200000Y-103600000D02*
X131800000Y-105200000D01*
X132693037Y-105200000D02*
X134241570Y-106748533D01*
X142800000Y-108600000D02*
X142758521Y-108600000D01*
X129319247Y-103600000D02*
X130200000Y-103600000D01*
X140709936Y-109944252D02*
X140054188Y-110600000D01*
%TO.N,Net-(U6-AC0)*%
X151775735Y-112004730D02*
X152380465Y-111400000D01*
X151775735Y-117424265D02*
X151775735Y-112004730D01*
%TO.N,Net-(U6-AC1)*%
X153018965Y-117121500D02*
X163760000Y-117121500D01*
X151780465Y-118360000D02*
X153018965Y-117121500D01*
%TO.N,GPIO1*%
X140800000Y-141585785D02*
X141359528Y-142145313D01*
X140800000Y-115551470D02*
X140800000Y-141585785D01*
X142175735Y-114175735D02*
X140800000Y-115551470D01*
X141359528Y-142145313D02*
X141359528Y-143032418D01*
%TO.N,E-INK_VGH*%
X133000000Y-74500000D02*
X135000000Y-76500000D01*
X133000000Y-72200000D02*
X133000000Y-74500000D01*
X132399265Y-71599265D02*
X133000000Y-72200000D01*
X129999265Y-71599265D02*
X132399265Y-71599265D01*
%TO.N,E-INK_SDA*%
X127222959Y-102177041D02*
X127400000Y-102000000D01*
X127598529Y-85800001D02*
X136650000Y-76748529D01*
X127222959Y-102625571D02*
X127222959Y-102177041D01*
X124600000Y-94600000D02*
X124600000Y-88800000D01*
X134600000Y-69395304D02*
X133257210Y-68052514D01*
X124600000Y-88800000D02*
X127598529Y-85801471D01*
X136650000Y-76748529D02*
X136650000Y-75450000D01*
X127598529Y-85801471D02*
X127598529Y-85800001D01*
X125875736Y-95875736D02*
X124600000Y-94600000D01*
X134600000Y-73399998D02*
X134600000Y-69395304D01*
X133257210Y-68052514D02*
X133257210Y-67955531D01*
X127400000Y-99000000D02*
X125875736Y-97475736D01*
X127400000Y-102000000D02*
X127400000Y-99000000D01*
X125875736Y-97475736D02*
X125875736Y-95875736D01*
X136650000Y-75450000D02*
X134600000Y-73399998D01*
%TO.N,E-INK_SCL*%
X125000000Y-88965686D02*
X127998529Y-85967156D01*
X135000000Y-73234313D02*
X135000000Y-69229618D01*
X137050000Y-75284314D02*
X135000000Y-73234313D01*
X134055827Y-68285445D02*
X134055827Y-68002602D01*
X137050000Y-76914214D02*
X137050000Y-75284314D01*
X127998529Y-85967156D02*
X127998529Y-85965687D01*
X135000000Y-69229618D02*
X134055827Y-68285445D01*
X126275736Y-95710050D02*
X125000000Y-94434313D01*
X125000000Y-94434313D02*
X125000000Y-88965686D01*
X128000000Y-102002718D02*
X128000000Y-101589778D01*
X127998529Y-85965687D02*
X137050000Y-76914214D01*
X126275736Y-97310049D02*
X126275736Y-95710050D01*
X128000000Y-101589778D02*
X127800000Y-101389778D01*
X127800000Y-101389778D02*
X127800000Y-98834314D01*
X127800000Y-98834314D02*
X126275736Y-97310049D01*
%TO.N,E-INK_CS*%
X126675736Y-97144364D02*
X126675736Y-95544364D01*
X125400000Y-94268628D02*
X125400000Y-89131372D01*
X135400000Y-73068628D02*
X135400000Y-69063932D01*
X135400000Y-69063932D02*
X134854922Y-68518855D01*
X137450000Y-75118628D02*
X135400000Y-73068628D01*
X126675736Y-95544364D02*
X125400000Y-94268628D01*
X128200000Y-98668628D02*
X126675736Y-97144364D01*
X128579665Y-101434893D02*
X128200000Y-101055228D01*
X134854922Y-68518855D02*
X134854922Y-68040706D01*
X135264951Y-79264951D02*
X137450000Y-77079899D01*
X135264951Y-79266421D02*
X135264951Y-79264951D01*
X125400000Y-89131372D02*
X135264951Y-79266421D01*
X137450000Y-77079899D02*
X137450000Y-75118628D01*
X128200000Y-101055228D02*
X128200000Y-98668628D01*
%TO.N,E-INK_D{slash}C*%
X137850000Y-74952942D02*
X135800000Y-72902940D01*
X135800000Y-72902940D02*
X135799999Y-68898246D01*
X137850000Y-77245584D02*
X137850000Y-74952942D01*
X136847794Y-78249264D02*
X136847794Y-78247794D01*
X127275736Y-96441422D02*
X127275736Y-95578678D01*
X127275736Y-95578678D02*
X125800000Y-94102942D01*
X125800000Y-94102942D02*
X125800000Y-89297058D01*
X136847794Y-78247794D02*
X137850000Y-77245584D01*
X135650104Y-68748351D02*
X135650104Y-67953047D01*
X125800000Y-89297058D02*
X136847794Y-78249264D01*
X135799999Y-68898246D02*
X135650104Y-68748351D01*
%TO.N,E-INK_RST*%
X137330637Y-78330637D02*
X138250000Y-77411272D01*
X138250000Y-77411272D02*
X138250000Y-74787259D01*
X137330637Y-78332107D02*
X137330637Y-78330637D01*
X127172794Y-94627206D02*
X126200000Y-93654412D01*
X126200000Y-89462744D02*
X137330637Y-78332107D01*
X138250000Y-74787259D02*
X136200000Y-72737255D01*
X126200000Y-93654412D02*
X126200000Y-89462744D01*
X136200000Y-72737255D02*
X136200001Y-68702151D01*
X136451076Y-68451076D02*
X136451076Y-67763195D01*
X136200001Y-68702151D02*
X136451076Y-68451076D01*
%TO.N,E-INK_BUSY*%
X126600000Y-89628430D02*
X138113480Y-78114950D01*
X137175735Y-68292103D02*
X137175735Y-67424265D01*
X138113480Y-78114950D02*
X138113480Y-78113478D01*
X127072794Y-93678676D02*
X127072794Y-93672794D01*
X126600000Y-93200000D02*
X126600000Y-89628430D01*
X136600000Y-68867837D02*
X137175735Y-68292103D01*
X136600000Y-72571570D02*
X136600000Y-68867837D01*
X138650000Y-74621574D02*
X136600000Y-72571570D01*
X127072794Y-93672794D02*
X126600000Y-93200000D01*
X138113480Y-78113478D02*
X138650000Y-77576957D01*
X138650000Y-77576957D02*
X138650000Y-74621574D01*
%TO.N,SWDIO*%
X141800000Y-119034314D02*
X141800000Y-118600000D01*
X124400000Y-109165686D02*
X124400000Y-110165686D01*
X132661503Y-112089950D02*
X132975728Y-111775725D01*
X126324265Y-112089950D02*
X132661503Y-112089950D01*
X127791550Y-103496621D02*
X123537693Y-103496621D01*
X141600000Y-119234315D02*
X141800000Y-119034314D01*
X142839938Y-142439938D02*
X141600000Y-141200000D01*
X124400000Y-110165686D02*
X126324265Y-112089950D01*
X123537693Y-103496621D02*
X121800000Y-105234315D01*
X141600000Y-141200000D02*
X141600000Y-119234315D01*
X121800000Y-106565686D02*
X124400000Y-109165686D01*
X128320500Y-104025571D02*
X127791550Y-103496621D01*
X142839938Y-143397349D02*
X142839938Y-142439938D01*
X121800000Y-105234315D02*
X121800000Y-106565686D01*
%TO.N,GPIO2*%
X140400000Y-141751471D02*
X140715544Y-142067015D01*
X141600000Y-113620282D02*
X140400000Y-114820282D01*
X140400000Y-114820282D02*
X140400000Y-141751471D01*
X140715544Y-142067015D02*
X140715544Y-142557772D01*
%TO.N,GPIO3*%
X141600000Y-112771755D02*
X140000000Y-114371755D01*
X140000000Y-114371755D02*
X140000000Y-142200000D01*
%TO.N,ADC0*%
X129599997Y-141600003D02*
X130600000Y-140600000D01*
X121199997Y-115248526D02*
X121199997Y-97951468D01*
X128792892Y-144607108D02*
X129599997Y-143800003D01*
X129599997Y-143800003D02*
X129599997Y-141600003D01*
X125399999Y-116400000D02*
X122351471Y-116400000D01*
X121199997Y-97951468D02*
X121224265Y-97975736D01*
X130600000Y-140600000D02*
X130600000Y-121600000D01*
X130600000Y-121600000D02*
X125399999Y-116400000D01*
X122351471Y-116400000D02*
X121199997Y-115248526D01*
%TO.N,QSPI_SD3*%
X139200000Y-90000000D02*
X139200000Y-87660000D01*
X141424265Y-95424265D02*
X141424265Y-92224265D01*
X138623986Y-98224544D02*
X141424265Y-95424265D01*
X139200000Y-87660000D02*
X139800000Y-87060000D01*
X141424265Y-92224265D02*
X139200000Y-90000000D01*
%TO.N,QSPI_SCLK*%
X141824265Y-96962469D02*
X140886259Y-97900475D01*
X139800000Y-90000000D02*
X141824265Y-92024265D01*
X139800000Y-88330000D02*
X139800000Y-90000000D01*
X141824265Y-92024265D02*
X141824265Y-96962469D01*
%TO.N,QSPI_SD0*%
X141400000Y-90600000D02*
X142224265Y-91424265D01*
X142224265Y-91424265D02*
X142224265Y-97693843D01*
X142224265Y-97693843D02*
X141451946Y-98466162D01*
%TO.N,QSPI_SD2*%
X150600000Y-90449483D02*
X142017634Y-99031849D01*
X150600000Y-88930000D02*
X150600000Y-90449483D01*
X150000000Y-88330000D02*
X150600000Y-88930000D01*
%TO.N,QSPI_SD1*%
X150000000Y-87060000D02*
X151000000Y-88060000D01*
X151000000Y-88060000D02*
X151000000Y-91180858D01*
X151000000Y-91180858D02*
X142583321Y-99597537D01*
%TD*%
%TA.AperFunction,Conductor*%
%TO.N,-BATT*%
G36*
X148319334Y-109032414D02*
G01*
X148375267Y-109074286D01*
X148399684Y-109139750D01*
X148400000Y-109148596D01*
X148400000Y-113076000D01*
X148380315Y-113143039D01*
X148327511Y-113188794D01*
X148276000Y-113200000D01*
X142474649Y-113200000D01*
X142407610Y-113180315D01*
X142361855Y-113127511D01*
X142351911Y-113058353D01*
X142360088Y-113028548D01*
X142369735Y-113005256D01*
X142369737Y-113005252D01*
X142400500Y-112850597D01*
X142400500Y-112724500D01*
X142420185Y-112657461D01*
X142472989Y-112611706D01*
X142524500Y-112600500D01*
X144313331Y-112600500D01*
X144313347Y-112600501D01*
X144320943Y-112600501D01*
X144479054Y-112600501D01*
X144479057Y-112600501D01*
X144631785Y-112559577D01*
X144701250Y-112519471D01*
X144768716Y-112480520D01*
X144880520Y-112368716D01*
X144880520Y-112368714D01*
X144890724Y-112358511D01*
X144890727Y-112358506D01*
X148188320Y-109060914D01*
X148249642Y-109027430D01*
X148319334Y-109032414D01*
G37*
%TD.AperFunction*%
%TA.AperFunction,Conductor*%
G36*
X148319334Y-95944646D02*
G01*
X148375267Y-95986518D01*
X148399684Y-96051982D01*
X148400000Y-96060828D01*
X148400000Y-101147930D01*
X148380315Y-101214969D01*
X148363681Y-101235611D01*
X148072927Y-101526364D01*
X148011604Y-101559849D01*
X147941912Y-101554865D01*
X147916355Y-101541785D01*
X147803450Y-101466344D01*
X147803437Y-101466337D01*
X147657766Y-101405999D01*
X147657754Y-101405996D01*
X147503110Y-101375235D01*
X147503107Y-101375235D01*
X147345423Y-101375235D01*
X147345420Y-101375235D01*
X147190775Y-101405996D01*
X147190763Y-101405999D01*
X147045092Y-101466337D01*
X147045079Y-101466344D01*
X146913390Y-101554337D01*
X146895343Y-101559987D01*
X146879434Y-101570212D01*
X146848472Y-101574663D01*
X146846712Y-101575215D01*
X146844499Y-101575235D01*
X146810935Y-101575235D01*
X146810919Y-101575234D01*
X146803323Y-101575234D01*
X146645208Y-101575234D01*
X146568844Y-101595696D01*
X146492479Y-101616158D01*
X146492474Y-101616161D01*
X146355555Y-101695210D01*
X146355547Y-101695216D01*
X141519479Y-106531284D01*
X141491797Y-106579232D01*
X141480096Y-106599500D01*
X141440423Y-106668215D01*
X141399499Y-106820943D01*
X141399499Y-106820945D01*
X141399499Y-106989046D01*
X141399500Y-106989059D01*
X141399500Y-107762418D01*
X141399499Y-107762422D01*
X141399499Y-107920536D01*
X141405664Y-107943545D01*
X141406126Y-107957831D01*
X141400807Y-107978377D01*
X141400302Y-107999598D01*
X141391634Y-108013816D01*
X141388618Y-108025472D01*
X141379249Y-108034134D01*
X141369873Y-108049518D01*
X141295035Y-108124356D01*
X141207434Y-108255459D01*
X141207426Y-108255474D01*
X141185567Y-108308246D01*
X141141725Y-108362649D01*
X141095202Y-108382409D01*
X141076440Y-108386141D01*
X141076436Y-108386142D01*
X140930763Y-108446481D01*
X140930750Y-108446488D01*
X140799647Y-108534089D01*
X140799643Y-108534092D01*
X140683839Y-108649897D01*
X140682876Y-108648934D01*
X140630849Y-108684363D01*
X140561004Y-108686225D01*
X140543532Y-108680170D01*
X140533214Y-108675707D01*
X140523429Y-108669169D01*
X140397463Y-108616992D01*
X140396597Y-108616618D01*
X140370430Y-108594853D01*
X140343966Y-108573527D01*
X140343515Y-108572466D01*
X140342880Y-108571938D01*
X140341689Y-108568168D01*
X140324205Y-108527001D01*
X140309928Y-108455223D01*
X140279768Y-108382409D01*
X140249588Y-108309547D01*
X140249581Y-108309534D01*
X140161980Y-108178431D01*
X140161977Y-108178427D01*
X140050483Y-108066933D01*
X140050479Y-108066930D01*
X139919376Y-107979329D01*
X139919363Y-107979322D01*
X139773692Y-107918984D01*
X139773680Y-107918981D01*
X139619036Y-107888220D01*
X139619033Y-107888220D01*
X139461349Y-107888220D01*
X139461346Y-107888220D01*
X139306701Y-107918981D01*
X139306689Y-107918984D01*
X139161018Y-107979322D01*
X139161005Y-107979329D01*
X139029316Y-108067322D01*
X138962638Y-108088200D01*
X138960425Y-108088220D01*
X138639834Y-108088220D01*
X138598913Y-108099184D01*
X138598913Y-108099185D01*
X138561645Y-108109171D01*
X138487108Y-108129143D01*
X138487103Y-108129146D01*
X138350184Y-108208195D01*
X138350176Y-108208201D01*
X138238372Y-108320006D01*
X136795198Y-109763181D01*
X136733875Y-109796666D01*
X136707517Y-109799500D01*
X135279037Y-109799500D01*
X135120923Y-109799500D01*
X134968195Y-109840423D01*
X134968194Y-109840423D01*
X134968192Y-109840424D01*
X134968189Y-109840425D01*
X134926802Y-109864321D01*
X134926800Y-109864322D01*
X134831270Y-109919475D01*
X134831262Y-109919481D01*
X134719458Y-110031286D01*
X134224388Y-110526355D01*
X134163065Y-110559840D01*
X134093373Y-110554856D01*
X134067816Y-110541776D01*
X133954911Y-110466335D01*
X133954898Y-110466328D01*
X133809227Y-110405990D01*
X133809215Y-110405987D01*
X133654571Y-110375226D01*
X133654568Y-110375226D01*
X133496884Y-110375226D01*
X133496881Y-110375226D01*
X133342236Y-110405987D01*
X133342224Y-110405990D01*
X133196553Y-110466328D01*
X133196540Y-110466335D01*
X133064851Y-110554328D01*
X132998173Y-110575206D01*
X132995960Y-110575226D01*
X132531765Y-110575226D01*
X132531761Y-110575225D01*
X132373646Y-110575225D01*
X132370854Y-110575973D01*
X132360011Y-110576021D01*
X132333681Y-110568416D01*
X132306604Y-110564192D01*
X132297924Y-110558088D01*
X132292885Y-110556633D01*
X132288144Y-110551210D01*
X132271783Y-110539705D01*
X132200239Y-110468161D01*
X132200238Y-110468160D01*
X132200237Y-110468159D01*
X132069135Y-110380559D01*
X132069122Y-110380552D01*
X131923451Y-110320214D01*
X131923441Y-110320211D01*
X131768099Y-110289311D01*
X131706188Y-110256926D01*
X131704610Y-110255375D01*
X131112554Y-109663319D01*
X131079069Y-109601996D01*
X131076235Y-109575638D01*
X131076235Y-109551980D01*
X131076234Y-109551978D01*
X131064461Y-109492794D01*
X131045472Y-109397328D01*
X131041737Y-109388311D01*
X130985132Y-109251652D01*
X130985125Y-109251639D01*
X130897524Y-109120536D01*
X130897521Y-109120532D01*
X130786027Y-109009038D01*
X130786023Y-109009035D01*
X130654920Y-108921434D01*
X130654907Y-108921427D01*
X130509236Y-108861089D01*
X130509224Y-108861086D01*
X130354580Y-108830325D01*
X130354577Y-108830325D01*
X130196893Y-108830325D01*
X130196890Y-108830325D01*
X130042245Y-108861086D01*
X130042233Y-108861089D01*
X129896562Y-108921427D01*
X129896549Y-108921434D01*
X129765446Y-109009035D01*
X129765442Y-109009038D01*
X129653948Y-109120532D01*
X129653945Y-109120536D01*
X129566344Y-109251639D01*
X129566337Y-109251652D01*
X129505999Y-109397323D01*
X129505996Y-109397335D01*
X129475235Y-109551978D01*
X129475235Y-109709671D01*
X129505996Y-109864314D01*
X129505998Y-109864322D01*
X129566337Y-110009997D01*
X129566344Y-110010010D01*
X129653945Y-110141113D01*
X129653948Y-110141117D01*
X129765442Y-110252611D01*
X129765446Y-110252614D01*
X129896549Y-110340215D01*
X129896562Y-110340222D01*
X129949700Y-110362232D01*
X130042238Y-110400562D01*
X130141524Y-110420311D01*
X130203431Y-110452694D01*
X130205011Y-110454246D01*
X130628534Y-110877769D01*
X130662019Y-110939092D01*
X130657035Y-111008784D01*
X130615163Y-111064717D01*
X130549699Y-111089134D01*
X130540853Y-111089450D01*
X126790047Y-111089450D01*
X126723008Y-111069765D01*
X126702366Y-111053131D01*
X125436819Y-109787584D01*
X125403334Y-109726261D01*
X125400500Y-109699903D01*
X125400500Y-108920943D01*
X125400383Y-108920504D01*
X125359577Y-108768215D01*
X125319450Y-108698714D01*
X125319450Y-108698712D01*
X125280524Y-108631290D01*
X125280521Y-108631286D01*
X125280520Y-108631284D01*
X125168716Y-108519480D01*
X125168715Y-108519479D01*
X125164385Y-108515149D01*
X125164374Y-108515139D01*
X122836819Y-106187584D01*
X122803334Y-106126261D01*
X122800500Y-106099903D01*
X122800500Y-105700097D01*
X122820185Y-105633058D01*
X122836819Y-105612416D01*
X123915795Y-104533440D01*
X123977118Y-104499955D01*
X124003476Y-104497121D01*
X126675283Y-104497121D01*
X126742322Y-104516806D01*
X126788077Y-104569610D01*
X126789831Y-104573639D01*
X126792390Y-104579815D01*
X126802717Y-104604749D01*
X126802721Y-104604756D01*
X126890322Y-104735859D01*
X126890325Y-104735863D01*
X127001819Y-104847357D01*
X127001823Y-104847360D01*
X127132926Y-104934961D01*
X127132939Y-104934968D01*
X127278610Y-104995306D01*
X127278615Y-104995308D01*
X127433265Y-105026070D01*
X127433268Y-105026071D01*
X127433270Y-105026071D01*
X127590956Y-105026071D01*
X127590957Y-105026070D01*
X127745609Y-104995308D01*
X127891291Y-104934965D01*
X128022401Y-104847360D01*
X128029665Y-104840094D01*
X128090986Y-104806608D01*
X128141539Y-104806156D01*
X128188819Y-104815560D01*
X128241656Y-104826071D01*
X128241658Y-104826071D01*
X128399344Y-104826071D01*
X128399345Y-104826070D01*
X128553997Y-104795308D01*
X128699679Y-104734965D01*
X128830789Y-104647360D01*
X128942289Y-104535860D01*
X129011067Y-104432926D01*
X129064676Y-104388124D01*
X129134001Y-104379416D01*
X129138359Y-104380202D01*
X129240402Y-104400500D01*
X129240405Y-104400500D01*
X129398091Y-104400500D01*
X129398092Y-104400499D01*
X129552744Y-104369737D01*
X129698426Y-104309394D01*
X129698432Y-104309390D01*
X129830122Y-104221398D01*
X129848168Y-104215747D01*
X129864078Y-104205523D01*
X129895039Y-104201071D01*
X129896800Y-104200520D01*
X129899013Y-104200500D01*
X129899903Y-104200500D01*
X129966942Y-104220185D01*
X129987584Y-104236819D01*
X130121662Y-104370897D01*
X130155147Y-104432220D01*
X130150163Y-104501912D01*
X130121667Y-104546254D01*
X130117625Y-104550296D01*
X130117619Y-104550303D01*
X130030020Y-104681403D01*
X130030013Y-104681416D01*
X129969675Y-104827087D01*
X129969672Y-104827099D01*
X129938911Y-104981742D01*
X129938911Y-105139435D01*
X129969672Y-105294078D01*
X129969675Y-105294090D01*
X130030013Y-105439761D01*
X130030020Y-105439774D01*
X130117621Y-105570877D01*
X130117624Y-105570881D01*
X130229118Y-105682375D01*
X130229122Y-105682378D01*
X130360225Y-105769979D01*
X130360238Y-105769986D01*
X130505909Y-105830324D01*
X130505914Y-105830326D01*
X130570558Y-105843184D01*
X130661260Y-105861227D01*
X130678016Y-105869991D01*
X130696496Y-105874012D01*
X130721534Y-105892756D01*
X130723171Y-105893612D01*
X130724750Y-105895163D01*
X130793961Y-105964374D01*
X130793971Y-105964385D01*
X130798301Y-105968715D01*
X130798302Y-105968716D01*
X130910106Y-106080520D01*
X130910108Y-106080521D01*
X130910112Y-106080524D01*
X131032641Y-106151265D01*
X131047038Y-106159577D01*
X131156682Y-106188956D01*
X131156681Y-106188956D01*
X131168225Y-106192048D01*
X131199764Y-106200500D01*
X131199765Y-106200500D01*
X132227254Y-106200500D01*
X132256694Y-106209144D01*
X132286681Y-106215668D01*
X132291696Y-106219422D01*
X132294293Y-106220185D01*
X132314935Y-106236819D01*
X132472115Y-106393999D01*
X132505600Y-106455322D01*
X132500616Y-106525014D01*
X132458744Y-106580947D01*
X132408626Y-106603297D01*
X132273068Y-106630261D01*
X132273058Y-106630264D01*
X132127387Y-106690602D01*
X132127374Y-106690609D01*
X131996271Y-106778210D01*
X131996267Y-106778213D01*
X131884773Y-106889707D01*
X131884770Y-106889711D01*
X131797169Y-107020814D01*
X131797162Y-107020827D01*
X131736824Y-107166498D01*
X131736821Y-107166510D01*
X131706060Y-107321153D01*
X131706060Y-107478846D01*
X131736821Y-107633489D01*
X131736824Y-107633501D01*
X131797162Y-107779172D01*
X131797169Y-107779185D01*
X131884770Y-107910288D01*
X131884773Y-107910292D01*
X131996267Y-108021786D01*
X131996271Y-108021789D01*
X132127374Y-108109390D01*
X132127387Y-108109397D01*
X132253462Y-108161618D01*
X132273063Y-108169737D01*
X132427718Y-108200500D01*
X132428407Y-108200637D01*
X132490318Y-108233022D01*
X132491897Y-108234573D01*
X132537844Y-108280520D01*
X132537846Y-108280521D01*
X132537850Y-108280524D01*
X132667631Y-108355452D01*
X132674776Y-108359577D01*
X132773918Y-108386142D01*
X132773917Y-108386142D01*
X132785240Y-108389176D01*
X132827502Y-108400500D01*
X132827503Y-108400500D01*
X135761860Y-108400500D01*
X135761876Y-108400501D01*
X135769472Y-108400501D01*
X135927583Y-108400501D01*
X135927586Y-108400501D01*
X136080314Y-108359577D01*
X136137573Y-108326518D01*
X136217245Y-108280520D01*
X136329049Y-108168716D01*
X136329049Y-108168714D01*
X136339253Y-108158511D01*
X136339256Y-108158506D01*
X137836138Y-106661626D01*
X137897459Y-106628143D01*
X137899626Y-106627692D01*
X137900315Y-106627555D01*
X137900316Y-106627555D01*
X138054971Y-106596792D01*
X138200653Y-106536449D01*
X138253651Y-106501037D01*
X138332349Y-106448453D01*
X138350395Y-106442802D01*
X138366305Y-106432578D01*
X138397266Y-106428126D01*
X138399027Y-106427575D01*
X138401240Y-106427555D01*
X138620033Y-106427555D01*
X138620049Y-106427556D01*
X138627645Y-106427556D01*
X138785756Y-106427556D01*
X138785759Y-106427556D01*
X138938487Y-106386632D01*
X139015045Y-106342431D01*
X139075418Y-106307575D01*
X139187222Y-106195771D01*
X139187222Y-106195769D01*
X139197426Y-106185566D01*
X139197429Y-106185561D01*
X141905804Y-103477187D01*
X141967125Y-103443704D01*
X141969292Y-103443253D01*
X142027227Y-103431728D01*
X142124639Y-103412352D01*
X142270321Y-103352009D01*
X142327511Y-103313796D01*
X142402017Y-103264013D01*
X142468695Y-103243135D01*
X142470908Y-103243115D01*
X142919245Y-103243115D01*
X142919261Y-103243116D01*
X142926857Y-103243116D01*
X143084968Y-103243116D01*
X143084971Y-103243116D01*
X143237699Y-103202192D01*
X143287818Y-103173254D01*
X143374630Y-103123135D01*
X143486434Y-103011331D01*
X143486434Y-103011329D01*
X143496642Y-103001122D01*
X143496643Y-103001119D01*
X146680520Y-99817245D01*
X146759577Y-99680313D01*
X146800501Y-99527586D01*
X146800501Y-99369471D01*
X146800501Y-99361876D01*
X146800500Y-99361858D01*
X146800500Y-98979765D01*
X146820185Y-98912726D01*
X146821398Y-98910874D01*
X146909390Y-98779185D01*
X146909390Y-98779184D01*
X146909394Y-98779179D01*
X146969737Y-98633497D01*
X147000500Y-98478842D01*
X147000500Y-98321158D01*
X147000500Y-98321155D01*
X147000499Y-98321153D01*
X146990976Y-98273279D01*
X146969737Y-98166503D01*
X146920664Y-98048029D01*
X146909397Y-98020827D01*
X146909390Y-98020814D01*
X146821789Y-97889711D01*
X146821786Y-97889707D01*
X146710292Y-97778213D01*
X146710288Y-97778210D01*
X146639876Y-97731162D01*
X146595071Y-97677550D01*
X146586364Y-97608225D01*
X146616519Y-97545197D01*
X146621067Y-97540399D01*
X148188320Y-95973146D01*
X148249642Y-95939662D01*
X148319334Y-95944646D01*
G37*
%TD.AperFunction*%
%TA.AperFunction,Conductor*%
G36*
X140745169Y-94582661D02*
G01*
X140800345Y-94625525D01*
X140823587Y-94691416D01*
X140823765Y-94698049D01*
X140823765Y-95124167D01*
X140804080Y-95191206D01*
X140787446Y-95211848D01*
X138609325Y-97389969D01*
X138548002Y-97423454D01*
X138545836Y-97423905D01*
X138390494Y-97454805D01*
X138390484Y-97454808D01*
X138244813Y-97515146D01*
X138244800Y-97515153D01*
X138113697Y-97602754D01*
X138113693Y-97602757D01*
X138002199Y-97714251D01*
X138002196Y-97714255D01*
X137914595Y-97845358D01*
X137914588Y-97845371D01*
X137854250Y-97991042D01*
X137854247Y-97991054D01*
X137823486Y-98145697D01*
X137823486Y-98303390D01*
X137854247Y-98458033D01*
X137854250Y-98458045D01*
X137914588Y-98603716D01*
X137914595Y-98603729D01*
X138002196Y-98734832D01*
X138002199Y-98734836D01*
X138113693Y-98846330D01*
X138113697Y-98846333D01*
X138244800Y-98933934D01*
X138244813Y-98933941D01*
X138347443Y-98976451D01*
X138390489Y-98994281D01*
X138545139Y-99025043D01*
X138545142Y-99025044D01*
X138545144Y-99025044D01*
X138702830Y-99025044D01*
X138702831Y-99025043D01*
X138857483Y-98994281D01*
X139003165Y-98933938D01*
X139134275Y-98846333D01*
X139245775Y-98734833D01*
X139333380Y-98603723D01*
X139393723Y-98458041D01*
X139420952Y-98321153D01*
X139424624Y-98302694D01*
X139457009Y-98240783D01*
X139458507Y-98239257D01*
X139874078Y-97823685D01*
X139935401Y-97790201D01*
X140005093Y-97795185D01*
X140061026Y-97837057D01*
X140085443Y-97902521D01*
X140085759Y-97911367D01*
X140085759Y-97979321D01*
X140116520Y-98133964D01*
X140116523Y-98133976D01*
X140176861Y-98279647D01*
X140176868Y-98279660D01*
X140264469Y-98410763D01*
X140264472Y-98410767D01*
X140375966Y-98522261D01*
X140375970Y-98522264D01*
X140507073Y-98609865D01*
X140507086Y-98609872D01*
X140626130Y-98659181D01*
X140680534Y-98703021D01*
X140693239Y-98726289D01*
X140742550Y-98845338D01*
X140742555Y-98845347D01*
X140830156Y-98976450D01*
X140830159Y-98976454D01*
X140941653Y-99087948D01*
X140941657Y-99087951D01*
X141072760Y-99175552D01*
X141072773Y-99175559D01*
X141191819Y-99224869D01*
X141246223Y-99268710D01*
X141258928Y-99291978D01*
X141308236Y-99411021D01*
X141308243Y-99411034D01*
X141395844Y-99542137D01*
X141395847Y-99542141D01*
X141507341Y-99653635D01*
X141507345Y-99653638D01*
X141638448Y-99741239D01*
X141638461Y-99741246D01*
X141757505Y-99790555D01*
X141811909Y-99834395D01*
X141824614Y-99857664D01*
X141873923Y-99976709D01*
X141873930Y-99976722D01*
X141961531Y-100107825D01*
X141961534Y-100107829D01*
X142073028Y-100219323D01*
X142073032Y-100219326D01*
X142138624Y-100263154D01*
X142183429Y-100316767D01*
X142192136Y-100386092D01*
X142161981Y-100449119D01*
X142157414Y-100453937D01*
X139422741Y-103188612D01*
X139361418Y-103222097D01*
X139359252Y-103222548D01*
X139203910Y-103253448D01*
X139203900Y-103253451D01*
X139058229Y-103313789D01*
X139058216Y-103313796D01*
X138926529Y-103401788D01*
X138859852Y-103422666D01*
X138857638Y-103422686D01*
X138855871Y-103422686D01*
X138697756Y-103422686D01*
X138621516Y-103443115D01*
X138545027Y-103463610D01*
X138545022Y-103463613D01*
X138408103Y-103542662D01*
X138408095Y-103542668D01*
X135576615Y-106374148D01*
X135515292Y-106407633D01*
X135445600Y-106402649D01*
X135389667Y-106360777D01*
X135385832Y-106355358D01*
X135307578Y-106238244D01*
X135307575Y-106238240D01*
X135196081Y-106126746D01*
X135196077Y-106126743D01*
X135064974Y-106039142D01*
X135064961Y-106039135D01*
X134919290Y-105978797D01*
X134919278Y-105978794D01*
X134764634Y-105948033D01*
X134764631Y-105948033D01*
X134606947Y-105948033D01*
X134606944Y-105948033D01*
X134452300Y-105978793D01*
X134452299Y-105978794D01*
X134452296Y-105978795D01*
X134452292Y-105978796D01*
X134436045Y-105985525D01*
X134366579Y-105992993D01*
X134304100Y-105961717D01*
X134300916Y-105958644D01*
X133180627Y-104838355D01*
X133180625Y-104838352D01*
X133061754Y-104719481D01*
X133061749Y-104719477D01*
X132939137Y-104648688D01*
X132939137Y-104648687D01*
X132939134Y-104648686D01*
X132924822Y-104640423D01*
X132772094Y-104599499D01*
X132613980Y-104599499D01*
X132606384Y-104599499D01*
X132606368Y-104599500D01*
X132100098Y-104599500D01*
X132033059Y-104579815D01*
X132012417Y-104563181D01*
X130687590Y-103238355D01*
X130687588Y-103238352D01*
X130568717Y-103119481D01*
X130568716Y-103119480D01*
X130481904Y-103069360D01*
X130481904Y-103069359D01*
X130481900Y-103069358D01*
X130431785Y-103040423D01*
X130279057Y-102999499D01*
X130120943Y-102999499D01*
X130113347Y-102999499D01*
X130113331Y-102999500D01*
X129899013Y-102999500D01*
X129831974Y-102979815D01*
X129830122Y-102978602D01*
X129698432Y-102890609D01*
X129698419Y-102890602D01*
X129552748Y-102830264D01*
X129552736Y-102830261D01*
X129398092Y-102799500D01*
X129398089Y-102799500D01*
X129240405Y-102799500D01*
X129240402Y-102799500D01*
X129085757Y-102830261D01*
X129085745Y-102830264D01*
X128940074Y-102890602D01*
X128940061Y-102890609D01*
X128808958Y-102978210D01*
X128808954Y-102978213D01*
X128697460Y-103089707D01*
X128697457Y-103089711D01*
X128628681Y-103192642D01*
X128613341Y-103205461D01*
X128601649Y-103221676D01*
X128587082Y-103227407D01*
X128575069Y-103237447D01*
X128555232Y-103239938D01*
X128536631Y-103247257D01*
X128508827Y-103245766D01*
X128505744Y-103246154D01*
X128501388Y-103245368D01*
X128398650Y-103224932D01*
X128336739Y-103192547D01*
X128335160Y-103190996D01*
X128279140Y-103134976D01*
X128279138Y-103134973D01*
X128160267Y-103016102D01*
X128160259Y-103016096D01*
X128150480Y-103010450D01*
X128102265Y-102959883D01*
X128089043Y-102891276D01*
X128115011Y-102826411D01*
X128171926Y-102785883D01*
X128188275Y-102781450D01*
X128233497Y-102772455D01*
X128379179Y-102712112D01*
X128510289Y-102624507D01*
X128621789Y-102513007D01*
X128709394Y-102381897D01*
X128756880Y-102267253D01*
X128775632Y-102243982D01*
X128792341Y-102219212D01*
X128798662Y-102215403D01*
X128800720Y-102212850D01*
X128822449Y-102200795D01*
X128823190Y-102200476D01*
X128958844Y-102144287D01*
X128967890Y-102138242D01*
X128978333Y-102133751D01*
X129002170Y-102130862D01*
X129025088Y-102123682D01*
X129039261Y-102126368D01*
X129047695Y-102125347D01*
X129056599Y-102129655D01*
X129074775Y-102133100D01*
X129166503Y-102171095D01*
X129259212Y-102189536D01*
X129321153Y-102201857D01*
X129321156Y-102201858D01*
X129321158Y-102201858D01*
X129478844Y-102201858D01*
X129478845Y-102201857D01*
X129633497Y-102171095D01*
X129779179Y-102110752D01*
X129910289Y-102023147D01*
X130021789Y-101911647D01*
X130109394Y-101780537D01*
X130169737Y-101634855D01*
X130200500Y-101480200D01*
X130200500Y-101322516D01*
X130200500Y-101322513D01*
X130200499Y-101322511D01*
X130169738Y-101167868D01*
X130169737Y-101167861D01*
X130169735Y-101167856D01*
X130109397Y-101022185D01*
X130109390Y-101022172D01*
X130021789Y-100891069D01*
X130021786Y-100891065D01*
X129910292Y-100779571D01*
X129910288Y-100779568D01*
X129779185Y-100691967D01*
X129779172Y-100691960D01*
X129633501Y-100631622D01*
X129633491Y-100631619D01*
X129478149Y-100600719D01*
X129461392Y-100591953D01*
X129442914Y-100587934D01*
X129417877Y-100569191D01*
X129416238Y-100568334D01*
X129414660Y-100566783D01*
X129376230Y-100528353D01*
X129342745Y-100467030D01*
X129339911Y-100440672D01*
X129339911Y-98537366D01*
X129359596Y-98470327D01*
X129412400Y-98424572D01*
X129439714Y-98415750D01*
X129472908Y-98409148D01*
X129618590Y-98348805D01*
X129749700Y-98261200D01*
X129775230Y-98235669D01*
X129836550Y-98202184D01*
X129906242Y-98207166D01*
X129931803Y-98220247D01*
X130065214Y-98309390D01*
X130065227Y-98309397D01*
X130175119Y-98354915D01*
X130210903Y-98369737D01*
X130365553Y-98400499D01*
X130365556Y-98400500D01*
X130365558Y-98400500D01*
X130523244Y-98400500D01*
X130523245Y-98400499D01*
X130677897Y-98369737D01*
X130823579Y-98309394D01*
X130954689Y-98221789D01*
X131066189Y-98110289D01*
X131153794Y-97979179D01*
X131214137Y-97833497D01*
X131244900Y-97678842D01*
X131244900Y-97648106D01*
X131264585Y-97581067D01*
X131317389Y-97535312D01*
X131386547Y-97525368D01*
X131393092Y-97526489D01*
X131460566Y-97539911D01*
X131460569Y-97539911D01*
X131618255Y-97539911D01*
X131618256Y-97539910D01*
X131772908Y-97509148D01*
X131885577Y-97462478D01*
X131918583Y-97448808D01*
X131918583Y-97448807D01*
X131918590Y-97448805D01*
X132049700Y-97361200D01*
X132161200Y-97249700D01*
X132248805Y-97118590D01*
X132250841Y-97113676D01*
X132271743Y-97063212D01*
X132309148Y-96972908D01*
X132321464Y-96910993D01*
X132323590Y-96900308D01*
X132355975Y-96838397D01*
X132416691Y-96803823D01*
X132445207Y-96800500D01*
X136631085Y-96800500D01*
X136698124Y-96820185D01*
X136743879Y-96872989D01*
X136745646Y-96877048D01*
X136789349Y-96982561D01*
X136789356Y-96982573D01*
X136876957Y-97113676D01*
X136876960Y-97113680D01*
X136988454Y-97225174D01*
X136988458Y-97225177D01*
X137119561Y-97312778D01*
X137119574Y-97312785D01*
X137236453Y-97361197D01*
X137265250Y-97373125D01*
X137419900Y-97403887D01*
X137419903Y-97403888D01*
X137419905Y-97403888D01*
X137577591Y-97403888D01*
X137577592Y-97403887D01*
X137732244Y-97373125D01*
X137877926Y-97312782D01*
X138009036Y-97225177D01*
X138120536Y-97113677D01*
X138204638Y-96987810D01*
X138220040Y-96969037D01*
X138222415Y-96966660D01*
X138227173Y-96961903D01*
X138227176Y-96961901D01*
X138227181Y-96961895D01*
X140570423Y-94618652D01*
X140631744Y-94585169D01*
X140633774Y-94584746D01*
X140675577Y-94576431D01*
X140745169Y-94582661D01*
G37*
%TD.AperFunction*%
%TA.AperFunction,Conductor*%
G36*
X138604346Y-94704639D02*
G01*
X138639998Y-94764728D01*
X138637504Y-94834553D01*
X138607531Y-94883075D01*
X137716313Y-95774292D01*
X137709347Y-95778095D01*
X137704704Y-95784535D01*
X137679117Y-95794602D01*
X137654990Y-95807777D01*
X137645415Y-95807862D01*
X137639686Y-95810117D01*
X137604443Y-95808229D01*
X137576901Y-95802751D01*
X137514989Y-95770367D01*
X137513409Y-95768814D01*
X137464076Y-95719481D01*
X137464071Y-95719477D01*
X137364833Y-95662183D01*
X137357129Y-95657735D01*
X137327144Y-95640423D01*
X137276426Y-95626833D01*
X137269594Y-95624101D01*
X137247678Y-95606881D01*
X137223877Y-95592373D01*
X137220582Y-95585590D01*
X137214655Y-95580933D01*
X137205528Y-95554598D01*
X137193349Y-95529526D01*
X137194244Y-95522040D01*
X137191775Y-95514916D01*
X137198334Y-95487826D01*
X137201644Y-95460151D01*
X137206926Y-95452346D01*
X137208219Y-95447009D01*
X137214770Y-95440756D01*
X137227949Y-95421285D01*
X137881459Y-94767774D01*
X137942780Y-94734291D01*
X137993327Y-94733840D01*
X138053940Y-94745896D01*
X138069686Y-94749029D01*
X138069687Y-94749029D01*
X138227373Y-94749029D01*
X138227374Y-94749028D01*
X138382026Y-94718266D01*
X138472398Y-94680832D01*
X138541867Y-94673364D01*
X138604346Y-94704639D01*
G37*
%TD.AperFunction*%
%TA.AperFunction,Conductor*%
G36*
X138966442Y-90619685D02*
G01*
X138987084Y-90636319D01*
X139389192Y-91038427D01*
X139422677Y-91099750D01*
X139417693Y-91169442D01*
X139375821Y-91225375D01*
X139310357Y-91249792D01*
X139284948Y-91248203D01*
X139284907Y-91248626D01*
X139278845Y-91248029D01*
X139278842Y-91248029D01*
X139121158Y-91248029D01*
X139121155Y-91248029D01*
X138966510Y-91278790D01*
X138966498Y-91278793D01*
X138820827Y-91339131D01*
X138820814Y-91339138D01*
X138689711Y-91426739D01*
X138689707Y-91426742D01*
X138578213Y-91538236D01*
X138578210Y-91538240D01*
X138490609Y-91669343D01*
X138490602Y-91669356D01*
X138430264Y-91815027D01*
X138430261Y-91815039D01*
X138399500Y-91969682D01*
X138399500Y-92127375D01*
X138430261Y-92282018D01*
X138430264Y-92282030D01*
X138490602Y-92427701D01*
X138490609Y-92427714D01*
X138578210Y-92558817D01*
X138578213Y-92558821D01*
X138689707Y-92670315D01*
X138689711Y-92670318D01*
X138820814Y-92757919D01*
X138820827Y-92757926D01*
X138966498Y-92818264D01*
X138966503Y-92818266D01*
X139121153Y-92849028D01*
X139121156Y-92849029D01*
X139121158Y-92849029D01*
X139278844Y-92849029D01*
X139278845Y-92849028D01*
X139433497Y-92818266D01*
X139579179Y-92757923D01*
X139710289Y-92670318D01*
X139821789Y-92558818D01*
X139909394Y-92427708D01*
X139969737Y-92282026D01*
X140000500Y-92127371D01*
X140000500Y-91969687D01*
X140000500Y-91969684D01*
X139999903Y-91963622D01*
X140001497Y-91963465D01*
X140007028Y-91901623D01*
X140049888Y-91846443D01*
X140115776Y-91823195D01*
X140183774Y-91839260D01*
X140210101Y-91859336D01*
X140787446Y-92436681D01*
X140820931Y-92498004D01*
X140823765Y-92524362D01*
X140823765Y-92901950D01*
X140804080Y-92968989D01*
X140751276Y-93014744D01*
X140682118Y-93024688D01*
X140675574Y-93023567D01*
X140554581Y-92999500D01*
X140554577Y-92999500D01*
X140396893Y-92999500D01*
X140396890Y-92999500D01*
X140242245Y-93030261D01*
X140242233Y-93030264D01*
X140096562Y-93090602D01*
X140096549Y-93090609D01*
X139965446Y-93178210D01*
X139965442Y-93178213D01*
X139853948Y-93289707D01*
X139853945Y-93289711D01*
X139766344Y-93420814D01*
X139766337Y-93420827D01*
X139705999Y-93566498D01*
X139705996Y-93566510D01*
X139675235Y-93721153D01*
X139675235Y-93764009D01*
X139655550Y-93831048D01*
X139638916Y-93851690D01*
X139083075Y-94407531D01*
X139021752Y-94441016D01*
X138952060Y-94436032D01*
X138896127Y-94394160D01*
X138871710Y-94328696D01*
X138880833Y-94272397D01*
X138918266Y-94182026D01*
X138949029Y-94027371D01*
X138949029Y-93869687D01*
X138949029Y-93869684D01*
X138949028Y-93869682D01*
X138928008Y-93764009D01*
X138918266Y-93715032D01*
X138862257Y-93579813D01*
X138857926Y-93569356D01*
X138857919Y-93569343D01*
X138770318Y-93438240D01*
X138770315Y-93438236D01*
X138658821Y-93326742D01*
X138658817Y-93326739D01*
X138527714Y-93239138D01*
X138527701Y-93239131D01*
X138382030Y-93178793D01*
X138382018Y-93178790D01*
X138227374Y-93148029D01*
X138227371Y-93148029D01*
X138069687Y-93148029D01*
X138069684Y-93148029D01*
X137915039Y-93178790D01*
X137915027Y-93178793D01*
X137769356Y-93239131D01*
X137769343Y-93239138D01*
X137638240Y-93326739D01*
X137527933Y-93437046D01*
X137523682Y-93441100D01*
X137513808Y-93450079D01*
X137482755Y-93468009D01*
X137370951Y-93579813D01*
X137370949Y-93579815D01*
X137368875Y-93581888D01*
X137368864Y-93581899D01*
X136198756Y-94752007D01*
X136137433Y-94785492D01*
X136135267Y-94785943D01*
X136055560Y-94801798D01*
X136055552Y-94801800D01*
X135909879Y-94862139D01*
X135909866Y-94862146D01*
X135778763Y-94949747D01*
X135778759Y-94949750D01*
X135667265Y-95061244D01*
X135667262Y-95061248D01*
X135579661Y-95192351D01*
X135579654Y-95192364D01*
X135519316Y-95338035D01*
X135519313Y-95338047D01*
X135487363Y-95498669D01*
X135484813Y-95498161D01*
X135462862Y-95552474D01*
X135405814Y-95592814D01*
X135365645Y-95599500D01*
X134486555Y-95599500D01*
X134419516Y-95579815D01*
X134373761Y-95527011D01*
X134363817Y-95457853D01*
X134368840Y-95439588D01*
X134367969Y-95439324D01*
X134369731Y-95433509D01*
X134369737Y-95433497D01*
X134400500Y-95278842D01*
X134400500Y-95121158D01*
X134400500Y-95121155D01*
X134400499Y-95121153D01*
X134369738Y-94966510D01*
X134369737Y-94966503D01*
X134362797Y-94949748D01*
X134309397Y-94820827D01*
X134309390Y-94820814D01*
X134221789Y-94689711D01*
X134221786Y-94689707D01*
X134110292Y-94578213D01*
X134110288Y-94578210D01*
X133979185Y-94490609D01*
X133979172Y-94490602D01*
X133833501Y-94430264D01*
X133833489Y-94430261D01*
X133678845Y-94399500D01*
X133678842Y-94399500D01*
X133521158Y-94399500D01*
X133521155Y-94399500D01*
X133366510Y-94430261D01*
X133366498Y-94430264D01*
X133220827Y-94490602D01*
X133220814Y-94490609D01*
X133089125Y-94578602D01*
X133022447Y-94599480D01*
X133020234Y-94599500D01*
X130894711Y-94599500D01*
X130894695Y-94599499D01*
X130887099Y-94599499D01*
X130728985Y-94599499D01*
X130631856Y-94625525D01*
X130576252Y-94640424D01*
X130576251Y-94640425D01*
X130526138Y-94669359D01*
X130526137Y-94669360D01*
X130519202Y-94673364D01*
X130439327Y-94719479D01*
X130439324Y-94719481D01*
X130327520Y-94831286D01*
X129719144Y-95439661D01*
X129678917Y-95466540D01*
X129620827Y-95490602D01*
X129620818Y-95490607D01*
X129489718Y-95578204D01*
X129468458Y-95599464D01*
X129407134Y-95632948D01*
X129337442Y-95627962D01*
X129293097Y-95599462D01*
X128422511Y-94728876D01*
X128407807Y-94701948D01*
X128391215Y-94676130D01*
X128390323Y-94669929D01*
X128389026Y-94667553D01*
X128386192Y-94641195D01*
X128386192Y-94621457D01*
X128405877Y-94554418D01*
X128407090Y-94552566D01*
X128448489Y-94490609D01*
X128495086Y-94420871D01*
X128555429Y-94275189D01*
X128586192Y-94120534D01*
X128586192Y-93962850D01*
X128586192Y-93962847D01*
X128586191Y-93962845D01*
X128555429Y-93808195D01*
X128537127Y-93764009D01*
X128495089Y-93662519D01*
X128495082Y-93662506D01*
X128407481Y-93531403D01*
X128407478Y-93531399D01*
X128295984Y-93419905D01*
X128295980Y-93419902D01*
X128164877Y-93332301D01*
X128164864Y-93332294D01*
X128019193Y-93271956D01*
X128019181Y-93271953D01*
X127864537Y-93241192D01*
X127864534Y-93241192D01*
X127809509Y-93241192D01*
X127742470Y-93221507D01*
X127706406Y-93186081D01*
X127694584Y-93168388D01*
X127694580Y-93168383D01*
X127583086Y-93056889D01*
X127583082Y-93056886D01*
X127451979Y-92969285D01*
X127451966Y-92969278D01*
X127306293Y-92908939D01*
X127306289Y-92908938D01*
X127300305Y-92907748D01*
X127238395Y-92875360D01*
X127203823Y-92814644D01*
X127200500Y-92786131D01*
X127200500Y-90724000D01*
X127220185Y-90656961D01*
X127272989Y-90611206D01*
X127324500Y-90600000D01*
X138899403Y-90600000D01*
X138966442Y-90619685D01*
G37*
%TD.AperFunction*%
%TD*%
M02*
