M48
; DRILL file KiCad 10.0.4 date 2026-09-13T11:47:43
; FORMAT={-:-/ absolute / metric / decimal}
; #@! TF.CreationDate,2026-09-13T11:47:43+02:00
; #@! TF.GenerationSoftware,Kicad,Pcbnew,10.0.4
; #@! TF.FileFunction,Plated,1,2,PTH
FMAT,2
METRIC
; #@! TA.AperFunction,Plated,PTH,ComponentDrill
T1C0.200
; #@! TA.AperFunction,Plated,PTH,ViaDrill
T2C0.300
; #@! TA.AperFunction,Plated,PTH,ComponentDrill
T3C0.400
; #@! TA.AperFunction,Plated,PTH,ComponentDrill
T4C0.600
; #@! TA.AperFunction,Plated,PTH,ComponentDrill
T5C1.000
; #@! TA.AperFunction,Plated,PTH,ComponentDrill
T6C2.200
%
G90
G05
T1
X154.86Y-126.188
X159.7Y-120.908
T2
X102.4Y-67.8
X104.8Y-148.0
X108.0Y-64.0
X111.65Y-127.45
X111.65Y-139.85
X113.35Y-127.425
X113.35Y-132.575
X113.35Y-139.85
X113.35Y-145.0
X117.24Y-124.95
X117.462Y-126.462
X117.5Y-148.3
X117.5Y-150.0
X117.95Y-101.7
X118.4Y-120.2
X119.176Y-114.776
X119.2Y-108.6
X120.8Y-98.0
X120.8Y-124.6
X120.8Y-126.4
X121.6Y-98.0
X121.7Y-125.462
X121.8Y-122.0
X122.2Y-94.0
X122.2Y-113.0
X122.2Y-113.8
X122.2Y-114.6
X122.2Y-115.4
X122.21Y-99.21
X122.6Y-124.6
X122.6Y-126.4
X122.65Y-150.0
X122.8Y-105.8
X123.2Y-120.12
X123.536Y-122.264
X124.0Y-88.2
X124.0Y-89.0
X124.0Y-89.8
X124.0Y-90.6
X124.4Y-57.0
X124.4Y-120.12
X124.4Y-121.08
X124.6Y-56.0
X124.6Y-134.275
X124.8Y-125.462
X124.84Y-96.58
X125.0Y-124.027
X125.259Y-99.711
X125.259Y-100.511
X125.259Y-101.311
X125.259Y-102.111
X125.321Y-104.521
X125.334Y-98.914
X125.45Y-76.5
X125.45Y-79.0
X125.476Y-95.924
X125.9Y-98.349
X126.0Y-62.4
X126.042Y-107.646
X126.25Y-73.46
X127.123Y-102.8
X127.25Y-72.5
X127.25Y-73.46
X127.273Y-94.327
X127.49Y-95.11
X127.6Y-66.2
X127.6Y-67.25
X127.6Y-68.2
X127.861Y-102.4
X128.061Y-97.461
X128.063Y-94.455
X128.25Y-73.46
X128.593Y-121.007
X128.6Y-102.094
X128.692Y-104.6
X128.739Y-98.139
X128.8Y-108.0
X128.833Y-105.397
X128.876Y-94.324
X129.121Y-96.321
X129.25Y-72.5
X129.25Y-73.46
X129.4Y-101.401
X129.407Y-121.993
X129.8Y-97.0
X129.862Y-103.662
X130.0Y-148.3
X130.0Y-150.0
X130.061Y-105.739
X130.25Y-73.46
X130.276Y-109.676
X130.444Y-97.6
X130.49Y-120.641
X130.739Y-105.061
X130.861Y-96.061
X131.21Y-78.56
X131.25Y-73.46
X131.539Y-96.739
X131.661Y-106.939
X131.69Y-111.09
X132.0Y-124.4
X132.0Y-126.0
X132.121Y-94.121
X132.25Y-73.46
X132.339Y-106.261
X132.8Y-94.8
X132.976Y-111.776
X133.257Y-67.956
X133.4Y-101.0
X133.576Y-111.176
X133.7Y-124.3
X133.703Y-87.703
X133.75Y-71.0
X133.75Y-73.46
X134.056Y-68.003
X134.2Y-100.2
X134.2Y-101.8
X134.269Y-88.269
X134.721Y-92.679
X134.834Y-88.834
X134.855Y-68.041
X134.9Y-106.962
X135.0Y-65.4
X135.0Y-99.4
X135.0Y-101.0
X135.0Y-102.6
X135.4Y-89.4
X135.479Y-93.521
X135.65Y-67.953
X135.661Y-94.939
X135.8Y-100.2
X135.8Y-101.8
X136.05Y-76.5
X136.289Y-95.572
X136.339Y-94.261
X136.451Y-67.763
X136.6Y-101.0
X137.176Y-67.424
X137.2Y-95.479
X137.4Y-93.0
X137.8Y-79.29
X137.8Y-80.25
X137.879Y-94.8
X137.921Y-96.2
X138.0Y-126.0
X138.169Y-110.231
X138.19Y-113.79
X138.24Y-85.8
X138.4Y-106.2
X138.524Y-98.324
X138.6Y-95.521
X138.75Y-73.46
X138.79Y-113.19
X138.979Y-108.213
X138.986Y-93.586
X139.079Y-106.879
X139.2Y-92.049
X139.75Y-73.46
X139.8Y-82.2
X139.861Y-104.061
X139.909Y-108.203
X140.0Y-109.0
X140.4Y-95.0
X140.695Y-108.056
X140.886Y-97.9
X141.2Y-101.0
X141.224Y-95.976
X141.275Y-107.477
X141.4Y-87.06
X141.4Y-88.33
X141.4Y-89.6
X141.452Y-98.466
X141.6Y-112.772
X141.6Y-113.62
X141.614Y-105.8
X141.949Y-108.338
X142.018Y-99.032
X142.061Y-102.061
X142.176Y-114.176
X142.4Y-66.4
X142.4Y-67.25
X142.4Y-68.2
X142.583Y-99.598
X142.739Y-102.739
X142.8Y-107.793
X142.807Y-106.993
X143.0Y-114.2
X143.149Y-100.163
X143.217Y-117.583
X144.0Y-62.4
X144.0Y-118.78
X144.8Y-114.91
X145.2Y-99.6
X145.2Y-111.6
X145.2Y-117.303
X145.2Y-119.8
X145.206Y-116.394
X145.4Y-56.0
X145.6Y-57.0
X146.0Y-113.92
X146.0Y-114.88
X146.2Y-98.4
X147.27Y-77.682
X147.376Y-69.176
X147.424Y-102.176
X148.2Y-77.6
X148.575Y-87.06
X148.575Y-88.33
X148.575Y-89.6
X149.0Y-107.4
X149.355Y-68.045
X150.4Y-105.009
X150.4Y-106.25
X150.6Y-140.8
X151.2Y-93.076
X151.2Y-94.9
X151.2Y-118.36
X151.2Y-126.373
X151.82Y-85.8
X152.0Y-115.6
X152.2Y-136.0
X152.4Y-118.2
X152.59Y-134.61
X152.6Y-140.8
X152.61Y-71.345
X152.61Y-73.545
X154.85Y-104.05
X154.862Y-105.95
X156.062Y-118.4
X157.137Y-104.05
X157.137Y-105.95
X157.938Y-118.4
X162.0Y-64.0
X165.2Y-148.0
T3
X105.75Y-57.4
X105.75Y-152.6
X106.233Y-56.233
X106.233Y-58.567
X106.233Y-151.433
X106.233Y-153.767
X107.4Y-55.75
X107.4Y-59.05
X107.4Y-150.95
X107.4Y-154.25
X108.567Y-56.233
X108.567Y-58.567
X108.567Y-151.433
X108.567Y-153.767
X109.05Y-57.4
X109.05Y-152.6
X160.95Y-57.4
X160.95Y-152.6
X161.433Y-56.233
X161.433Y-58.567
X161.433Y-151.433
X161.433Y-153.767
X162.6Y-55.75
X162.6Y-59.05
X162.6Y-150.95
X162.6Y-154.25
X163.767Y-56.233
X163.767Y-58.567
X163.767Y-151.433
X163.767Y-153.767
X164.25Y-57.4
X164.25Y-152.6
T5
X165.4Y-112.92
X165.4Y-115.46
X165.4Y-118.0
X165.4Y-121.91
X165.4Y-124.45
X165.4Y-126.99
X165.4Y-129.53
X165.4Y-132.07
X165.4Y-134.61
X165.4Y-137.15
X165.4Y-139.69
T6
X107.4Y-57.4
X107.4Y-152.6
X162.6Y-57.4
X162.6Y-152.6
T4
G00X163.77Y-100.68
M15
G01X162.67Y-100.68
M16
G05
G00X163.77Y-109.32
M15
G01X162.67Y-109.32
M16
G05
G00X167.8Y-100.68
M15
G01X167.0Y-100.68
M16
G05
G00X167.8Y-109.32
M15
G01X167.0Y-109.32
M16
G05
M30
